M48
METRIC,TZ
T1C0.400
T2C1.000
%
G90
G05
T1
X120832Y-68792
X121650Y-62050
X121775Y-73570
X122850Y-62650
X123475Y-60375
X123800Y-80600
X124875Y-81550
X125050Y-77450
X125120Y-72375
X125750Y-75900
X125900Y-79143
X125929Y-78070
X126575Y-71375
X126625Y-70325
X126820Y-76520
X127700Y-76003
X127801Y-79436
X127861Y-65859
X128570Y-69810
X128596Y-76925
X129400Y-75986
X129650Y-76980
X130053Y-73775
X130510Y-82290
X130940Y-74267
X130970Y-69587
X131380Y-66690
X132594Y-75214
X133250Y-67675
X133250Y-71280
X136490Y-81570
X136600Y-62350
T2
X121100Y-59950
X121100Y-82600
X125940Y-92860
X128480Y-92860
X131020Y-92860
X137380Y-69940
X137380Y-72480
X137380Y-75020
T0
M30
