%TF.GenerationSoftware,KiCad,Pcbnew,5.1.9*%
%TF.CreationDate,2021-03-27T13:30:24+01:00*%
%TF.ProjectId,picoballoon,7069636f-6261-46c6-9c6f-6f6e2e6b6963,0.1*%
%TF.SameCoordinates,Original*%
%TF.FileFunction,Copper,L1,Top*%
%TF.FilePolarity,Positive*%
%FSLAX46Y46*%
G04 Gerber Fmt 4.6, Leading zero omitted, Abs format (unit mm)*
G04 Created by KiCad (PCBNEW 5.1.9) date 2021-03-27 13:30:24*
%MOMM*%
%LPD*%
G01*
G04 APERTURE LIST*
%TA.AperFunction,ComponentPad*%
%ADD10O,1.700000X1.700000*%
%TD*%
%TA.AperFunction,ComponentPad*%
%ADD11R,1.700000X1.700000*%
%TD*%
%TA.AperFunction,SMDPad,CuDef*%
%ADD12R,0.700000X2.150000*%
%TD*%
%TA.AperFunction,SMDPad,CuDef*%
%ADD13R,2.150000X0.700000*%
%TD*%
%TA.AperFunction,SMDPad,CuDef*%
%ADD14R,2.400000X0.740000*%
%TD*%
%TA.AperFunction,SMDPad,CuDef*%
%ADD15R,1.000000X2.750000*%
%TD*%
%TA.AperFunction,SMDPad,CuDef*%
%ADD16R,0.950000X0.550000*%
%TD*%
%TA.AperFunction,ViaPad*%
%ADD17C,0.800000*%
%TD*%
%TA.AperFunction,Conductor*%
%ADD18C,0.500000*%
%TD*%
%TA.AperFunction,Conductor*%
%ADD19C,0.400000*%
%TD*%
%TA.AperFunction,Conductor*%
%ADD20C,0.300000*%
%TD*%
%TA.AperFunction,Conductor*%
%ADD21C,0.250000*%
%TD*%
G04 APERTURE END LIST*
D10*
%TO.P,J5,3*%
%TO.N,GND*%
X137380000Y-69940000D03*
%TO.P,J5,2*%
%TO.N,Net-(J5-Pad2)*%
X137380000Y-72480000D03*
D11*
%TO.P,J5,1*%
%TO.N,GND*%
X137380000Y-75020000D03*
%TD*%
%TO.P,J2,1*%
%TO.N,GND*%
X121100000Y-82600000D03*
%TD*%
%TO.P,R3,2*%
%TO.N,Net-(JP1-Pad1)*%
%TA.AperFunction,SMDPad,CuDef*%
G36*
G01*
X120925000Y-70050000D02*
X120375000Y-70050000D01*
G75*
G02*
X120175000Y-69850000I0J200000D01*
G01*
X120175000Y-69450000D01*
G75*
G02*
X120375000Y-69250000I200000J0D01*
G01*
X120925000Y-69250000D01*
G75*
G02*
X121125000Y-69450000I0J-200000D01*
G01*
X121125000Y-69850000D01*
G75*
G02*
X120925000Y-70050000I-200000J0D01*
G01*
G37*
%TD.AperFunction*%
%TO.P,R3,1*%
%TO.N,+BATT*%
%TA.AperFunction,SMDPad,CuDef*%
G36*
G01*
X120925000Y-71700000D02*
X120375000Y-71700000D01*
G75*
G02*
X120175000Y-71500000I0J200000D01*
G01*
X120175000Y-71100000D01*
G75*
G02*
X120375000Y-70900000I200000J0D01*
G01*
X120925000Y-70900000D01*
G75*
G02*
X121125000Y-71100000I0J-200000D01*
G01*
X121125000Y-71500000D01*
G75*
G02*
X120925000Y-71700000I-200000J0D01*
G01*
G37*
%TD.AperFunction*%
%TD*%
%TO.P,U4,1*%
%TO.N,+3V3*%
%TA.AperFunction,SMDPad,CuDef*%
G36*
G01*
X122125000Y-75925000D02*
X122125000Y-75675000D01*
G75*
G02*
X122250000Y-75550000I125000J0D01*
G01*
X123500000Y-75550000D01*
G75*
G02*
X123625000Y-75675000I0J-125000D01*
G01*
X123625000Y-75925000D01*
G75*
G02*
X123500000Y-76050000I-125000J0D01*
G01*
X122250000Y-76050000D01*
G75*
G02*
X122125000Y-75925000I0J125000D01*
G01*
G37*
%TD.AperFunction*%
%TO.P,U4,2*%
%TO.N,N/C*%
%TA.AperFunction,SMDPad,CuDef*%
G36*
G01*
X122125000Y-76725000D02*
X122125000Y-76475000D01*
G75*
G02*
X122250000Y-76350000I125000J0D01*
G01*
X123500000Y-76350000D01*
G75*
G02*
X123625000Y-76475000I0J-125000D01*
G01*
X123625000Y-76725000D01*
G75*
G02*
X123500000Y-76850000I-125000J0D01*
G01*
X122250000Y-76850000D01*
G75*
G02*
X122125000Y-76725000I0J125000D01*
G01*
G37*
%TD.AperFunction*%
%TO.P,U4,3*%
%TA.AperFunction,SMDPad,CuDef*%
G36*
G01*
X122125000Y-77525000D02*
X122125000Y-77275000D01*
G75*
G02*
X122250000Y-77150000I125000J0D01*
G01*
X123500000Y-77150000D01*
G75*
G02*
X123625000Y-77275000I0J-125000D01*
G01*
X123625000Y-77525000D01*
G75*
G02*
X123500000Y-77650000I-125000J0D01*
G01*
X122250000Y-77650000D01*
G75*
G02*
X122125000Y-77525000I0J125000D01*
G01*
G37*
%TD.AperFunction*%
%TO.P,U4,4*%
%TO.N,Net-(R5-Pad1)*%
%TA.AperFunction,SMDPad,CuDef*%
G36*
G01*
X122125000Y-78325000D02*
X122125000Y-78075000D01*
G75*
G02*
X122250000Y-77950000I125000J0D01*
G01*
X123500000Y-77950000D01*
G75*
G02*
X123625000Y-78075000I0J-125000D01*
G01*
X123625000Y-78325000D01*
G75*
G02*
X123500000Y-78450000I-125000J0D01*
G01*
X122250000Y-78450000D01*
G75*
G02*
X122125000Y-78325000I0J125000D01*
G01*
G37*
%TD.AperFunction*%
%TO.P,U4,5*%
%TO.N,+3V3*%
%TA.AperFunction,SMDPad,CuDef*%
G36*
G01*
X122125000Y-79125000D02*
X122125000Y-78875000D01*
G75*
G02*
X122250000Y-78750000I125000J0D01*
G01*
X123500000Y-78750000D01*
G75*
G02*
X123625000Y-78875000I0J-125000D01*
G01*
X123625000Y-79125000D01*
G75*
G02*
X123500000Y-79250000I-125000J0D01*
G01*
X122250000Y-79250000D01*
G75*
G02*
X122125000Y-79125000I0J125000D01*
G01*
G37*
%TD.AperFunction*%
%TO.P,U4,6*%
%TO.N,/VBATT*%
%TA.AperFunction,SMDPad,CuDef*%
G36*
G01*
X122125000Y-79925000D02*
X122125000Y-79675000D01*
G75*
G02*
X122250000Y-79550000I125000J0D01*
G01*
X123500000Y-79550000D01*
G75*
G02*
X123625000Y-79675000I0J-125000D01*
G01*
X123625000Y-79925000D01*
G75*
G02*
X123500000Y-80050000I-125000J0D01*
G01*
X122250000Y-80050000D01*
G75*
G02*
X122125000Y-79925000I0J125000D01*
G01*
G37*
%TD.AperFunction*%
%TO.P,U4,7*%
%TO.N,/RFM_IO1*%
%TA.AperFunction,SMDPad,CuDef*%
G36*
G01*
X122125000Y-80725000D02*
X122125000Y-80475000D01*
G75*
G02*
X122250000Y-80350000I125000J0D01*
G01*
X123500000Y-80350000D01*
G75*
G02*
X123625000Y-80475000I0J-125000D01*
G01*
X123625000Y-80725000D01*
G75*
G02*
X123500000Y-80850000I-125000J0D01*
G01*
X122250000Y-80850000D01*
G75*
G02*
X122125000Y-80725000I0J125000D01*
G01*
G37*
%TD.AperFunction*%
%TO.P,U4,8*%
%TO.N,/DEBUG_TXD*%
%TA.AperFunction,SMDPad,CuDef*%
G36*
G01*
X122125000Y-81525000D02*
X122125000Y-81275000D01*
G75*
G02*
X122250000Y-81150000I125000J0D01*
G01*
X123500000Y-81150000D01*
G75*
G02*
X123625000Y-81275000I0J-125000D01*
G01*
X123625000Y-81525000D01*
G75*
G02*
X123500000Y-81650000I-125000J0D01*
G01*
X122250000Y-81650000D01*
G75*
G02*
X122125000Y-81525000I0J125000D01*
G01*
G37*
%TD.AperFunction*%
%TO.P,U4,9*%
%TO.N,/DEBUG_RXD*%
%TA.AperFunction,SMDPad,CuDef*%
G36*
G01*
X124000000Y-83400000D02*
X124000000Y-82150000D01*
G75*
G02*
X124125000Y-82025000I125000J0D01*
G01*
X124375000Y-82025000D01*
G75*
G02*
X124500000Y-82150000I0J-125000D01*
G01*
X124500000Y-83400000D01*
G75*
G02*
X124375000Y-83525000I-125000J0D01*
G01*
X124125000Y-83525000D01*
G75*
G02*
X124000000Y-83400000I0J125000D01*
G01*
G37*
%TD.AperFunction*%
%TO.P,U4,10*%
%TO.N,/RFM_IO0*%
%TA.AperFunction,SMDPad,CuDef*%
G36*
G01*
X124800000Y-83400000D02*
X124800000Y-82150000D01*
G75*
G02*
X124925000Y-82025000I125000J0D01*
G01*
X125175000Y-82025000D01*
G75*
G02*
X125300000Y-82150000I0J-125000D01*
G01*
X125300000Y-83400000D01*
G75*
G02*
X125175000Y-83525000I-125000J0D01*
G01*
X124925000Y-83525000D01*
G75*
G02*
X124800000Y-83400000I0J125000D01*
G01*
G37*
%TD.AperFunction*%
%TO.P,U4,11*%
%TO.N,/SCK*%
%TA.AperFunction,SMDPad,CuDef*%
G36*
G01*
X125600000Y-83400000D02*
X125600000Y-82150000D01*
G75*
G02*
X125725000Y-82025000I125000J0D01*
G01*
X125975000Y-82025000D01*
G75*
G02*
X126100000Y-82150000I0J-125000D01*
G01*
X126100000Y-83400000D01*
G75*
G02*
X125975000Y-83525000I-125000J0D01*
G01*
X125725000Y-83525000D01*
G75*
G02*
X125600000Y-83400000I0J125000D01*
G01*
G37*
%TD.AperFunction*%
%TO.P,U4,12*%
%TO.N,/MISO*%
%TA.AperFunction,SMDPad,CuDef*%
G36*
G01*
X126400000Y-83400000D02*
X126400000Y-82150000D01*
G75*
G02*
X126525000Y-82025000I125000J0D01*
G01*
X126775000Y-82025000D01*
G75*
G02*
X126900000Y-82150000I0J-125000D01*
G01*
X126900000Y-83400000D01*
G75*
G02*
X126775000Y-83525000I-125000J0D01*
G01*
X126525000Y-83525000D01*
G75*
G02*
X126400000Y-83400000I0J125000D01*
G01*
G37*
%TD.AperFunction*%
%TO.P,U4,13*%
%TO.N,/MOSI*%
%TA.AperFunction,SMDPad,CuDef*%
G36*
G01*
X127200000Y-83400000D02*
X127200000Y-82150000D01*
G75*
G02*
X127325000Y-82025000I125000J0D01*
G01*
X127575000Y-82025000D01*
G75*
G02*
X127700000Y-82150000I0J-125000D01*
G01*
X127700000Y-83400000D01*
G75*
G02*
X127575000Y-83525000I-125000J0D01*
G01*
X127325000Y-83525000D01*
G75*
G02*
X127200000Y-83400000I0J125000D01*
G01*
G37*
%TD.AperFunction*%
%TO.P,U4,14*%
%TO.N,N/C*%
%TA.AperFunction,SMDPad,CuDef*%
G36*
G01*
X128000000Y-83400000D02*
X128000000Y-82150000D01*
G75*
G02*
X128125000Y-82025000I125000J0D01*
G01*
X128375000Y-82025000D01*
G75*
G02*
X128500000Y-82150000I0J-125000D01*
G01*
X128500000Y-83400000D01*
G75*
G02*
X128375000Y-83525000I-125000J0D01*
G01*
X128125000Y-83525000D01*
G75*
G02*
X128000000Y-83400000I0J125000D01*
G01*
G37*
%TD.AperFunction*%
%TO.P,U4,15*%
%TA.AperFunction,SMDPad,CuDef*%
G36*
G01*
X128800000Y-83400000D02*
X128800000Y-82150000D01*
G75*
G02*
X128925000Y-82025000I125000J0D01*
G01*
X129175000Y-82025000D01*
G75*
G02*
X129300000Y-82150000I0J-125000D01*
G01*
X129300000Y-83400000D01*
G75*
G02*
X129175000Y-83525000I-125000J0D01*
G01*
X128925000Y-83525000D01*
G75*
G02*
X128800000Y-83400000I0J125000D01*
G01*
G37*
%TD.AperFunction*%
%TO.P,U4,16*%
%TO.N,GND*%
%TA.AperFunction,SMDPad,CuDef*%
G36*
G01*
X129600000Y-83400000D02*
X129600000Y-82150000D01*
G75*
G02*
X129725000Y-82025000I125000J0D01*
G01*
X129975000Y-82025000D01*
G75*
G02*
X130100000Y-82150000I0J-125000D01*
G01*
X130100000Y-83400000D01*
G75*
G02*
X129975000Y-83525000I-125000J0D01*
G01*
X129725000Y-83525000D01*
G75*
G02*
X129600000Y-83400000I0J125000D01*
G01*
G37*
%TD.AperFunction*%
%TO.P,U4,17*%
%TO.N,+3V3*%
%TA.AperFunction,SMDPad,CuDef*%
G36*
G01*
X130475000Y-81525000D02*
X130475000Y-81275000D01*
G75*
G02*
X130600000Y-81150000I125000J0D01*
G01*
X131850000Y-81150000D01*
G75*
G02*
X131975000Y-81275000I0J-125000D01*
G01*
X131975000Y-81525000D01*
G75*
G02*
X131850000Y-81650000I-125000J0D01*
G01*
X130600000Y-81650000D01*
G75*
G02*
X130475000Y-81525000I0J125000D01*
G01*
G37*
%TD.AperFunction*%
%TO.P,U4,18*%
%TO.N,N/C*%
%TA.AperFunction,SMDPad,CuDef*%
G36*
G01*
X130475000Y-80725000D02*
X130475000Y-80475000D01*
G75*
G02*
X130600000Y-80350000I125000J0D01*
G01*
X131850000Y-80350000D01*
G75*
G02*
X131975000Y-80475000I0J-125000D01*
G01*
X131975000Y-80725000D01*
G75*
G02*
X131850000Y-80850000I-125000J0D01*
G01*
X130600000Y-80850000D01*
G75*
G02*
X130475000Y-80725000I0J125000D01*
G01*
G37*
%TD.AperFunction*%
%TO.P,U4,19*%
%TO.N,/GPS_TXD*%
%TA.AperFunction,SMDPad,CuDef*%
G36*
G01*
X130475000Y-79925000D02*
X130475000Y-79675000D01*
G75*
G02*
X130600000Y-79550000I125000J0D01*
G01*
X131850000Y-79550000D01*
G75*
G02*
X131975000Y-79675000I0J-125000D01*
G01*
X131975000Y-79925000D01*
G75*
G02*
X131850000Y-80050000I-125000J0D01*
G01*
X130600000Y-80050000D01*
G75*
G02*
X130475000Y-79925000I0J125000D01*
G01*
G37*
%TD.AperFunction*%
%TO.P,U4,20*%
%TO.N,/GPS_RXD*%
%TA.AperFunction,SMDPad,CuDef*%
G36*
G01*
X130475000Y-79125000D02*
X130475000Y-78875000D01*
G75*
G02*
X130600000Y-78750000I125000J0D01*
G01*
X131850000Y-78750000D01*
G75*
G02*
X131975000Y-78875000I0J-125000D01*
G01*
X131975000Y-79125000D01*
G75*
G02*
X131850000Y-79250000I-125000J0D01*
G01*
X130600000Y-79250000D01*
G75*
G02*
X130475000Y-79125000I0J125000D01*
G01*
G37*
%TD.AperFunction*%
%TO.P,U4,21*%
%TO.N,/RFM_RESET*%
%TA.AperFunction,SMDPad,CuDef*%
G36*
G01*
X130475000Y-78325000D02*
X130475000Y-78075000D01*
G75*
G02*
X130600000Y-77950000I125000J0D01*
G01*
X131850000Y-77950000D01*
G75*
G02*
X131975000Y-78075000I0J-125000D01*
G01*
X131975000Y-78325000D01*
G75*
G02*
X131850000Y-78450000I-125000J0D01*
G01*
X130600000Y-78450000D01*
G75*
G02*
X130475000Y-78325000I0J125000D01*
G01*
G37*
%TD.AperFunction*%
%TO.P,U4,22*%
%TO.N,N/C*%
%TA.AperFunction,SMDPad,CuDef*%
G36*
G01*
X130475000Y-77525000D02*
X130475000Y-77275000D01*
G75*
G02*
X130600000Y-77150000I125000J0D01*
G01*
X131850000Y-77150000D01*
G75*
G02*
X131975000Y-77275000I0J-125000D01*
G01*
X131975000Y-77525000D01*
G75*
G02*
X131850000Y-77650000I-125000J0D01*
G01*
X130600000Y-77650000D01*
G75*
G02*
X130475000Y-77525000I0J125000D01*
G01*
G37*
%TD.AperFunction*%
%TO.P,U4,23*%
%TO.N,/SWDIO*%
%TA.AperFunction,SMDPad,CuDef*%
G36*
G01*
X130475000Y-76725000D02*
X130475000Y-76475000D01*
G75*
G02*
X130600000Y-76350000I125000J0D01*
G01*
X131850000Y-76350000D01*
G75*
G02*
X131975000Y-76475000I0J-125000D01*
G01*
X131975000Y-76725000D01*
G75*
G02*
X131850000Y-76850000I-125000J0D01*
G01*
X130600000Y-76850000D01*
G75*
G02*
X130475000Y-76725000I0J125000D01*
G01*
G37*
%TD.AperFunction*%
%TO.P,U4,24*%
%TO.N,/SWCLK*%
%TA.AperFunction,SMDPad,CuDef*%
G36*
G01*
X130475000Y-75925000D02*
X130475000Y-75675000D01*
G75*
G02*
X130600000Y-75550000I125000J0D01*
G01*
X131850000Y-75550000D01*
G75*
G02*
X131975000Y-75675000I0J-125000D01*
G01*
X131975000Y-75925000D01*
G75*
G02*
X131850000Y-76050000I-125000J0D01*
G01*
X130600000Y-76050000D01*
G75*
G02*
X130475000Y-75925000I0J125000D01*
G01*
G37*
%TD.AperFunction*%
%TO.P,U4,25*%
%TO.N,/GPS_FIX*%
%TA.AperFunction,SMDPad,CuDef*%
G36*
G01*
X129600000Y-75050000D02*
X129600000Y-73800000D01*
G75*
G02*
X129725000Y-73675000I125000J0D01*
G01*
X129975000Y-73675000D01*
G75*
G02*
X130100000Y-73800000I0J-125000D01*
G01*
X130100000Y-75050000D01*
G75*
G02*
X129975000Y-75175000I-125000J0D01*
G01*
X129725000Y-75175000D01*
G75*
G02*
X129600000Y-75050000I0J125000D01*
G01*
G37*
%TD.AperFunction*%
%TO.P,U4,26*%
%TO.N,/GPS_ON*%
%TA.AperFunction,SMDPad,CuDef*%
G36*
G01*
X128800000Y-75050000D02*
X128800000Y-73800000D01*
G75*
G02*
X128925000Y-73675000I125000J0D01*
G01*
X129175000Y-73675000D01*
G75*
G02*
X129300000Y-73800000I0J-125000D01*
G01*
X129300000Y-75050000D01*
G75*
G02*
X129175000Y-75175000I-125000J0D01*
G01*
X128925000Y-75175000D01*
G75*
G02*
X128800000Y-75050000I0J125000D01*
G01*
G37*
%TD.AperFunction*%
%TO.P,U4,27*%
%TO.N,/RFM_CS*%
%TA.AperFunction,SMDPad,CuDef*%
G36*
G01*
X128000000Y-75050000D02*
X128000000Y-73800000D01*
G75*
G02*
X128125000Y-73675000I125000J0D01*
G01*
X128375000Y-73675000D01*
G75*
G02*
X128500000Y-73800000I0J-125000D01*
G01*
X128500000Y-75050000D01*
G75*
G02*
X128375000Y-75175000I-125000J0D01*
G01*
X128125000Y-75175000D01*
G75*
G02*
X128000000Y-75050000I0J125000D01*
G01*
G37*
%TD.AperFunction*%
%TO.P,U4,28*%
%TO.N,/GPS_FENCE*%
%TA.AperFunction,SMDPad,CuDef*%
G36*
G01*
X127200000Y-75050000D02*
X127200000Y-73800000D01*
G75*
G02*
X127325000Y-73675000I125000J0D01*
G01*
X127575000Y-73675000D01*
G75*
G02*
X127700000Y-73800000I0J-125000D01*
G01*
X127700000Y-75050000D01*
G75*
G02*
X127575000Y-75175000I-125000J0D01*
G01*
X127325000Y-75175000D01*
G75*
G02*
X127200000Y-75050000I0J125000D01*
G01*
G37*
%TD.AperFunction*%
%TO.P,U4,29*%
%TO.N,/SCL*%
%TA.AperFunction,SMDPad,CuDef*%
G36*
G01*
X126400000Y-75050000D02*
X126400000Y-73800000D01*
G75*
G02*
X126525000Y-73675000I125000J0D01*
G01*
X126775000Y-73675000D01*
G75*
G02*
X126900000Y-73800000I0J-125000D01*
G01*
X126900000Y-75050000D01*
G75*
G02*
X126775000Y-75175000I-125000J0D01*
G01*
X126525000Y-75175000D01*
G75*
G02*
X126400000Y-75050000I0J125000D01*
G01*
G37*
%TD.AperFunction*%
%TO.P,U4,30*%
%TO.N,/SDA*%
%TA.AperFunction,SMDPad,CuDef*%
G36*
G01*
X125600000Y-75050000D02*
X125600000Y-73800000D01*
G75*
G02*
X125725000Y-73675000I125000J0D01*
G01*
X125975000Y-73675000D01*
G75*
G02*
X126100000Y-73800000I0J-125000D01*
G01*
X126100000Y-75050000D01*
G75*
G02*
X125975000Y-75175000I-125000J0D01*
G01*
X125725000Y-75175000D01*
G75*
G02*
X125600000Y-75050000I0J125000D01*
G01*
G37*
%TD.AperFunction*%
%TO.P,U4,31*%
%TO.N,Net-(R4-Pad1)*%
%TA.AperFunction,SMDPad,CuDef*%
G36*
G01*
X124800000Y-75050000D02*
X124800000Y-73800000D01*
G75*
G02*
X124925000Y-73675000I125000J0D01*
G01*
X125175000Y-73675000D01*
G75*
G02*
X125300000Y-73800000I0J-125000D01*
G01*
X125300000Y-75050000D01*
G75*
G02*
X125175000Y-75175000I-125000J0D01*
G01*
X124925000Y-75175000D01*
G75*
G02*
X124800000Y-75050000I0J125000D01*
G01*
G37*
%TD.AperFunction*%
%TO.P,U4,32*%
%TO.N,GND*%
%TA.AperFunction,SMDPad,CuDef*%
G36*
G01*
X124000000Y-75050000D02*
X124000000Y-73800000D01*
G75*
G02*
X124125000Y-73675000I125000J0D01*
G01*
X124375000Y-73675000D01*
G75*
G02*
X124500000Y-73800000I0J-125000D01*
G01*
X124500000Y-75050000D01*
G75*
G02*
X124375000Y-75175000I-125000J0D01*
G01*
X124125000Y-75175000D01*
G75*
G02*
X124000000Y-75050000I0J125000D01*
G01*
G37*
%TD.AperFunction*%
%TD*%
D12*
%TO.P,U3,31*%
%TO.N,GND*%
X132300000Y-72100000D03*
%TO.P,U3,30*%
%TO.N,N/C*%
X131300000Y-72100000D03*
%TO.P,U3,29*%
X130300000Y-72100000D03*
%TO.P,U3,28*%
%TO.N,/GPS_ON*%
X129300000Y-72100000D03*
%TO.P,U3,27*%
%TO.N,GND*%
X128300000Y-72100000D03*
D13*
%TO.P,U3,26*%
%TO.N,/GPS_TXD*%
X125550000Y-71350000D03*
%TO.P,U3,25*%
%TO.N,/GPS_RXD*%
X125550000Y-70350000D03*
%TO.P,U3,24*%
%TO.N,/GPS_FENCE*%
X125550000Y-69350000D03*
%TO.P,U3,23*%
%TO.N,+BATT*%
X125550000Y-68350000D03*
%TO.P,U3,22*%
%TO.N,GND*%
X125550000Y-67350000D03*
%TO.P,U3,21*%
X125550000Y-66350000D03*
%TO.P,U3,20*%
%TO.N,N/C*%
X125550000Y-65350000D03*
%TO.P,U3,19*%
%TO.N,GND*%
X125550000Y-64350000D03*
%TO.P,U3,18*%
X125550000Y-63350000D03*
%TO.P,U3,17*%
%TO.N,Net-(U3-Pad16)*%
X125550000Y-62350000D03*
%TO.P,U3,16*%
X125550000Y-61350000D03*
%TO.P,U3,15*%
%TO.N,GND*%
X125550000Y-60350000D03*
%TO.P,U3,14*%
X125550000Y-59200000D03*
%TO.P,U3,13*%
X135050000Y-59200000D03*
%TO.P,U3,12*%
X135050000Y-60350000D03*
%TO.P,U3,11*%
X135050000Y-61350000D03*
%TO.P,U3,10*%
X135050000Y-62350000D03*
%TO.P,U3,9*%
%TO.N,+3V3*%
X135050000Y-63350000D03*
%TO.P,U3,8*%
%TO.N,+BATT*%
X135050000Y-64350000D03*
%TO.P,U3,7*%
%TO.N,N/C*%
X135050000Y-65350000D03*
%TO.P,U3,6*%
X135050000Y-66350000D03*
%TO.P,U3,5*%
%TO.N,GND*%
X135050000Y-67350000D03*
%TO.P,U3,4*%
X135050000Y-68350000D03*
%TO.P,U3,3*%
%TO.N,N/C*%
X135050000Y-69350000D03*
%TO.P,U3,2*%
%TO.N,/GPS_FIX*%
X135050000Y-70350000D03*
%TO.P,U3,1*%
%TO.N,N/C*%
X135050000Y-71350000D03*
%TD*%
%TO.P,C1,2*%
%TO.N,GND*%
%TA.AperFunction,SMDPad,CuDef*%
G36*
G01*
X137850000Y-59775000D02*
X137350000Y-59775000D01*
G75*
G02*
X137125000Y-59550000I0J225000D01*
G01*
X137125000Y-59100000D01*
G75*
G02*
X137350000Y-58875000I225000J0D01*
G01*
X137850000Y-58875000D01*
G75*
G02*
X138075000Y-59100000I0J-225000D01*
G01*
X138075000Y-59550000D01*
G75*
G02*
X137850000Y-59775000I-225000J0D01*
G01*
G37*
%TD.AperFunction*%
%TO.P,C1,1*%
%TO.N,+3V3*%
%TA.AperFunction,SMDPad,CuDef*%
G36*
G01*
X137850000Y-61325000D02*
X137350000Y-61325000D01*
G75*
G02*
X137125000Y-61100000I0J225000D01*
G01*
X137125000Y-60650000D01*
G75*
G02*
X137350000Y-60425000I225000J0D01*
G01*
X137850000Y-60425000D01*
G75*
G02*
X138075000Y-60650000I0J-225000D01*
G01*
X138075000Y-61100000D01*
G75*
G02*
X137850000Y-61325000I-225000J0D01*
G01*
G37*
%TD.AperFunction*%
%TD*%
%TO.P,C2,1*%
%TO.N,+3V3*%
%TA.AperFunction,SMDPad,CuDef*%
G36*
G01*
X137350000Y-62800000D02*
X137850000Y-62800000D01*
G75*
G02*
X138075000Y-63025000I0J-225000D01*
G01*
X138075000Y-63475000D01*
G75*
G02*
X137850000Y-63700000I-225000J0D01*
G01*
X137350000Y-63700000D01*
G75*
G02*
X137125000Y-63475000I0J225000D01*
G01*
X137125000Y-63025000D01*
G75*
G02*
X137350000Y-62800000I225000J0D01*
G01*
G37*
%TD.AperFunction*%
%TO.P,C2,2*%
%TO.N,GND*%
%TA.AperFunction,SMDPad,CuDef*%
G36*
G01*
X137350000Y-64350000D02*
X137850000Y-64350000D01*
G75*
G02*
X138075000Y-64575000I0J-225000D01*
G01*
X138075000Y-65025000D01*
G75*
G02*
X137850000Y-65250000I-225000J0D01*
G01*
X137350000Y-65250000D01*
G75*
G02*
X137125000Y-65025000I0J225000D01*
G01*
X137125000Y-64575000D01*
G75*
G02*
X137350000Y-64350000I225000J0D01*
G01*
G37*
%TD.AperFunction*%
%TD*%
%TO.P,C4,1*%
%TO.N,GND*%
%TA.AperFunction,SMDPad,CuDef*%
G36*
G01*
X135510000Y-82580000D02*
X135510000Y-82080000D01*
G75*
G02*
X135735000Y-81855000I225000J0D01*
G01*
X136185000Y-81855000D01*
G75*
G02*
X136410000Y-82080000I0J-225000D01*
G01*
X136410000Y-82580000D01*
G75*
G02*
X136185000Y-82805000I-225000J0D01*
G01*
X135735000Y-82805000D01*
G75*
G02*
X135510000Y-82580000I0J225000D01*
G01*
G37*
%TD.AperFunction*%
%TO.P,C4,2*%
%TO.N,+3V3*%
%TA.AperFunction,SMDPad,CuDef*%
G36*
G01*
X137060000Y-82580000D02*
X137060000Y-82080000D01*
G75*
G02*
X137285000Y-81855000I225000J0D01*
G01*
X137735000Y-81855000D01*
G75*
G02*
X137960000Y-82080000I0J-225000D01*
G01*
X137960000Y-82580000D01*
G75*
G02*
X137735000Y-82805000I-225000J0D01*
G01*
X137285000Y-82805000D01*
G75*
G02*
X137060000Y-82580000I0J225000D01*
G01*
G37*
%TD.AperFunction*%
%TD*%
%TO.P,C5,1*%
%TO.N,GND*%
%TA.AperFunction,SMDPad,CuDef*%
G36*
G01*
X137225000Y-68450000D02*
X136725000Y-68450000D01*
G75*
G02*
X136500000Y-68225000I0J225000D01*
G01*
X136500000Y-67775000D01*
G75*
G02*
X136725000Y-67550000I225000J0D01*
G01*
X137225000Y-67550000D01*
G75*
G02*
X137450000Y-67775000I0J-225000D01*
G01*
X137450000Y-68225000D01*
G75*
G02*
X137225000Y-68450000I-225000J0D01*
G01*
G37*
%TD.AperFunction*%
%TO.P,C5,2*%
%TO.N,+BATT*%
%TA.AperFunction,SMDPad,CuDef*%
G36*
G01*
X137225000Y-66900000D02*
X136725000Y-66900000D01*
G75*
G02*
X136500000Y-66675000I0J225000D01*
G01*
X136500000Y-66225000D01*
G75*
G02*
X136725000Y-66000000I225000J0D01*
G01*
X137225000Y-66000000D01*
G75*
G02*
X137450000Y-66225000I0J-225000D01*
G01*
X137450000Y-66675000D01*
G75*
G02*
X137225000Y-66900000I-225000J0D01*
G01*
G37*
%TD.AperFunction*%
%TD*%
%TO.P,C6,2*%
%TO.N,GND*%
%TA.AperFunction,SMDPad,CuDef*%
G36*
G01*
X121800000Y-64600000D02*
X121800000Y-65100000D01*
G75*
G02*
X121575000Y-65325000I-225000J0D01*
G01*
X121125000Y-65325000D01*
G75*
G02*
X120900000Y-65100000I0J225000D01*
G01*
X120900000Y-64600000D01*
G75*
G02*
X121125000Y-64375000I225000J0D01*
G01*
X121575000Y-64375000D01*
G75*
G02*
X121800000Y-64600000I0J-225000D01*
G01*
G37*
%TD.AperFunction*%
%TO.P,C6,1*%
%TO.N,+BATT*%
%TA.AperFunction,SMDPad,CuDef*%
G36*
G01*
X123350000Y-64600000D02*
X123350000Y-65100000D01*
G75*
G02*
X123125000Y-65325000I-225000J0D01*
G01*
X122675000Y-65325000D01*
G75*
G02*
X122450000Y-65100000I0J225000D01*
G01*
X122450000Y-64600000D01*
G75*
G02*
X122675000Y-64375000I225000J0D01*
G01*
X123125000Y-64375000D01*
G75*
G02*
X123350000Y-64600000I0J-225000D01*
G01*
G37*
%TD.AperFunction*%
%TD*%
%TO.P,C7,1*%
%TO.N,+3V3*%
%TA.AperFunction,SMDPad,CuDef*%
G36*
G01*
X121100000Y-78825000D02*
X121600000Y-78825000D01*
G75*
G02*
X121825000Y-79050000I0J-225000D01*
G01*
X121825000Y-79500000D01*
G75*
G02*
X121600000Y-79725000I-225000J0D01*
G01*
X121100000Y-79725000D01*
G75*
G02*
X120875000Y-79500000I0J225000D01*
G01*
X120875000Y-79050000D01*
G75*
G02*
X121100000Y-78825000I225000J0D01*
G01*
G37*
%TD.AperFunction*%
%TO.P,C7,2*%
%TO.N,GND*%
%TA.AperFunction,SMDPad,CuDef*%
G36*
G01*
X121100000Y-80375000D02*
X121600000Y-80375000D01*
G75*
G02*
X121825000Y-80600000I0J-225000D01*
G01*
X121825000Y-81050000D01*
G75*
G02*
X121600000Y-81275000I-225000J0D01*
G01*
X121100000Y-81275000D01*
G75*
G02*
X120875000Y-81050000I0J225000D01*
G01*
X120875000Y-80600000D01*
G75*
G02*
X121100000Y-80375000I225000J0D01*
G01*
G37*
%TD.AperFunction*%
%TD*%
%TO.P,C8,2*%
%TO.N,GND*%
%TA.AperFunction,SMDPad,CuDef*%
G36*
G01*
X122875000Y-74925000D02*
X122875000Y-74425000D01*
G75*
G02*
X123100000Y-74200000I225000J0D01*
G01*
X123550000Y-74200000D01*
G75*
G02*
X123775000Y-74425000I0J-225000D01*
G01*
X123775000Y-74925000D01*
G75*
G02*
X123550000Y-75150000I-225000J0D01*
G01*
X123100000Y-75150000D01*
G75*
G02*
X122875000Y-74925000I0J225000D01*
G01*
G37*
%TD.AperFunction*%
%TO.P,C8,1*%
%TO.N,+3V3*%
%TA.AperFunction,SMDPad,CuDef*%
G36*
G01*
X121325000Y-74925000D02*
X121325000Y-74425000D01*
G75*
G02*
X121550000Y-74200000I225000J0D01*
G01*
X122000000Y-74200000D01*
G75*
G02*
X122225000Y-74425000I0J-225000D01*
G01*
X122225000Y-74925000D01*
G75*
G02*
X122000000Y-75150000I-225000J0D01*
G01*
X121550000Y-75150000D01*
G75*
G02*
X121325000Y-74925000I0J225000D01*
G01*
G37*
%TD.AperFunction*%
%TD*%
%TO.P,C9,1*%
%TO.N,+3V3*%
%TA.AperFunction,SMDPad,CuDef*%
G36*
G01*
X121350000Y-72625000D02*
X121350000Y-72125000D01*
G75*
G02*
X121575000Y-71900000I225000J0D01*
G01*
X122025000Y-71900000D01*
G75*
G02*
X122250000Y-72125000I0J-225000D01*
G01*
X122250000Y-72625000D01*
G75*
G02*
X122025000Y-72850000I-225000J0D01*
G01*
X121575000Y-72850000D01*
G75*
G02*
X121350000Y-72625000I0J225000D01*
G01*
G37*
%TD.AperFunction*%
%TO.P,C9,2*%
%TO.N,GND*%
%TA.AperFunction,SMDPad,CuDef*%
G36*
G01*
X122900000Y-72625000D02*
X122900000Y-72125000D01*
G75*
G02*
X123125000Y-71900000I225000J0D01*
G01*
X123575000Y-71900000D01*
G75*
G02*
X123800000Y-72125000I0J-225000D01*
G01*
X123800000Y-72625000D01*
G75*
G02*
X123575000Y-72850000I-225000J0D01*
G01*
X123125000Y-72850000D01*
G75*
G02*
X122900000Y-72625000I0J225000D01*
G01*
G37*
%TD.AperFunction*%
%TD*%
%TO.P,C10,1*%
%TO.N,+3V3*%
%TA.AperFunction,SMDPad,CuDef*%
G36*
G01*
X132780000Y-82630000D02*
X132780000Y-83130000D01*
G75*
G02*
X132555000Y-83355000I-225000J0D01*
G01*
X132105000Y-83355000D01*
G75*
G02*
X131880000Y-83130000I0J225000D01*
G01*
X131880000Y-82630000D01*
G75*
G02*
X132105000Y-82405000I225000J0D01*
G01*
X132555000Y-82405000D01*
G75*
G02*
X132780000Y-82630000I0J-225000D01*
G01*
G37*
%TD.AperFunction*%
%TO.P,C10,2*%
%TO.N,GND*%
%TA.AperFunction,SMDPad,CuDef*%
G36*
G01*
X131230000Y-82630000D02*
X131230000Y-83130000D01*
G75*
G02*
X131005000Y-83355000I-225000J0D01*
G01*
X130555000Y-83355000D01*
G75*
G02*
X130330000Y-83130000I0J225000D01*
G01*
X130330000Y-82630000D01*
G75*
G02*
X130555000Y-82405000I225000J0D01*
G01*
X131005000Y-82405000D01*
G75*
G02*
X131230000Y-82630000I0J-225000D01*
G01*
G37*
%TD.AperFunction*%
%TD*%
D11*
%TO.P,J1,1*%
%TO.N,+BATT*%
X121100000Y-59950000D03*
%TD*%
%TO.P,J3,1*%
%TO.N,GND*%
X131020000Y-92860000D03*
D10*
%TO.P,J3,2*%
%TO.N,/DEBUG_RXD*%
X128480000Y-92860000D03*
%TO.P,J3,3*%
%TO.N,/DEBUG_TXD*%
X125940000Y-92860000D03*
%TD*%
D14*
%TO.P,J4,1*%
%TO.N,+3V3*%
X126490000Y-87380000D03*
%TO.P,J4,2*%
%TO.N,/SWCLK*%
X130390000Y-87380000D03*
%TO.P,J4,3*%
%TO.N,GND*%
X126490000Y-88650000D03*
%TO.P,J4,4*%
%TO.N,/SWDIO*%
X130390000Y-88650000D03*
%TO.P,J4,5*%
%TO.N,N/C*%
X126490000Y-89920000D03*
%TO.P,J4,6*%
X130390000Y-89920000D03*
%TD*%
D15*
%TO.P,L1,1*%
%TO.N,+BATT*%
X122850000Y-62650000D03*
%TO.P,L1,2*%
%TO.N,Net-(L1-Pad2)*%
X120550000Y-62650000D03*
%TD*%
%TO.P,R1,1*%
%TO.N,+3V3*%
%TA.AperFunction,SMDPad,CuDef*%
G36*
G01*
X133255000Y-74455000D02*
X133255000Y-73905000D01*
G75*
G02*
X133455000Y-73705000I200000J0D01*
G01*
X133855000Y-73705000D01*
G75*
G02*
X134055000Y-73905000I0J-200000D01*
G01*
X134055000Y-74455000D01*
G75*
G02*
X133855000Y-74655000I-200000J0D01*
G01*
X133455000Y-74655000D01*
G75*
G02*
X133255000Y-74455000I0J200000D01*
G01*
G37*
%TD.AperFunction*%
%TO.P,R1,2*%
%TO.N,/SCL*%
%TA.AperFunction,SMDPad,CuDef*%
G36*
G01*
X134905000Y-74455000D02*
X134905000Y-73905000D01*
G75*
G02*
X135105000Y-73705000I200000J0D01*
G01*
X135505000Y-73705000D01*
G75*
G02*
X135705000Y-73905000I0J-200000D01*
G01*
X135705000Y-74455000D01*
G75*
G02*
X135505000Y-74655000I-200000J0D01*
G01*
X135105000Y-74655000D01*
G75*
G02*
X134905000Y-74455000I0J200000D01*
G01*
G37*
%TD.AperFunction*%
%TD*%
%TO.P,R2,2*%
%TO.N,/SDA*%
%TA.AperFunction,SMDPad,CuDef*%
G36*
G01*
X134935000Y-75625000D02*
X134935000Y-75075000D01*
G75*
G02*
X135135000Y-74875000I200000J0D01*
G01*
X135535000Y-74875000D01*
G75*
G02*
X135735000Y-75075000I0J-200000D01*
G01*
X135735000Y-75625000D01*
G75*
G02*
X135535000Y-75825000I-200000J0D01*
G01*
X135135000Y-75825000D01*
G75*
G02*
X134935000Y-75625000I0J200000D01*
G01*
G37*
%TD.AperFunction*%
%TO.P,R2,1*%
%TO.N,+3V3*%
%TA.AperFunction,SMDPad,CuDef*%
G36*
G01*
X133285000Y-75625000D02*
X133285000Y-75075000D01*
G75*
G02*
X133485000Y-74875000I200000J0D01*
G01*
X133885000Y-74875000D01*
G75*
G02*
X134085000Y-75075000I0J-200000D01*
G01*
X134085000Y-75625000D01*
G75*
G02*
X133885000Y-75825000I-200000J0D01*
G01*
X133485000Y-75825000D01*
G75*
G02*
X133285000Y-75625000I0J200000D01*
G01*
G37*
%TD.AperFunction*%
%TD*%
%TO.P,R4,1*%
%TO.N,Net-(R4-Pad1)*%
%TA.AperFunction,SMDPad,CuDef*%
G36*
G01*
X126475000Y-72675000D02*
X126475000Y-73225000D01*
G75*
G02*
X126275000Y-73425000I-200000J0D01*
G01*
X125875000Y-73425000D01*
G75*
G02*
X125675000Y-73225000I0J200000D01*
G01*
X125675000Y-72675000D01*
G75*
G02*
X125875000Y-72475000I200000J0D01*
G01*
X126275000Y-72475000D01*
G75*
G02*
X126475000Y-72675000I0J-200000D01*
G01*
G37*
%TD.AperFunction*%
%TO.P,R4,2*%
%TO.N,GND*%
%TA.AperFunction,SMDPad,CuDef*%
G36*
G01*
X124825000Y-72675000D02*
X124825000Y-73225000D01*
G75*
G02*
X124625000Y-73425000I-200000J0D01*
G01*
X124225000Y-73425000D01*
G75*
G02*
X124025000Y-73225000I0J200000D01*
G01*
X124025000Y-72675000D01*
G75*
G02*
X124225000Y-72475000I200000J0D01*
G01*
X124625000Y-72475000D01*
G75*
G02*
X124825000Y-72675000I0J-200000D01*
G01*
G37*
%TD.AperFunction*%
%TD*%
%TO.P,R5,2*%
%TO.N,+3V3*%
%TA.AperFunction,SMDPad,CuDef*%
G36*
G01*
X121650000Y-76950000D02*
X121100000Y-76950000D01*
G75*
G02*
X120900000Y-76750000I0J200000D01*
G01*
X120900000Y-76350000D01*
G75*
G02*
X121100000Y-76150000I200000J0D01*
G01*
X121650000Y-76150000D01*
G75*
G02*
X121850000Y-76350000I0J-200000D01*
G01*
X121850000Y-76750000D01*
G75*
G02*
X121650000Y-76950000I-200000J0D01*
G01*
G37*
%TD.AperFunction*%
%TO.P,R5,1*%
%TO.N,Net-(R5-Pad1)*%
%TA.AperFunction,SMDPad,CuDef*%
G36*
G01*
X121650000Y-78600000D02*
X121100000Y-78600000D01*
G75*
G02*
X120900000Y-78400000I0J200000D01*
G01*
X120900000Y-78000000D01*
G75*
G02*
X121100000Y-77800000I200000J0D01*
G01*
X121650000Y-77800000D01*
G75*
G02*
X121850000Y-78000000I0J-200000D01*
G01*
X121850000Y-78400000D01*
G75*
G02*
X121650000Y-78600000I-200000J0D01*
G01*
G37*
%TD.AperFunction*%
%TD*%
%TO.P,R6,1*%
%TO.N,/VBATT*%
%TA.AperFunction,SMDPad,CuDef*%
G36*
G01*
X120900000Y-74850000D02*
X120350000Y-74850000D01*
G75*
G02*
X120150000Y-74650000I0J200000D01*
G01*
X120150000Y-74250000D01*
G75*
G02*
X120350000Y-74050000I200000J0D01*
G01*
X120900000Y-74050000D01*
G75*
G02*
X121100000Y-74250000I0J-200000D01*
G01*
X121100000Y-74650000D01*
G75*
G02*
X120900000Y-74850000I-200000J0D01*
G01*
G37*
%TD.AperFunction*%
%TO.P,R6,2*%
%TO.N,+BATT*%
%TA.AperFunction,SMDPad,CuDef*%
G36*
G01*
X120900000Y-73200000D02*
X120350000Y-73200000D01*
G75*
G02*
X120150000Y-73000000I0J200000D01*
G01*
X120150000Y-72600000D01*
G75*
G02*
X120350000Y-72400000I200000J0D01*
G01*
X120900000Y-72400000D01*
G75*
G02*
X121100000Y-72600000I0J-200000D01*
G01*
X121100000Y-73000000D01*
G75*
G02*
X120900000Y-73200000I-200000J0D01*
G01*
G37*
%TD.AperFunction*%
%TD*%
%TO.P,R7,1*%
%TO.N,+3V3*%
%TA.AperFunction,SMDPad,CuDef*%
G36*
G01*
X122800000Y-71675000D02*
X122250000Y-71675000D01*
G75*
G02*
X122050000Y-71475000I0J200000D01*
G01*
X122050000Y-71075000D01*
G75*
G02*
X122250000Y-70875000I200000J0D01*
G01*
X122800000Y-70875000D01*
G75*
G02*
X123000000Y-71075000I0J-200000D01*
G01*
X123000000Y-71475000D01*
G75*
G02*
X122800000Y-71675000I-200000J0D01*
G01*
G37*
%TD.AperFunction*%
%TO.P,R7,2*%
%TO.N,Net-(R7-Pad2)*%
%TA.AperFunction,SMDPad,CuDef*%
G36*
G01*
X122800000Y-70025000D02*
X122250000Y-70025000D01*
G75*
G02*
X122050000Y-69825000I0J200000D01*
G01*
X122050000Y-69425000D01*
G75*
G02*
X122250000Y-69225000I200000J0D01*
G01*
X122800000Y-69225000D01*
G75*
G02*
X123000000Y-69425000I0J-200000D01*
G01*
X123000000Y-69825000D01*
G75*
G02*
X122800000Y-70025000I-200000J0D01*
G01*
G37*
%TD.AperFunction*%
%TD*%
%TO.P,R8,2*%
%TO.N,GND*%
%TA.AperFunction,SMDPad,CuDef*%
G36*
G01*
X123475000Y-70825000D02*
X124025000Y-70825000D01*
G75*
G02*
X124225000Y-71025000I0J-200000D01*
G01*
X124225000Y-71425000D01*
G75*
G02*
X124025000Y-71625000I-200000J0D01*
G01*
X123475000Y-71625000D01*
G75*
G02*
X123275000Y-71425000I0J200000D01*
G01*
X123275000Y-71025000D01*
G75*
G02*
X123475000Y-70825000I200000J0D01*
G01*
G37*
%TD.AperFunction*%
%TO.P,R8,1*%
%TO.N,Net-(R7-Pad2)*%
%TA.AperFunction,SMDPad,CuDef*%
G36*
G01*
X123475000Y-69175000D02*
X124025000Y-69175000D01*
G75*
G02*
X124225000Y-69375000I0J-200000D01*
G01*
X124225000Y-69775000D01*
G75*
G02*
X124025000Y-69975000I-200000J0D01*
G01*
X123475000Y-69975000D01*
G75*
G02*
X123275000Y-69775000I0J200000D01*
G01*
X123275000Y-69375000D01*
G75*
G02*
X123475000Y-69175000I200000J0D01*
G01*
G37*
%TD.AperFunction*%
%TD*%
D16*
%TO.P,U1,5*%
%TO.N,GND*%
X135330000Y-77130000D03*
%TO.P,U1,6*%
%TO.N,N/C*%
X135330000Y-78380000D03*
%TO.P,U1,7*%
%TO.N,/SDA*%
X135330000Y-79630000D03*
%TO.P,U1,8*%
%TO.N,/SCL*%
X135330000Y-80880000D03*
%TO.P,U1,3*%
%TO.N,GND*%
X137480000Y-78380000D03*
%TO.P,U1,2*%
%TO.N,+3V3*%
X137480000Y-79630000D03*
%TO.P,U1,1*%
X137480000Y-80880000D03*
%TO.P,U1,4*%
%TO.N,GND*%
X137480000Y-77130000D03*
%TD*%
%TO.P,U5,1*%
%TO.N,Net-(L1-Pad2)*%
%TA.AperFunction,SMDPad,CuDef*%
G36*
G01*
X119937500Y-66450000D02*
X119937500Y-66150000D01*
G75*
G02*
X120087500Y-66000000I150000J0D01*
G01*
X121112500Y-66000000D01*
G75*
G02*
X121262500Y-66150000I0J-150000D01*
G01*
X121262500Y-66450000D01*
G75*
G02*
X121112500Y-66600000I-150000J0D01*
G01*
X120087500Y-66600000D01*
G75*
G02*
X119937500Y-66450000I0J150000D01*
G01*
G37*
%TD.AperFunction*%
%TO.P,U5,2*%
%TO.N,GND*%
%TA.AperFunction,SMDPad,CuDef*%
G36*
G01*
X119937500Y-67400000D02*
X119937500Y-67100000D01*
G75*
G02*
X120087500Y-66950000I150000J0D01*
G01*
X121112500Y-66950000D01*
G75*
G02*
X121262500Y-67100000I0J-150000D01*
G01*
X121262500Y-67400000D01*
G75*
G02*
X121112500Y-67550000I-150000J0D01*
G01*
X120087500Y-67550000D01*
G75*
G02*
X119937500Y-67400000I0J150000D01*
G01*
G37*
%TD.AperFunction*%
%TO.P,U5,3*%
%TO.N,Net-(JP1-Pad1)*%
%TA.AperFunction,SMDPad,CuDef*%
G36*
G01*
X119937500Y-68350000D02*
X119937500Y-68050000D01*
G75*
G02*
X120087500Y-67900000I150000J0D01*
G01*
X121112500Y-67900000D01*
G75*
G02*
X121262500Y-68050000I0J-150000D01*
G01*
X121262500Y-68350000D01*
G75*
G02*
X121112500Y-68500000I-150000J0D01*
G01*
X120087500Y-68500000D01*
G75*
G02*
X119937500Y-68350000I0J150000D01*
G01*
G37*
%TD.AperFunction*%
%TO.P,U5,4*%
%TO.N,Net-(R7-Pad2)*%
%TA.AperFunction,SMDPad,CuDef*%
G36*
G01*
X122212500Y-68350000D02*
X122212500Y-68050000D01*
G75*
G02*
X122362500Y-67900000I150000J0D01*
G01*
X123387500Y-67900000D01*
G75*
G02*
X123537500Y-68050000I0J-150000D01*
G01*
X123537500Y-68350000D01*
G75*
G02*
X123387500Y-68500000I-150000J0D01*
G01*
X122362500Y-68500000D01*
G75*
G02*
X122212500Y-68350000I0J150000D01*
G01*
G37*
%TD.AperFunction*%
%TO.P,U5,5*%
%TO.N,+3V3*%
%TA.AperFunction,SMDPad,CuDef*%
G36*
G01*
X122212500Y-67400000D02*
X122212500Y-67100000D01*
G75*
G02*
X122362500Y-66950000I150000J0D01*
G01*
X123387500Y-66950000D01*
G75*
G02*
X123537500Y-67100000I0J-150000D01*
G01*
X123537500Y-67400000D01*
G75*
G02*
X123387500Y-67550000I-150000J0D01*
G01*
X122362500Y-67550000D01*
G75*
G02*
X122212500Y-67400000I0J150000D01*
G01*
G37*
%TD.AperFunction*%
%TO.P,U5,6*%
%TO.N,+BATT*%
%TA.AperFunction,SMDPad,CuDef*%
G36*
G01*
X122212500Y-66450000D02*
X122212500Y-66150000D01*
G75*
G02*
X122362500Y-66000000I150000J0D01*
G01*
X123387500Y-66000000D01*
G75*
G02*
X123537500Y-66150000I0J-150000D01*
G01*
X123537500Y-66450000D01*
G75*
G02*
X123387500Y-66600000I-150000J0D01*
G01*
X122362500Y-66600000D01*
G75*
G02*
X122212500Y-66450000I0J150000D01*
G01*
G37*
%TD.AperFunction*%
%TD*%
D17*
%TO.N,GND*%
X127860934Y-65859112D03*
X136600000Y-62350000D03*
X133250000Y-67675000D03*
X121650002Y-62050000D03*
X123475000Y-60375000D03*
X125120010Y-72375000D03*
X136490000Y-81570000D03*
X128570000Y-69810000D03*
X130510000Y-82290000D03*
%TO.N,+3V3*%
X127801255Y-79436193D03*
X132593790Y-75213534D03*
X131380000Y-66690000D03*
%TO.N,+BATT*%
X122850000Y-62650000D03*
X121774976Y-73570000D03*
%TO.N,/SCL*%
X126820000Y-76520000D03*
X130939990Y-74266923D03*
%TO.N,/SDA*%
X125750000Y-75900000D03*
X133250002Y-71280000D03*
%TO.N,/GPS_FIX*%
X130053017Y-73775012D03*
X130970022Y-69587367D03*
%TO.N,/GPS_RXD*%
X126625000Y-70325000D03*
X128595993Y-76924642D03*
%TO.N,/GPS_TXD*%
X126575000Y-71375000D03*
X127699636Y-76002759D03*
%TO.N,/RFM_RESET*%
X129650000Y-76979990D03*
%TO.N,/RFM_CS*%
X129399647Y-75986024D03*
%TO.N,/SCK*%
X125050021Y-77450010D03*
%TO.N,/MISO*%
X125900031Y-79143288D03*
%TO.N,/MOSI*%
X125929491Y-78069775D03*
%TO.N,/RFM_IO0*%
X124875000Y-81550000D03*
%TO.N,/RFM_IO1*%
X123799998Y-80600000D03*
%TO.N,Net-(JP1-Pad1)*%
X120831551Y-68792412D03*
%TD*%
D18*
%TO.N,GND*%
X121712510Y-65212510D02*
X121350000Y-64850000D01*
X121262500Y-67250000D02*
X121712510Y-66799990D01*
X120600000Y-67250000D02*
X121262500Y-67250000D01*
X125550000Y-59200000D02*
X124050000Y-59200000D01*
X124050000Y-59200000D02*
X123900000Y-59350000D01*
X124050000Y-64350000D02*
X125550000Y-64350000D01*
X123900000Y-64200000D02*
X124050000Y-64350000D01*
X123900000Y-63050000D02*
X123900000Y-64200000D01*
X125550000Y-60350000D02*
X124000000Y-60350000D01*
X124000000Y-60350000D02*
X123900000Y-60450000D01*
X123900000Y-60450000D02*
X123900000Y-63050000D01*
X123900000Y-59350000D02*
X123900000Y-60450000D01*
X125550000Y-66350000D02*
X127125000Y-66350000D01*
X127125000Y-66350000D02*
X127250000Y-66475000D01*
X127250000Y-66475000D02*
X127250000Y-66895038D01*
X127250000Y-66895038D02*
X126795038Y-67350000D01*
X126795038Y-67350000D02*
X125550000Y-67350000D01*
X121350000Y-64850000D02*
X121650000Y-64550000D01*
X121712510Y-64312510D02*
X121650000Y-64250000D01*
X121712510Y-65887490D02*
X121712510Y-64312510D01*
X121650000Y-64550000D02*
X121650000Y-64250000D01*
X121712510Y-66799990D02*
X121712510Y-65887490D01*
X121712510Y-65887490D02*
X121712510Y-65212510D01*
X127250000Y-66475000D02*
X127250000Y-64550000D01*
X127050000Y-64350000D02*
X125550000Y-64350000D01*
X127250000Y-64550000D02*
X127050000Y-64350000D01*
X135050000Y-59200000D02*
X136275000Y-59200000D01*
X136275000Y-59200000D02*
X136650000Y-59575000D01*
X136600000Y-62350000D02*
X135050000Y-62350000D01*
X136625000Y-61350000D02*
X136650000Y-61375000D01*
X135050000Y-61350000D02*
X136625000Y-61350000D01*
X136650000Y-61375000D02*
X136650000Y-62300000D01*
X136550000Y-60350000D02*
X136650000Y-60250000D01*
X135050000Y-60350000D02*
X136550000Y-60350000D01*
X136650000Y-60250000D02*
X136650000Y-61375000D01*
X136650000Y-59575000D02*
X136650000Y-60250000D01*
X136400000Y-59325000D02*
X136275000Y-59200000D01*
X137600000Y-59325000D02*
X136400000Y-59325000D01*
X137600000Y-64800000D02*
X137600000Y-64950000D01*
X136625000Y-68350000D02*
X136975000Y-68000000D01*
X135050000Y-68350000D02*
X136625000Y-68350000D01*
X136325000Y-67350000D02*
X136975000Y-68000000D01*
X135050000Y-67350000D02*
X136325000Y-67350000D01*
X136975000Y-68000000D02*
X137275000Y-68000000D01*
X137275000Y-68000000D02*
X137900000Y-67375000D01*
X137900000Y-65100000D02*
X137600000Y-64800000D01*
X137900000Y-67375000D02*
X137900000Y-65100000D01*
X137250000Y-68975000D02*
X136625000Y-68350000D01*
X137250000Y-69950000D02*
X137250000Y-68975000D01*
X128300000Y-72100000D02*
X128300000Y-70725000D01*
X124250000Y-73550000D02*
X123500000Y-73550000D01*
X124250000Y-73550000D02*
X124250000Y-74425000D01*
X123350000Y-73400000D02*
X123350000Y-72375000D01*
X123500000Y-73550000D02*
X123350000Y-73400000D01*
X123550000Y-72175000D02*
X123350000Y-72375000D01*
X123550000Y-71225000D02*
X123550000Y-72175000D01*
X121350000Y-82350000D02*
X121100000Y-82600000D01*
X121350000Y-80825000D02*
X121350000Y-82350000D01*
X123325000Y-73425000D02*
X123350000Y-73400000D01*
X123325000Y-74450000D02*
X123325000Y-73425000D01*
X127250000Y-66470046D02*
X127250000Y-66475000D01*
X127860934Y-65859112D02*
X127250000Y-66470046D01*
X136650000Y-62300000D02*
X136600000Y-62350000D01*
X133575000Y-67350000D02*
X133250000Y-67675000D01*
X135050000Y-67350000D02*
X133575000Y-67350000D01*
X133925000Y-68350000D02*
X133250000Y-67675000D01*
X135050000Y-68350000D02*
X133925000Y-68350000D01*
X125550000Y-63350000D02*
X124200000Y-63350000D01*
X124200000Y-63350000D02*
X123900000Y-63050000D01*
X121650002Y-64249998D02*
X121650000Y-64250000D01*
X121650002Y-62050000D02*
X121650002Y-64249998D01*
X123550000Y-60450000D02*
X123900000Y-60450000D01*
X123475000Y-60375000D02*
X123550000Y-60450000D01*
X129955000Y-82880000D02*
X129850000Y-82775000D01*
X130780000Y-82880000D02*
X129955000Y-82880000D01*
X132005014Y-70570011D02*
X132300000Y-70864998D01*
X128300000Y-70725000D02*
X128454989Y-70570011D01*
X132300000Y-70864998D02*
X132300000Y-72100000D01*
X124250000Y-73550000D02*
X124250000Y-73245010D01*
X124250000Y-73245010D02*
X125120010Y-72375000D01*
D19*
X137480000Y-78380000D02*
X137830000Y-78380000D01*
X137830000Y-78380000D02*
X137980000Y-78230000D01*
X137980000Y-75620000D02*
X137380000Y-75020000D01*
X137940000Y-77130000D02*
X137980000Y-77090000D01*
X137480000Y-77130000D02*
X137940000Y-77130000D01*
X137980000Y-78230000D02*
X137980000Y-77090000D01*
X137980000Y-76240000D02*
X137980000Y-75620000D01*
X137980000Y-77090000D02*
X137980000Y-76240000D01*
X135330000Y-77130000D02*
X135330000Y-76690000D01*
X135780000Y-76240000D02*
X137980000Y-76240000D01*
X135330000Y-76690000D02*
X135780000Y-76240000D01*
X135960000Y-82100000D02*
X136490000Y-81570000D01*
X135960000Y-82330000D02*
X135960000Y-82100000D01*
D18*
X131559989Y-70570011D02*
X132005014Y-70570011D01*
X128454989Y-70570011D02*
X131559989Y-70570011D01*
X128300000Y-70725000D02*
X128300000Y-70080000D01*
X128300000Y-70080000D02*
X128570000Y-69810000D01*
X130025000Y-82775000D02*
X130510000Y-82290000D01*
X129850000Y-82775000D02*
X130025000Y-82775000D01*
D20*
X121100000Y-82600000D02*
X122690000Y-82600000D01*
X123149979Y-83059979D02*
X123149979Y-85739979D01*
X122690000Y-82600000D02*
X123149979Y-83059979D01*
X123149990Y-85739990D02*
X123149979Y-85739979D01*
X123149990Y-85739990D02*
X123149990Y-92909990D01*
X129819999Y-94060001D02*
X131020000Y-92860000D01*
X124300001Y-94060001D02*
X129819999Y-94060001D01*
X123149990Y-92909990D02*
X124300001Y-94060001D01*
X126490000Y-88650000D02*
X127890000Y-88650000D01*
X128040001Y-88800001D02*
X128040001Y-90560001D01*
X127890000Y-88650000D02*
X128040001Y-88800001D01*
X128040001Y-90560001D02*
X128960000Y-91480000D01*
X129640000Y-91480000D02*
X131020000Y-92860000D01*
X128960000Y-91480000D02*
X129640000Y-91480000D01*
D18*
%TO.N,+3V3*%
X137500000Y-63350000D02*
X137600000Y-63250000D01*
X135050000Y-63350000D02*
X137500000Y-63350000D01*
X137600000Y-63150000D02*
X137725000Y-63025000D01*
X137600000Y-63250000D02*
X137600000Y-63150000D01*
X122175000Y-75800000D02*
X122875000Y-75800000D01*
X121775000Y-75400000D02*
X122175000Y-75800000D01*
X121775000Y-75750000D02*
X121775000Y-75400000D01*
X121375000Y-76150000D02*
X121775000Y-75750000D01*
X121375000Y-76550000D02*
X121375000Y-76150000D01*
X121825000Y-79275000D02*
X121350000Y-79275000D01*
X122100000Y-79000000D02*
X121825000Y-79275000D01*
X122875000Y-79000000D02*
X122100000Y-79000000D01*
X137600000Y-60875000D02*
X137600000Y-63250000D01*
X121800000Y-72375000D02*
X121800000Y-72425000D01*
X121775000Y-75400000D02*
X121775000Y-74675000D01*
X121600000Y-72175000D02*
X121800000Y-72375000D01*
X121600000Y-71275000D02*
X121600000Y-72175000D01*
X122525000Y-71275000D02*
X121600000Y-71275000D01*
D19*
X123625000Y-79000000D02*
X124025000Y-78600000D01*
X122875000Y-79000000D02*
X123625000Y-79000000D01*
X123625000Y-75800000D02*
X122875000Y-75800000D01*
X124025000Y-76200000D02*
X123625000Y-75800000D01*
D18*
X131225000Y-81400000D02*
X130461812Y-81400000D01*
D19*
X124025000Y-78600000D02*
X124025000Y-76700000D01*
X124025000Y-76400000D02*
X124025000Y-76200000D01*
X124025000Y-76700000D02*
X124025000Y-76400000D01*
D18*
X132330000Y-82880000D02*
X132330000Y-82700000D01*
X131225000Y-81595000D02*
X131225000Y-81400000D01*
X132330000Y-82700000D02*
X131225000Y-81595000D01*
X122624990Y-73943014D02*
X121893004Y-74675000D01*
X121800000Y-72375000D02*
X122624990Y-73199990D01*
X122624990Y-73199990D02*
X122624990Y-73943014D01*
X121893004Y-74675000D02*
X121775000Y-74675000D01*
X128098354Y-79139094D02*
X128200906Y-79139094D01*
X127801255Y-79436193D02*
X128098354Y-79139094D01*
X128200906Y-79139094D02*
X126159334Y-77097522D01*
X130461812Y-81400000D02*
X128200906Y-79139094D01*
D19*
X132593790Y-75213534D02*
X132593790Y-75563790D01*
X133379999Y-76555405D02*
X133379999Y-81089999D01*
X132593790Y-75213534D02*
X132593790Y-75769195D01*
X132593790Y-75769195D02*
X133379999Y-76555405D01*
X137480000Y-79630000D02*
X137910000Y-79630000D01*
X137910000Y-79630000D02*
X138040000Y-79760000D01*
X138040000Y-81800000D02*
X137510000Y-82330000D01*
X137820000Y-80880000D02*
X138040000Y-81100000D01*
X137480000Y-80880000D02*
X137820000Y-80880000D01*
X138040000Y-81100000D02*
X138040000Y-81800000D01*
X138040000Y-79760000D02*
X138040000Y-81100000D01*
X137510000Y-82330000D02*
X137510000Y-82640000D01*
X133379999Y-81108899D02*
X133379999Y-81089999D01*
X135476110Y-83205010D02*
X133379999Y-81108899D01*
X136944990Y-83205010D02*
X135476110Y-83205010D01*
X137510000Y-82640000D02*
X136944990Y-83205010D01*
D18*
X132790256Y-75410000D02*
X132593790Y-75213534D01*
D19*
X133627324Y-74180000D02*
X132593790Y-75213534D01*
X133655000Y-74180000D02*
X133627324Y-74180000D01*
X132730256Y-75350000D02*
X132593790Y-75213534D01*
X133685000Y-75350000D02*
X132730256Y-75350000D01*
D18*
X135050000Y-63350000D02*
X133610000Y-63350000D01*
X133610000Y-63350000D02*
X132500000Y-64460000D01*
X132500000Y-64460000D02*
X132500000Y-65570000D01*
X132500000Y-65570000D02*
X131380000Y-66690000D01*
D19*
X125424022Y-76650009D02*
X124275009Y-76650009D01*
X124275009Y-76650009D02*
X124025000Y-76400000D01*
X125871535Y-77097522D02*
X125424022Y-76650009D01*
X126159334Y-77097522D02*
X125871535Y-77097522D01*
D18*
X122875000Y-67250000D02*
X122300000Y-67250000D01*
X121750000Y-67800000D02*
X121750000Y-69005746D01*
X122300000Y-67250000D02*
X121750000Y-67800000D01*
X121750000Y-69005746D02*
X121600000Y-69155746D01*
X121600000Y-69155746D02*
X121600000Y-71275000D01*
D19*
X132060000Y-86560000D02*
X128660000Y-86560000D01*
X132570000Y-86050000D02*
X132060000Y-86560000D01*
X127840000Y-87380000D02*
X126490000Y-87380000D01*
X132570000Y-83280000D02*
X132570000Y-86050000D01*
X128660000Y-86560000D02*
X127840000Y-87380000D01*
X132330000Y-83040000D02*
X132570000Y-83280000D01*
X132330000Y-82880000D02*
X132330000Y-83040000D01*
D18*
%TO.N,+BATT*%
X124200000Y-68350000D02*
X124024999Y-68174999D01*
X125500000Y-68350000D02*
X124200000Y-68350000D01*
X123750000Y-66300000D02*
X124024999Y-66025001D01*
X122875000Y-66300000D02*
X123750000Y-66300000D01*
X124024999Y-68174999D02*
X124024999Y-66025001D01*
X122900000Y-64850000D02*
X124024999Y-65974999D01*
X124024999Y-65974999D02*
X124024999Y-66025001D01*
X122900000Y-62700000D02*
X122850000Y-62650000D01*
X122900000Y-64850000D02*
X122900000Y-62700000D01*
X122850000Y-62650000D02*
X122850000Y-61000000D01*
X121800000Y-59950000D02*
X121100000Y-59950000D01*
X122850000Y-61000000D02*
X121800000Y-59950000D01*
X135050000Y-64350000D02*
X136325000Y-64350000D01*
X136325000Y-64350000D02*
X136625000Y-64650000D01*
X136625000Y-66100000D02*
X136975000Y-66450000D01*
X136625000Y-64650000D02*
X136625000Y-66100000D01*
X120625000Y-71325000D02*
X120650000Y-71300000D01*
X120625000Y-72800000D02*
X120625000Y-71325000D01*
D19*
X120625000Y-72800000D02*
X120625000Y-72955000D01*
X121240000Y-73570000D02*
X121774976Y-73570000D01*
X120625000Y-72955000D02*
X121240000Y-73570000D01*
D18*
X125550000Y-68350000D02*
X131180000Y-68350000D01*
X131180000Y-68350000D02*
X133410000Y-66120000D01*
X133410000Y-66120000D02*
X133410000Y-64800000D01*
X133860000Y-64350000D02*
X135050000Y-64350000D01*
X133410000Y-64800000D02*
X133860000Y-64350000D01*
D20*
%TO.N,/DEBUG_RXD*%
X126350000Y-90730000D02*
X128480000Y-92860000D01*
X125099998Y-90730000D02*
X126350000Y-90730000D01*
X124250000Y-89880002D02*
X125099998Y-90730000D01*
X124250000Y-82775000D02*
X124250000Y-89880002D01*
%TO.N,/DEBUG_TXD*%
X122875000Y-81865000D02*
X122875000Y-81400000D01*
X123650000Y-82640000D02*
X122875000Y-81865000D01*
X123650000Y-90570000D02*
X123650000Y-82640000D01*
X125940000Y-92860000D02*
X123650000Y-90570000D01*
%TO.N,/SWCLK*%
X131846765Y-75800000D02*
X132829989Y-76783226D01*
X133630021Y-82184709D02*
X133630021Y-82240021D01*
X131225000Y-75800000D02*
X131846765Y-75800000D01*
X132829989Y-76783226D02*
X132829989Y-81384677D01*
X132829989Y-81384677D02*
X133630021Y-82184709D01*
X133630021Y-82184709D02*
X133630021Y-89549979D01*
X133630021Y-89549979D02*
X132210000Y-90970000D01*
X132210000Y-90970000D02*
X129310000Y-90970000D01*
X129310000Y-90970000D02*
X128690010Y-90350010D01*
X128690010Y-90350010D02*
X128690010Y-87579990D01*
X128690010Y-87579990D02*
X128890000Y-87380000D01*
X128890000Y-87380000D02*
X130390000Y-87380000D01*
%TO.N,/SWDIO*%
X133130000Y-87770000D02*
X132250000Y-88650000D01*
X132329978Y-81591788D02*
X133130000Y-82391810D01*
X133130000Y-82391810D02*
X133130000Y-87770000D01*
X132329978Y-76990336D02*
X132329978Y-81591788D01*
X132250000Y-88650000D02*
X130390000Y-88650000D01*
X131939644Y-76600000D02*
X132329978Y-76990336D01*
X131225000Y-76600000D02*
X131939644Y-76600000D01*
D18*
%TO.N,Net-(L1-Pad2)*%
X120300000Y-62900000D02*
X120550000Y-62650000D01*
X120300000Y-66000000D02*
X120300000Y-62900000D01*
X120600000Y-66300000D02*
X120300000Y-66000000D01*
D19*
%TO.N,/SCL*%
X126650000Y-76350000D02*
X126820000Y-76520000D01*
X126650000Y-74425000D02*
X126650000Y-76350000D01*
D20*
X133930009Y-80570009D02*
X133930009Y-76347823D01*
X134240000Y-80880000D02*
X133930009Y-80570009D01*
X135330000Y-80880000D02*
X134240000Y-80880000D01*
X133940009Y-76347823D02*
X134480000Y-75807832D01*
X133930009Y-76347823D02*
X133940009Y-76347823D01*
X134480000Y-75807832D02*
X134480000Y-74650000D01*
X134950000Y-74180000D02*
X135305000Y-74180000D01*
X134480000Y-74650000D02*
X134950000Y-74180000D01*
D19*
X134375000Y-73250000D02*
X133261456Y-73250000D01*
X133261456Y-73250000D02*
X132244533Y-74266923D01*
X132244533Y-74266923D02*
X130939990Y-74266923D01*
D20*
X134480000Y-73355000D02*
X134375000Y-73250000D01*
X134480000Y-74650000D02*
X134480000Y-73355000D01*
D19*
%TO.N,/SDA*%
X125850000Y-75800000D02*
X125750000Y-75900000D01*
X125850000Y-74425000D02*
X125850000Y-75800000D01*
D20*
X135330000Y-79630000D02*
X134455000Y-78755000D01*
X134455000Y-78755000D02*
X134455000Y-76695000D01*
X135265000Y-75885000D02*
X135265000Y-75410000D01*
X135460000Y-75670000D02*
X135460000Y-75640000D01*
X134455000Y-76695000D02*
X135265000Y-75885000D01*
D19*
X135820000Y-75350000D02*
X135335000Y-75350000D01*
X136105010Y-75064990D02*
X135820000Y-75350000D01*
X136105010Y-73305010D02*
X136105010Y-75064990D01*
X135440000Y-72640000D02*
X136105010Y-73305010D01*
X133850000Y-72640000D02*
X135440000Y-72640000D01*
X133250002Y-72040002D02*
X133850000Y-72640000D01*
X133250002Y-71280000D02*
X133250002Y-72040002D01*
%TO.N,Net-(R4-Pad1)*%
X125748544Y-72950000D02*
X126075000Y-72950000D01*
X125050000Y-73648544D02*
X125748544Y-72950000D01*
X125050000Y-74425000D02*
X125050000Y-73648544D01*
D18*
%TO.N,/VBATT*%
X120625000Y-74450000D02*
X120449990Y-74625010D01*
X120424990Y-74650010D02*
X120424990Y-79924990D01*
X120449990Y-74625010D02*
X120424990Y-74650010D01*
D20*
X122875000Y-79800000D02*
X122150000Y-79800000D01*
D21*
X122150000Y-79800000D02*
X121900000Y-80050000D01*
X120550000Y-80050000D02*
X120424990Y-79924990D01*
X121900000Y-80050000D02*
X120550000Y-80050000D01*
D18*
%TO.N,Net-(R7-Pad2)*%
X122325000Y-69575000D02*
X122300000Y-69600000D01*
X122875000Y-69375000D02*
X122675000Y-69575000D01*
X122875000Y-68200000D02*
X122875000Y-69375000D01*
X122675000Y-69575000D02*
X122325000Y-69575000D01*
X123550000Y-69575000D02*
X122675000Y-69575000D01*
%TO.N,/GPS_FIX*%
X130053017Y-74221983D02*
X130053017Y-73775012D01*
X129850000Y-74425000D02*
X130053017Y-74221983D01*
X132235001Y-69110001D02*
X131447388Y-69110001D01*
X133475000Y-70350000D02*
X132235001Y-69110001D01*
X135050000Y-70350000D02*
X133475000Y-70350000D01*
X131447388Y-69110001D02*
X130970022Y-69587367D01*
%TO.N,Net-(U3-Pad16)*%
X125550000Y-61350000D02*
X125550000Y-62350000D01*
%TO.N,/GPS_FENCE*%
X125550000Y-69350000D02*
X126975000Y-69350000D01*
X126975000Y-69350000D02*
X127475000Y-69850000D01*
X127475000Y-74400000D02*
X127450000Y-74425000D01*
X127475000Y-69850000D02*
X127475000Y-74400000D01*
%TO.N,/GPS_RXD*%
X125575000Y-70325000D02*
X125550000Y-70350000D01*
X126625000Y-70325000D02*
X125575000Y-70325000D01*
X128595635Y-76925000D02*
X128595993Y-76924642D01*
X128400000Y-76925000D02*
X128595635Y-76925000D01*
X131225000Y-79000000D02*
X130271847Y-79000000D01*
X130271847Y-79000000D02*
X128700022Y-77428175D01*
X128700022Y-77428175D02*
X128700022Y-77028671D01*
X128700022Y-77028671D02*
X128595993Y-76924642D01*
%TO.N,/GPS_TXD*%
X126550000Y-71350000D02*
X126575000Y-71375000D01*
X125550000Y-71350000D02*
X126550000Y-71350000D01*
X130044254Y-79800000D02*
X127699636Y-77455382D01*
X131225000Y-79800000D02*
X130044254Y-79800000D01*
X127699636Y-77455382D02*
X127699636Y-76002759D01*
%TO.N,/GPS_ON*%
X129300000Y-73271038D02*
X129300000Y-72100000D01*
X129050000Y-74425000D02*
X129050000Y-73521038D01*
X129050000Y-73521038D02*
X129300000Y-73271038D01*
%TO.N,/RFM_RESET*%
X129650000Y-77388188D02*
X129650000Y-76979990D01*
X131225000Y-78200000D02*
X130461812Y-78200000D01*
X130461812Y-78200000D02*
X129650000Y-77388188D01*
%TO.N,/RFM_CS*%
X128917105Y-75986024D02*
X129399647Y-75986024D01*
X128250000Y-75318919D02*
X128917105Y-75986024D01*
X128250000Y-74425000D02*
X128250000Y-75318919D01*
%TO.N,/SCK*%
X125050021Y-80200021D02*
X125050021Y-77450010D01*
X125850000Y-81000000D02*
X125050021Y-80200021D01*
X125850000Y-82775000D02*
X125850000Y-81000000D01*
%TO.N,/MISO*%
X125900031Y-79929995D02*
X125900031Y-79143288D01*
X126650000Y-80679964D02*
X125900031Y-79929995D01*
X126650000Y-82775000D02*
X126650000Y-80679964D01*
%TO.N,/MOSI*%
X126141623Y-78069775D02*
X125929491Y-78069775D01*
X127450000Y-82775000D02*
X127450000Y-80490000D01*
X127450000Y-80490000D02*
X126760000Y-79800000D01*
X126760000Y-78745326D02*
X126307996Y-78293322D01*
X126153038Y-78293322D02*
X125929491Y-78069775D01*
X126307996Y-78293322D02*
X126153038Y-78293322D01*
X126760000Y-79800000D02*
X126760000Y-78745326D01*
%TO.N,/RFM_IO0*%
X125050000Y-81725000D02*
X124875000Y-81550000D01*
X125050000Y-82775000D02*
X125050000Y-81725000D01*
%TO.N,/RFM_IO1*%
X123850000Y-80600000D02*
X123900000Y-80650000D01*
X122875000Y-80600000D02*
X123850000Y-80600000D01*
%TO.N,Net-(JP1-Pad1)*%
X120650000Y-68900000D02*
X120600000Y-68850000D01*
X120650000Y-69650000D02*
X120650000Y-68900000D01*
X120600000Y-68200000D02*
X120600000Y-68850000D01*
D19*
X120650000Y-68973963D02*
X120831551Y-68792412D01*
X120650000Y-69650000D02*
X120650000Y-68973963D01*
D18*
%TO.N,Net-(R5-Pad1)*%
X122875000Y-78200000D02*
X121375000Y-78200000D01*
%TD*%
M02*
