%TF.GenerationSoftware,KiCad,Pcbnew,5.1.9*%
%TF.CreationDate,2021-03-27T13:30:24+01:00*%
%TF.ProjectId,picoballoon,7069636f-6261-46c6-9c6f-6f6e2e6b6963,0.1*%
%TF.SameCoordinates,Original*%
%TF.FileFunction,Paste,Bot*%
%TF.FilePolarity,Positive*%
%FSLAX46Y46*%
G04 Gerber Fmt 4.6, Leading zero omitted, Abs format (unit mm)*
G04 Created by KiCad (PCBNEW 5.1.9) date 2021-03-27 13:30:24*
%MOMM*%
%LPD*%
G01*
G04 APERTURE LIST*
%ADD10R,1.000000X2.000000*%
G04 APERTURE END LIST*
%TO.C,C11*%
G36*
G01*
X128030000Y-82570000D02*
X128030000Y-82070000D01*
G75*
G02*
X128255000Y-81845000I225000J0D01*
G01*
X128705000Y-81845000D01*
G75*
G02*
X128930000Y-82070000I0J-225000D01*
G01*
X128930000Y-82570000D01*
G75*
G02*
X128705000Y-82795000I-225000J0D01*
G01*
X128255000Y-82795000D01*
G75*
G02*
X128030000Y-82570000I0J225000D01*
G01*
G37*
G36*
G01*
X129580000Y-82570000D02*
X129580000Y-82070000D01*
G75*
G02*
X129805000Y-81845000I225000J0D01*
G01*
X130255000Y-81845000D01*
G75*
G02*
X130480000Y-82070000I0J-225000D01*
G01*
X130480000Y-82570000D01*
G75*
G02*
X130255000Y-82795000I-225000J0D01*
G01*
X129805000Y-82795000D01*
G75*
G02*
X129580000Y-82570000I0J225000D01*
G01*
G37*
%TD*%
%TO.C,C12*%
G36*
G01*
X126205000Y-82060000D02*
X126205000Y-82560000D01*
G75*
G02*
X125980000Y-82785000I-225000J0D01*
G01*
X125530000Y-82785000D01*
G75*
G02*
X125305000Y-82560000I0J225000D01*
G01*
X125305000Y-82060000D01*
G75*
G02*
X125530000Y-81835000I225000J0D01*
G01*
X125980000Y-81835000D01*
G75*
G02*
X126205000Y-82060000I0J-225000D01*
G01*
G37*
G36*
G01*
X127755000Y-82060000D02*
X127755000Y-82560000D01*
G75*
G02*
X127530000Y-82785000I-225000J0D01*
G01*
X127080000Y-82785000D01*
G75*
G02*
X126855000Y-82560000I0J225000D01*
G01*
X126855000Y-82060000D01*
G75*
G02*
X127080000Y-81835000I225000J0D01*
G01*
X127530000Y-81835000D01*
G75*
G02*
X127755000Y-82060000I0J-225000D01*
G01*
G37*
%TD*%
%TO.C,R9*%
G36*
G01*
X134060000Y-82015000D02*
X134060000Y-82565000D01*
G75*
G02*
X133860000Y-82765000I-200000J0D01*
G01*
X133460000Y-82765000D01*
G75*
G02*
X133260000Y-82565000I0J200000D01*
G01*
X133260000Y-82015000D01*
G75*
G02*
X133460000Y-81815000I200000J0D01*
G01*
X133860000Y-81815000D01*
G75*
G02*
X134060000Y-82015000I0J-200000D01*
G01*
G37*
G36*
G01*
X135710000Y-82015000D02*
X135710000Y-82565000D01*
G75*
G02*
X135510000Y-82765000I-200000J0D01*
G01*
X135110000Y-82765000D01*
G75*
G02*
X134910000Y-82565000I0J200000D01*
G01*
X134910000Y-82015000D01*
G75*
G02*
X135110000Y-81815000I200000J0D01*
G01*
X135510000Y-81815000D01*
G75*
G02*
X135710000Y-82015000I0J-200000D01*
G01*
G37*
%TD*%
D10*
%TO.C,U6*%
X120900000Y-80475000D03*
X122900000Y-80475000D03*
X124900000Y-80475000D03*
X126900000Y-80475000D03*
X128900000Y-80475000D03*
X130900000Y-80475000D03*
X132900000Y-80475000D03*
X134900000Y-80475000D03*
X134900000Y-64475000D03*
X132900000Y-64475000D03*
X130900000Y-64475000D03*
X128900000Y-64475000D03*
X126900000Y-64475000D03*
X124900000Y-64475000D03*
X122900000Y-64475000D03*
X120900000Y-64475000D03*
%TD*%
M02*
