%TF.GenerationSoftware,KiCad,Pcbnew,5.1.9*%
%TF.CreationDate,2021-03-27T13:30:24+01:00*%
%TF.ProjectId,picoballoon,7069636f-6261-46c6-9c6f-6f6e2e6b6963,0.1*%
%TF.SameCoordinates,Original*%
%TF.FileFunction,Paste,Top*%
%TF.FilePolarity,Positive*%
%FSLAX46Y46*%
G04 Gerber Fmt 4.6, Leading zero omitted, Abs format (unit mm)*
G04 Created by KiCad (PCBNEW 5.1.9) date 2021-03-27 13:30:24*
%MOMM*%
%LPD*%
G01*
G04 APERTURE LIST*
%ADD10R,0.700000X2.150000*%
%ADD11R,2.150000X0.700000*%
%ADD12R,2.400000X0.740000*%
%ADD13R,1.000000X2.750000*%
%ADD14R,0.950000X0.550000*%
G04 APERTURE END LIST*
%TO.C,R3*%
G36*
G01*
X120925000Y-70050000D02*
X120375000Y-70050000D01*
G75*
G02*
X120175000Y-69850000I0J200000D01*
G01*
X120175000Y-69450000D01*
G75*
G02*
X120375000Y-69250000I200000J0D01*
G01*
X120925000Y-69250000D01*
G75*
G02*
X121125000Y-69450000I0J-200000D01*
G01*
X121125000Y-69850000D01*
G75*
G02*
X120925000Y-70050000I-200000J0D01*
G01*
G37*
G36*
G01*
X120925000Y-71700000D02*
X120375000Y-71700000D01*
G75*
G02*
X120175000Y-71500000I0J200000D01*
G01*
X120175000Y-71100000D01*
G75*
G02*
X120375000Y-70900000I200000J0D01*
G01*
X120925000Y-70900000D01*
G75*
G02*
X121125000Y-71100000I0J-200000D01*
G01*
X121125000Y-71500000D01*
G75*
G02*
X120925000Y-71700000I-200000J0D01*
G01*
G37*
%TD*%
%TO.C,U4*%
G36*
G01*
X122125000Y-75925000D02*
X122125000Y-75675000D01*
G75*
G02*
X122250000Y-75550000I125000J0D01*
G01*
X123500000Y-75550000D01*
G75*
G02*
X123625000Y-75675000I0J-125000D01*
G01*
X123625000Y-75925000D01*
G75*
G02*
X123500000Y-76050000I-125000J0D01*
G01*
X122250000Y-76050000D01*
G75*
G02*
X122125000Y-75925000I0J125000D01*
G01*
G37*
G36*
G01*
X122125000Y-76725000D02*
X122125000Y-76475000D01*
G75*
G02*
X122250000Y-76350000I125000J0D01*
G01*
X123500000Y-76350000D01*
G75*
G02*
X123625000Y-76475000I0J-125000D01*
G01*
X123625000Y-76725000D01*
G75*
G02*
X123500000Y-76850000I-125000J0D01*
G01*
X122250000Y-76850000D01*
G75*
G02*
X122125000Y-76725000I0J125000D01*
G01*
G37*
G36*
G01*
X122125000Y-77525000D02*
X122125000Y-77275000D01*
G75*
G02*
X122250000Y-77150000I125000J0D01*
G01*
X123500000Y-77150000D01*
G75*
G02*
X123625000Y-77275000I0J-125000D01*
G01*
X123625000Y-77525000D01*
G75*
G02*
X123500000Y-77650000I-125000J0D01*
G01*
X122250000Y-77650000D01*
G75*
G02*
X122125000Y-77525000I0J125000D01*
G01*
G37*
G36*
G01*
X122125000Y-78325000D02*
X122125000Y-78075000D01*
G75*
G02*
X122250000Y-77950000I125000J0D01*
G01*
X123500000Y-77950000D01*
G75*
G02*
X123625000Y-78075000I0J-125000D01*
G01*
X123625000Y-78325000D01*
G75*
G02*
X123500000Y-78450000I-125000J0D01*
G01*
X122250000Y-78450000D01*
G75*
G02*
X122125000Y-78325000I0J125000D01*
G01*
G37*
G36*
G01*
X122125000Y-79125000D02*
X122125000Y-78875000D01*
G75*
G02*
X122250000Y-78750000I125000J0D01*
G01*
X123500000Y-78750000D01*
G75*
G02*
X123625000Y-78875000I0J-125000D01*
G01*
X123625000Y-79125000D01*
G75*
G02*
X123500000Y-79250000I-125000J0D01*
G01*
X122250000Y-79250000D01*
G75*
G02*
X122125000Y-79125000I0J125000D01*
G01*
G37*
G36*
G01*
X122125000Y-79925000D02*
X122125000Y-79675000D01*
G75*
G02*
X122250000Y-79550000I125000J0D01*
G01*
X123500000Y-79550000D01*
G75*
G02*
X123625000Y-79675000I0J-125000D01*
G01*
X123625000Y-79925000D01*
G75*
G02*
X123500000Y-80050000I-125000J0D01*
G01*
X122250000Y-80050000D01*
G75*
G02*
X122125000Y-79925000I0J125000D01*
G01*
G37*
G36*
G01*
X122125000Y-80725000D02*
X122125000Y-80475000D01*
G75*
G02*
X122250000Y-80350000I125000J0D01*
G01*
X123500000Y-80350000D01*
G75*
G02*
X123625000Y-80475000I0J-125000D01*
G01*
X123625000Y-80725000D01*
G75*
G02*
X123500000Y-80850000I-125000J0D01*
G01*
X122250000Y-80850000D01*
G75*
G02*
X122125000Y-80725000I0J125000D01*
G01*
G37*
G36*
G01*
X122125000Y-81525000D02*
X122125000Y-81275000D01*
G75*
G02*
X122250000Y-81150000I125000J0D01*
G01*
X123500000Y-81150000D01*
G75*
G02*
X123625000Y-81275000I0J-125000D01*
G01*
X123625000Y-81525000D01*
G75*
G02*
X123500000Y-81650000I-125000J0D01*
G01*
X122250000Y-81650000D01*
G75*
G02*
X122125000Y-81525000I0J125000D01*
G01*
G37*
G36*
G01*
X124000000Y-83400000D02*
X124000000Y-82150000D01*
G75*
G02*
X124125000Y-82025000I125000J0D01*
G01*
X124375000Y-82025000D01*
G75*
G02*
X124500000Y-82150000I0J-125000D01*
G01*
X124500000Y-83400000D01*
G75*
G02*
X124375000Y-83525000I-125000J0D01*
G01*
X124125000Y-83525000D01*
G75*
G02*
X124000000Y-83400000I0J125000D01*
G01*
G37*
G36*
G01*
X124800000Y-83400000D02*
X124800000Y-82150000D01*
G75*
G02*
X124925000Y-82025000I125000J0D01*
G01*
X125175000Y-82025000D01*
G75*
G02*
X125300000Y-82150000I0J-125000D01*
G01*
X125300000Y-83400000D01*
G75*
G02*
X125175000Y-83525000I-125000J0D01*
G01*
X124925000Y-83525000D01*
G75*
G02*
X124800000Y-83400000I0J125000D01*
G01*
G37*
G36*
G01*
X125600000Y-83400000D02*
X125600000Y-82150000D01*
G75*
G02*
X125725000Y-82025000I125000J0D01*
G01*
X125975000Y-82025000D01*
G75*
G02*
X126100000Y-82150000I0J-125000D01*
G01*
X126100000Y-83400000D01*
G75*
G02*
X125975000Y-83525000I-125000J0D01*
G01*
X125725000Y-83525000D01*
G75*
G02*
X125600000Y-83400000I0J125000D01*
G01*
G37*
G36*
G01*
X126400000Y-83400000D02*
X126400000Y-82150000D01*
G75*
G02*
X126525000Y-82025000I125000J0D01*
G01*
X126775000Y-82025000D01*
G75*
G02*
X126900000Y-82150000I0J-125000D01*
G01*
X126900000Y-83400000D01*
G75*
G02*
X126775000Y-83525000I-125000J0D01*
G01*
X126525000Y-83525000D01*
G75*
G02*
X126400000Y-83400000I0J125000D01*
G01*
G37*
G36*
G01*
X127200000Y-83400000D02*
X127200000Y-82150000D01*
G75*
G02*
X127325000Y-82025000I125000J0D01*
G01*
X127575000Y-82025000D01*
G75*
G02*
X127700000Y-82150000I0J-125000D01*
G01*
X127700000Y-83400000D01*
G75*
G02*
X127575000Y-83525000I-125000J0D01*
G01*
X127325000Y-83525000D01*
G75*
G02*
X127200000Y-83400000I0J125000D01*
G01*
G37*
G36*
G01*
X128000000Y-83400000D02*
X128000000Y-82150000D01*
G75*
G02*
X128125000Y-82025000I125000J0D01*
G01*
X128375000Y-82025000D01*
G75*
G02*
X128500000Y-82150000I0J-125000D01*
G01*
X128500000Y-83400000D01*
G75*
G02*
X128375000Y-83525000I-125000J0D01*
G01*
X128125000Y-83525000D01*
G75*
G02*
X128000000Y-83400000I0J125000D01*
G01*
G37*
G36*
G01*
X128800000Y-83400000D02*
X128800000Y-82150000D01*
G75*
G02*
X128925000Y-82025000I125000J0D01*
G01*
X129175000Y-82025000D01*
G75*
G02*
X129300000Y-82150000I0J-125000D01*
G01*
X129300000Y-83400000D01*
G75*
G02*
X129175000Y-83525000I-125000J0D01*
G01*
X128925000Y-83525000D01*
G75*
G02*
X128800000Y-83400000I0J125000D01*
G01*
G37*
G36*
G01*
X129600000Y-83400000D02*
X129600000Y-82150000D01*
G75*
G02*
X129725000Y-82025000I125000J0D01*
G01*
X129975000Y-82025000D01*
G75*
G02*
X130100000Y-82150000I0J-125000D01*
G01*
X130100000Y-83400000D01*
G75*
G02*
X129975000Y-83525000I-125000J0D01*
G01*
X129725000Y-83525000D01*
G75*
G02*
X129600000Y-83400000I0J125000D01*
G01*
G37*
G36*
G01*
X130475000Y-81525000D02*
X130475000Y-81275000D01*
G75*
G02*
X130600000Y-81150000I125000J0D01*
G01*
X131850000Y-81150000D01*
G75*
G02*
X131975000Y-81275000I0J-125000D01*
G01*
X131975000Y-81525000D01*
G75*
G02*
X131850000Y-81650000I-125000J0D01*
G01*
X130600000Y-81650000D01*
G75*
G02*
X130475000Y-81525000I0J125000D01*
G01*
G37*
G36*
G01*
X130475000Y-80725000D02*
X130475000Y-80475000D01*
G75*
G02*
X130600000Y-80350000I125000J0D01*
G01*
X131850000Y-80350000D01*
G75*
G02*
X131975000Y-80475000I0J-125000D01*
G01*
X131975000Y-80725000D01*
G75*
G02*
X131850000Y-80850000I-125000J0D01*
G01*
X130600000Y-80850000D01*
G75*
G02*
X130475000Y-80725000I0J125000D01*
G01*
G37*
G36*
G01*
X130475000Y-79925000D02*
X130475000Y-79675000D01*
G75*
G02*
X130600000Y-79550000I125000J0D01*
G01*
X131850000Y-79550000D01*
G75*
G02*
X131975000Y-79675000I0J-125000D01*
G01*
X131975000Y-79925000D01*
G75*
G02*
X131850000Y-80050000I-125000J0D01*
G01*
X130600000Y-80050000D01*
G75*
G02*
X130475000Y-79925000I0J125000D01*
G01*
G37*
G36*
G01*
X130475000Y-79125000D02*
X130475000Y-78875000D01*
G75*
G02*
X130600000Y-78750000I125000J0D01*
G01*
X131850000Y-78750000D01*
G75*
G02*
X131975000Y-78875000I0J-125000D01*
G01*
X131975000Y-79125000D01*
G75*
G02*
X131850000Y-79250000I-125000J0D01*
G01*
X130600000Y-79250000D01*
G75*
G02*
X130475000Y-79125000I0J125000D01*
G01*
G37*
G36*
G01*
X130475000Y-78325000D02*
X130475000Y-78075000D01*
G75*
G02*
X130600000Y-77950000I125000J0D01*
G01*
X131850000Y-77950000D01*
G75*
G02*
X131975000Y-78075000I0J-125000D01*
G01*
X131975000Y-78325000D01*
G75*
G02*
X131850000Y-78450000I-125000J0D01*
G01*
X130600000Y-78450000D01*
G75*
G02*
X130475000Y-78325000I0J125000D01*
G01*
G37*
G36*
G01*
X130475000Y-77525000D02*
X130475000Y-77275000D01*
G75*
G02*
X130600000Y-77150000I125000J0D01*
G01*
X131850000Y-77150000D01*
G75*
G02*
X131975000Y-77275000I0J-125000D01*
G01*
X131975000Y-77525000D01*
G75*
G02*
X131850000Y-77650000I-125000J0D01*
G01*
X130600000Y-77650000D01*
G75*
G02*
X130475000Y-77525000I0J125000D01*
G01*
G37*
G36*
G01*
X130475000Y-76725000D02*
X130475000Y-76475000D01*
G75*
G02*
X130600000Y-76350000I125000J0D01*
G01*
X131850000Y-76350000D01*
G75*
G02*
X131975000Y-76475000I0J-125000D01*
G01*
X131975000Y-76725000D01*
G75*
G02*
X131850000Y-76850000I-125000J0D01*
G01*
X130600000Y-76850000D01*
G75*
G02*
X130475000Y-76725000I0J125000D01*
G01*
G37*
G36*
G01*
X130475000Y-75925000D02*
X130475000Y-75675000D01*
G75*
G02*
X130600000Y-75550000I125000J0D01*
G01*
X131850000Y-75550000D01*
G75*
G02*
X131975000Y-75675000I0J-125000D01*
G01*
X131975000Y-75925000D01*
G75*
G02*
X131850000Y-76050000I-125000J0D01*
G01*
X130600000Y-76050000D01*
G75*
G02*
X130475000Y-75925000I0J125000D01*
G01*
G37*
G36*
G01*
X129600000Y-75050000D02*
X129600000Y-73800000D01*
G75*
G02*
X129725000Y-73675000I125000J0D01*
G01*
X129975000Y-73675000D01*
G75*
G02*
X130100000Y-73800000I0J-125000D01*
G01*
X130100000Y-75050000D01*
G75*
G02*
X129975000Y-75175000I-125000J0D01*
G01*
X129725000Y-75175000D01*
G75*
G02*
X129600000Y-75050000I0J125000D01*
G01*
G37*
G36*
G01*
X128800000Y-75050000D02*
X128800000Y-73800000D01*
G75*
G02*
X128925000Y-73675000I125000J0D01*
G01*
X129175000Y-73675000D01*
G75*
G02*
X129300000Y-73800000I0J-125000D01*
G01*
X129300000Y-75050000D01*
G75*
G02*
X129175000Y-75175000I-125000J0D01*
G01*
X128925000Y-75175000D01*
G75*
G02*
X128800000Y-75050000I0J125000D01*
G01*
G37*
G36*
G01*
X128000000Y-75050000D02*
X128000000Y-73800000D01*
G75*
G02*
X128125000Y-73675000I125000J0D01*
G01*
X128375000Y-73675000D01*
G75*
G02*
X128500000Y-73800000I0J-125000D01*
G01*
X128500000Y-75050000D01*
G75*
G02*
X128375000Y-75175000I-125000J0D01*
G01*
X128125000Y-75175000D01*
G75*
G02*
X128000000Y-75050000I0J125000D01*
G01*
G37*
G36*
G01*
X127200000Y-75050000D02*
X127200000Y-73800000D01*
G75*
G02*
X127325000Y-73675000I125000J0D01*
G01*
X127575000Y-73675000D01*
G75*
G02*
X127700000Y-73800000I0J-125000D01*
G01*
X127700000Y-75050000D01*
G75*
G02*
X127575000Y-75175000I-125000J0D01*
G01*
X127325000Y-75175000D01*
G75*
G02*
X127200000Y-75050000I0J125000D01*
G01*
G37*
G36*
G01*
X126400000Y-75050000D02*
X126400000Y-73800000D01*
G75*
G02*
X126525000Y-73675000I125000J0D01*
G01*
X126775000Y-73675000D01*
G75*
G02*
X126900000Y-73800000I0J-125000D01*
G01*
X126900000Y-75050000D01*
G75*
G02*
X126775000Y-75175000I-125000J0D01*
G01*
X126525000Y-75175000D01*
G75*
G02*
X126400000Y-75050000I0J125000D01*
G01*
G37*
G36*
G01*
X125600000Y-75050000D02*
X125600000Y-73800000D01*
G75*
G02*
X125725000Y-73675000I125000J0D01*
G01*
X125975000Y-73675000D01*
G75*
G02*
X126100000Y-73800000I0J-125000D01*
G01*
X126100000Y-75050000D01*
G75*
G02*
X125975000Y-75175000I-125000J0D01*
G01*
X125725000Y-75175000D01*
G75*
G02*
X125600000Y-75050000I0J125000D01*
G01*
G37*
G36*
G01*
X124800000Y-75050000D02*
X124800000Y-73800000D01*
G75*
G02*
X124925000Y-73675000I125000J0D01*
G01*
X125175000Y-73675000D01*
G75*
G02*
X125300000Y-73800000I0J-125000D01*
G01*
X125300000Y-75050000D01*
G75*
G02*
X125175000Y-75175000I-125000J0D01*
G01*
X124925000Y-75175000D01*
G75*
G02*
X124800000Y-75050000I0J125000D01*
G01*
G37*
G36*
G01*
X124000000Y-75050000D02*
X124000000Y-73800000D01*
G75*
G02*
X124125000Y-73675000I125000J0D01*
G01*
X124375000Y-73675000D01*
G75*
G02*
X124500000Y-73800000I0J-125000D01*
G01*
X124500000Y-75050000D01*
G75*
G02*
X124375000Y-75175000I-125000J0D01*
G01*
X124125000Y-75175000D01*
G75*
G02*
X124000000Y-75050000I0J125000D01*
G01*
G37*
%TD*%
D10*
%TO.C,U3*%
X132300000Y-72100000D03*
X131300000Y-72100000D03*
X130300000Y-72100000D03*
X129300000Y-72100000D03*
X128300000Y-72100000D03*
D11*
X125550000Y-71350000D03*
X125550000Y-70350000D03*
X125550000Y-69350000D03*
X125550000Y-68350000D03*
X125550000Y-67350000D03*
X125550000Y-66350000D03*
X125550000Y-65350000D03*
X125550000Y-64350000D03*
X125550000Y-63350000D03*
X125550000Y-62350000D03*
X125550000Y-61350000D03*
X125550000Y-60350000D03*
X125550000Y-59200000D03*
X135050000Y-59200000D03*
X135050000Y-60350000D03*
X135050000Y-61350000D03*
X135050000Y-62350000D03*
X135050000Y-63350000D03*
X135050000Y-64350000D03*
X135050000Y-65350000D03*
X135050000Y-66350000D03*
X135050000Y-67350000D03*
X135050000Y-68350000D03*
X135050000Y-69350000D03*
X135050000Y-70350000D03*
X135050000Y-71350000D03*
%TD*%
%TO.C,C1*%
G36*
G01*
X137850000Y-59775000D02*
X137350000Y-59775000D01*
G75*
G02*
X137125000Y-59550000I0J225000D01*
G01*
X137125000Y-59100000D01*
G75*
G02*
X137350000Y-58875000I225000J0D01*
G01*
X137850000Y-58875000D01*
G75*
G02*
X138075000Y-59100000I0J-225000D01*
G01*
X138075000Y-59550000D01*
G75*
G02*
X137850000Y-59775000I-225000J0D01*
G01*
G37*
G36*
G01*
X137850000Y-61325000D02*
X137350000Y-61325000D01*
G75*
G02*
X137125000Y-61100000I0J225000D01*
G01*
X137125000Y-60650000D01*
G75*
G02*
X137350000Y-60425000I225000J0D01*
G01*
X137850000Y-60425000D01*
G75*
G02*
X138075000Y-60650000I0J-225000D01*
G01*
X138075000Y-61100000D01*
G75*
G02*
X137850000Y-61325000I-225000J0D01*
G01*
G37*
%TD*%
%TO.C,C2*%
G36*
G01*
X137350000Y-62800000D02*
X137850000Y-62800000D01*
G75*
G02*
X138075000Y-63025000I0J-225000D01*
G01*
X138075000Y-63475000D01*
G75*
G02*
X137850000Y-63700000I-225000J0D01*
G01*
X137350000Y-63700000D01*
G75*
G02*
X137125000Y-63475000I0J225000D01*
G01*
X137125000Y-63025000D01*
G75*
G02*
X137350000Y-62800000I225000J0D01*
G01*
G37*
G36*
G01*
X137350000Y-64350000D02*
X137850000Y-64350000D01*
G75*
G02*
X138075000Y-64575000I0J-225000D01*
G01*
X138075000Y-65025000D01*
G75*
G02*
X137850000Y-65250000I-225000J0D01*
G01*
X137350000Y-65250000D01*
G75*
G02*
X137125000Y-65025000I0J225000D01*
G01*
X137125000Y-64575000D01*
G75*
G02*
X137350000Y-64350000I225000J0D01*
G01*
G37*
%TD*%
%TO.C,C4*%
G36*
G01*
X135510000Y-82580000D02*
X135510000Y-82080000D01*
G75*
G02*
X135735000Y-81855000I225000J0D01*
G01*
X136185000Y-81855000D01*
G75*
G02*
X136410000Y-82080000I0J-225000D01*
G01*
X136410000Y-82580000D01*
G75*
G02*
X136185000Y-82805000I-225000J0D01*
G01*
X135735000Y-82805000D01*
G75*
G02*
X135510000Y-82580000I0J225000D01*
G01*
G37*
G36*
G01*
X137060000Y-82580000D02*
X137060000Y-82080000D01*
G75*
G02*
X137285000Y-81855000I225000J0D01*
G01*
X137735000Y-81855000D01*
G75*
G02*
X137960000Y-82080000I0J-225000D01*
G01*
X137960000Y-82580000D01*
G75*
G02*
X137735000Y-82805000I-225000J0D01*
G01*
X137285000Y-82805000D01*
G75*
G02*
X137060000Y-82580000I0J225000D01*
G01*
G37*
%TD*%
%TO.C,C5*%
G36*
G01*
X137225000Y-68450000D02*
X136725000Y-68450000D01*
G75*
G02*
X136500000Y-68225000I0J225000D01*
G01*
X136500000Y-67775000D01*
G75*
G02*
X136725000Y-67550000I225000J0D01*
G01*
X137225000Y-67550000D01*
G75*
G02*
X137450000Y-67775000I0J-225000D01*
G01*
X137450000Y-68225000D01*
G75*
G02*
X137225000Y-68450000I-225000J0D01*
G01*
G37*
G36*
G01*
X137225000Y-66900000D02*
X136725000Y-66900000D01*
G75*
G02*
X136500000Y-66675000I0J225000D01*
G01*
X136500000Y-66225000D01*
G75*
G02*
X136725000Y-66000000I225000J0D01*
G01*
X137225000Y-66000000D01*
G75*
G02*
X137450000Y-66225000I0J-225000D01*
G01*
X137450000Y-66675000D01*
G75*
G02*
X137225000Y-66900000I-225000J0D01*
G01*
G37*
%TD*%
%TO.C,C6*%
G36*
G01*
X121800000Y-64600000D02*
X121800000Y-65100000D01*
G75*
G02*
X121575000Y-65325000I-225000J0D01*
G01*
X121125000Y-65325000D01*
G75*
G02*
X120900000Y-65100000I0J225000D01*
G01*
X120900000Y-64600000D01*
G75*
G02*
X121125000Y-64375000I225000J0D01*
G01*
X121575000Y-64375000D01*
G75*
G02*
X121800000Y-64600000I0J-225000D01*
G01*
G37*
G36*
G01*
X123350000Y-64600000D02*
X123350000Y-65100000D01*
G75*
G02*
X123125000Y-65325000I-225000J0D01*
G01*
X122675000Y-65325000D01*
G75*
G02*
X122450000Y-65100000I0J225000D01*
G01*
X122450000Y-64600000D01*
G75*
G02*
X122675000Y-64375000I225000J0D01*
G01*
X123125000Y-64375000D01*
G75*
G02*
X123350000Y-64600000I0J-225000D01*
G01*
G37*
%TD*%
%TO.C,C7*%
G36*
G01*
X121100000Y-78825000D02*
X121600000Y-78825000D01*
G75*
G02*
X121825000Y-79050000I0J-225000D01*
G01*
X121825000Y-79500000D01*
G75*
G02*
X121600000Y-79725000I-225000J0D01*
G01*
X121100000Y-79725000D01*
G75*
G02*
X120875000Y-79500000I0J225000D01*
G01*
X120875000Y-79050000D01*
G75*
G02*
X121100000Y-78825000I225000J0D01*
G01*
G37*
G36*
G01*
X121100000Y-80375000D02*
X121600000Y-80375000D01*
G75*
G02*
X121825000Y-80600000I0J-225000D01*
G01*
X121825000Y-81050000D01*
G75*
G02*
X121600000Y-81275000I-225000J0D01*
G01*
X121100000Y-81275000D01*
G75*
G02*
X120875000Y-81050000I0J225000D01*
G01*
X120875000Y-80600000D01*
G75*
G02*
X121100000Y-80375000I225000J0D01*
G01*
G37*
%TD*%
%TO.C,C8*%
G36*
G01*
X122875000Y-74925000D02*
X122875000Y-74425000D01*
G75*
G02*
X123100000Y-74200000I225000J0D01*
G01*
X123550000Y-74200000D01*
G75*
G02*
X123775000Y-74425000I0J-225000D01*
G01*
X123775000Y-74925000D01*
G75*
G02*
X123550000Y-75150000I-225000J0D01*
G01*
X123100000Y-75150000D01*
G75*
G02*
X122875000Y-74925000I0J225000D01*
G01*
G37*
G36*
G01*
X121325000Y-74925000D02*
X121325000Y-74425000D01*
G75*
G02*
X121550000Y-74200000I225000J0D01*
G01*
X122000000Y-74200000D01*
G75*
G02*
X122225000Y-74425000I0J-225000D01*
G01*
X122225000Y-74925000D01*
G75*
G02*
X122000000Y-75150000I-225000J0D01*
G01*
X121550000Y-75150000D01*
G75*
G02*
X121325000Y-74925000I0J225000D01*
G01*
G37*
%TD*%
%TO.C,C9*%
G36*
G01*
X121350000Y-72625000D02*
X121350000Y-72125000D01*
G75*
G02*
X121575000Y-71900000I225000J0D01*
G01*
X122025000Y-71900000D01*
G75*
G02*
X122250000Y-72125000I0J-225000D01*
G01*
X122250000Y-72625000D01*
G75*
G02*
X122025000Y-72850000I-225000J0D01*
G01*
X121575000Y-72850000D01*
G75*
G02*
X121350000Y-72625000I0J225000D01*
G01*
G37*
G36*
G01*
X122900000Y-72625000D02*
X122900000Y-72125000D01*
G75*
G02*
X123125000Y-71900000I225000J0D01*
G01*
X123575000Y-71900000D01*
G75*
G02*
X123800000Y-72125000I0J-225000D01*
G01*
X123800000Y-72625000D01*
G75*
G02*
X123575000Y-72850000I-225000J0D01*
G01*
X123125000Y-72850000D01*
G75*
G02*
X122900000Y-72625000I0J225000D01*
G01*
G37*
%TD*%
%TO.C,C10*%
G36*
G01*
X132780000Y-82630000D02*
X132780000Y-83130000D01*
G75*
G02*
X132555000Y-83355000I-225000J0D01*
G01*
X132105000Y-83355000D01*
G75*
G02*
X131880000Y-83130000I0J225000D01*
G01*
X131880000Y-82630000D01*
G75*
G02*
X132105000Y-82405000I225000J0D01*
G01*
X132555000Y-82405000D01*
G75*
G02*
X132780000Y-82630000I0J-225000D01*
G01*
G37*
G36*
G01*
X131230000Y-82630000D02*
X131230000Y-83130000D01*
G75*
G02*
X131005000Y-83355000I-225000J0D01*
G01*
X130555000Y-83355000D01*
G75*
G02*
X130330000Y-83130000I0J225000D01*
G01*
X130330000Y-82630000D01*
G75*
G02*
X130555000Y-82405000I225000J0D01*
G01*
X131005000Y-82405000D01*
G75*
G02*
X131230000Y-82630000I0J-225000D01*
G01*
G37*
%TD*%
D12*
%TO.C,J4*%
X126490000Y-87380000D03*
X130390000Y-87380000D03*
X126490000Y-88650000D03*
X130390000Y-88650000D03*
X126490000Y-89920000D03*
X130390000Y-89920000D03*
%TD*%
D13*
%TO.C,L1*%
X122850000Y-62650000D03*
X120550000Y-62650000D03*
%TD*%
%TO.C,R1*%
G36*
G01*
X133255000Y-74455000D02*
X133255000Y-73905000D01*
G75*
G02*
X133455000Y-73705000I200000J0D01*
G01*
X133855000Y-73705000D01*
G75*
G02*
X134055000Y-73905000I0J-200000D01*
G01*
X134055000Y-74455000D01*
G75*
G02*
X133855000Y-74655000I-200000J0D01*
G01*
X133455000Y-74655000D01*
G75*
G02*
X133255000Y-74455000I0J200000D01*
G01*
G37*
G36*
G01*
X134905000Y-74455000D02*
X134905000Y-73905000D01*
G75*
G02*
X135105000Y-73705000I200000J0D01*
G01*
X135505000Y-73705000D01*
G75*
G02*
X135705000Y-73905000I0J-200000D01*
G01*
X135705000Y-74455000D01*
G75*
G02*
X135505000Y-74655000I-200000J0D01*
G01*
X135105000Y-74655000D01*
G75*
G02*
X134905000Y-74455000I0J200000D01*
G01*
G37*
%TD*%
%TO.C,R2*%
G36*
G01*
X134935000Y-75625000D02*
X134935000Y-75075000D01*
G75*
G02*
X135135000Y-74875000I200000J0D01*
G01*
X135535000Y-74875000D01*
G75*
G02*
X135735000Y-75075000I0J-200000D01*
G01*
X135735000Y-75625000D01*
G75*
G02*
X135535000Y-75825000I-200000J0D01*
G01*
X135135000Y-75825000D01*
G75*
G02*
X134935000Y-75625000I0J200000D01*
G01*
G37*
G36*
G01*
X133285000Y-75625000D02*
X133285000Y-75075000D01*
G75*
G02*
X133485000Y-74875000I200000J0D01*
G01*
X133885000Y-74875000D01*
G75*
G02*
X134085000Y-75075000I0J-200000D01*
G01*
X134085000Y-75625000D01*
G75*
G02*
X133885000Y-75825000I-200000J0D01*
G01*
X133485000Y-75825000D01*
G75*
G02*
X133285000Y-75625000I0J200000D01*
G01*
G37*
%TD*%
%TO.C,R4*%
G36*
G01*
X126475000Y-72675000D02*
X126475000Y-73225000D01*
G75*
G02*
X126275000Y-73425000I-200000J0D01*
G01*
X125875000Y-73425000D01*
G75*
G02*
X125675000Y-73225000I0J200000D01*
G01*
X125675000Y-72675000D01*
G75*
G02*
X125875000Y-72475000I200000J0D01*
G01*
X126275000Y-72475000D01*
G75*
G02*
X126475000Y-72675000I0J-200000D01*
G01*
G37*
G36*
G01*
X124825000Y-72675000D02*
X124825000Y-73225000D01*
G75*
G02*
X124625000Y-73425000I-200000J0D01*
G01*
X124225000Y-73425000D01*
G75*
G02*
X124025000Y-73225000I0J200000D01*
G01*
X124025000Y-72675000D01*
G75*
G02*
X124225000Y-72475000I200000J0D01*
G01*
X124625000Y-72475000D01*
G75*
G02*
X124825000Y-72675000I0J-200000D01*
G01*
G37*
%TD*%
%TO.C,R5*%
G36*
G01*
X121650000Y-76950000D02*
X121100000Y-76950000D01*
G75*
G02*
X120900000Y-76750000I0J200000D01*
G01*
X120900000Y-76350000D01*
G75*
G02*
X121100000Y-76150000I200000J0D01*
G01*
X121650000Y-76150000D01*
G75*
G02*
X121850000Y-76350000I0J-200000D01*
G01*
X121850000Y-76750000D01*
G75*
G02*
X121650000Y-76950000I-200000J0D01*
G01*
G37*
G36*
G01*
X121650000Y-78600000D02*
X121100000Y-78600000D01*
G75*
G02*
X120900000Y-78400000I0J200000D01*
G01*
X120900000Y-78000000D01*
G75*
G02*
X121100000Y-77800000I200000J0D01*
G01*
X121650000Y-77800000D01*
G75*
G02*
X121850000Y-78000000I0J-200000D01*
G01*
X121850000Y-78400000D01*
G75*
G02*
X121650000Y-78600000I-200000J0D01*
G01*
G37*
%TD*%
%TO.C,R6*%
G36*
G01*
X120900000Y-74850000D02*
X120350000Y-74850000D01*
G75*
G02*
X120150000Y-74650000I0J200000D01*
G01*
X120150000Y-74250000D01*
G75*
G02*
X120350000Y-74050000I200000J0D01*
G01*
X120900000Y-74050000D01*
G75*
G02*
X121100000Y-74250000I0J-200000D01*
G01*
X121100000Y-74650000D01*
G75*
G02*
X120900000Y-74850000I-200000J0D01*
G01*
G37*
G36*
G01*
X120900000Y-73200000D02*
X120350000Y-73200000D01*
G75*
G02*
X120150000Y-73000000I0J200000D01*
G01*
X120150000Y-72600000D01*
G75*
G02*
X120350000Y-72400000I200000J0D01*
G01*
X120900000Y-72400000D01*
G75*
G02*
X121100000Y-72600000I0J-200000D01*
G01*
X121100000Y-73000000D01*
G75*
G02*
X120900000Y-73200000I-200000J0D01*
G01*
G37*
%TD*%
%TO.C,R7*%
G36*
G01*
X122800000Y-71675000D02*
X122250000Y-71675000D01*
G75*
G02*
X122050000Y-71475000I0J200000D01*
G01*
X122050000Y-71075000D01*
G75*
G02*
X122250000Y-70875000I200000J0D01*
G01*
X122800000Y-70875000D01*
G75*
G02*
X123000000Y-71075000I0J-200000D01*
G01*
X123000000Y-71475000D01*
G75*
G02*
X122800000Y-71675000I-200000J0D01*
G01*
G37*
G36*
G01*
X122800000Y-70025000D02*
X122250000Y-70025000D01*
G75*
G02*
X122050000Y-69825000I0J200000D01*
G01*
X122050000Y-69425000D01*
G75*
G02*
X122250000Y-69225000I200000J0D01*
G01*
X122800000Y-69225000D01*
G75*
G02*
X123000000Y-69425000I0J-200000D01*
G01*
X123000000Y-69825000D01*
G75*
G02*
X122800000Y-70025000I-200000J0D01*
G01*
G37*
%TD*%
%TO.C,R8*%
G36*
G01*
X123475000Y-70825000D02*
X124025000Y-70825000D01*
G75*
G02*
X124225000Y-71025000I0J-200000D01*
G01*
X124225000Y-71425000D01*
G75*
G02*
X124025000Y-71625000I-200000J0D01*
G01*
X123475000Y-71625000D01*
G75*
G02*
X123275000Y-71425000I0J200000D01*
G01*
X123275000Y-71025000D01*
G75*
G02*
X123475000Y-70825000I200000J0D01*
G01*
G37*
G36*
G01*
X123475000Y-69175000D02*
X124025000Y-69175000D01*
G75*
G02*
X124225000Y-69375000I0J-200000D01*
G01*
X124225000Y-69775000D01*
G75*
G02*
X124025000Y-69975000I-200000J0D01*
G01*
X123475000Y-69975000D01*
G75*
G02*
X123275000Y-69775000I0J200000D01*
G01*
X123275000Y-69375000D01*
G75*
G02*
X123475000Y-69175000I200000J0D01*
G01*
G37*
%TD*%
D14*
%TO.C,U1*%
X135330000Y-77130000D03*
X135330000Y-78380000D03*
X135330000Y-79630000D03*
X135330000Y-80880000D03*
X137480000Y-78380000D03*
X137480000Y-79630000D03*
X137480000Y-80880000D03*
X137480000Y-77130000D03*
%TD*%
%TO.C,U5*%
G36*
G01*
X119937500Y-66450000D02*
X119937500Y-66150000D01*
G75*
G02*
X120087500Y-66000000I150000J0D01*
G01*
X121112500Y-66000000D01*
G75*
G02*
X121262500Y-66150000I0J-150000D01*
G01*
X121262500Y-66450000D01*
G75*
G02*
X121112500Y-66600000I-150000J0D01*
G01*
X120087500Y-66600000D01*
G75*
G02*
X119937500Y-66450000I0J150000D01*
G01*
G37*
G36*
G01*
X119937500Y-67400000D02*
X119937500Y-67100000D01*
G75*
G02*
X120087500Y-66950000I150000J0D01*
G01*
X121112500Y-66950000D01*
G75*
G02*
X121262500Y-67100000I0J-150000D01*
G01*
X121262500Y-67400000D01*
G75*
G02*
X121112500Y-67550000I-150000J0D01*
G01*
X120087500Y-67550000D01*
G75*
G02*
X119937500Y-67400000I0J150000D01*
G01*
G37*
G36*
G01*
X119937500Y-68350000D02*
X119937500Y-68050000D01*
G75*
G02*
X120087500Y-67900000I150000J0D01*
G01*
X121112500Y-67900000D01*
G75*
G02*
X121262500Y-68050000I0J-150000D01*
G01*
X121262500Y-68350000D01*
G75*
G02*
X121112500Y-68500000I-150000J0D01*
G01*
X120087500Y-68500000D01*
G75*
G02*
X119937500Y-68350000I0J150000D01*
G01*
G37*
G36*
G01*
X122212500Y-68350000D02*
X122212500Y-68050000D01*
G75*
G02*
X122362500Y-67900000I150000J0D01*
G01*
X123387500Y-67900000D01*
G75*
G02*
X123537500Y-68050000I0J-150000D01*
G01*
X123537500Y-68350000D01*
G75*
G02*
X123387500Y-68500000I-150000J0D01*
G01*
X122362500Y-68500000D01*
G75*
G02*
X122212500Y-68350000I0J150000D01*
G01*
G37*
G36*
G01*
X122212500Y-67400000D02*
X122212500Y-67100000D01*
G75*
G02*
X122362500Y-66950000I150000J0D01*
G01*
X123387500Y-66950000D01*
G75*
G02*
X123537500Y-67100000I0J-150000D01*
G01*
X123537500Y-67400000D01*
G75*
G02*
X123387500Y-67550000I-150000J0D01*
G01*
X122362500Y-67550000D01*
G75*
G02*
X122212500Y-67400000I0J150000D01*
G01*
G37*
G36*
G01*
X122212500Y-66450000D02*
X122212500Y-66150000D01*
G75*
G02*
X122362500Y-66000000I150000J0D01*
G01*
X123387500Y-66000000D01*
G75*
G02*
X123537500Y-66150000I0J-150000D01*
G01*
X123537500Y-66450000D01*
G75*
G02*
X123387500Y-66600000I-150000J0D01*
G01*
X122362500Y-66600000D01*
G75*
G02*
X122212500Y-66450000I0J150000D01*
G01*
G37*
%TD*%
M02*
