%TF.GenerationSoftware,KiCad,Pcbnew,5.1.9*%
%TF.CreationDate,2021-03-27T13:30:24+01:00*%
%TF.ProjectId,picoballoon,7069636f-6261-46c6-9c6f-6f6e2e6b6963,0.1*%
%TF.SameCoordinates,Original*%
%TF.FileFunction,Legend,Top*%
%TF.FilePolarity,Positive*%
%FSLAX46Y46*%
G04 Gerber Fmt 4.6, Leading zero omitted, Abs format (unit mm)*
G04 Created by KiCad (PCBNEW 5.1.9) date 2021-03-27 13:30:24*
%MOMM*%
%LPD*%
G01*
G04 APERTURE LIST*
%ADD10C,0.300000*%
%ADD11C,0.010000*%
%ADD12C,0.120000*%
G04 APERTURE END LIST*
D10*
X122148095Y-82792857D02*
X123671904Y-82792857D01*
X122678095Y-59932857D02*
X124201904Y-59932857D01*
X123440000Y-60694761D02*
X123440000Y-59170952D01*
D11*
%TO.C,REF\u002A\u002A*%
G36*
X127789744Y-63459918D02*
G01*
X127845201Y-63487568D01*
X127894148Y-63538480D01*
X127907629Y-63557338D01*
X127922314Y-63582015D01*
X127931842Y-63608816D01*
X127937293Y-63644587D01*
X127939747Y-63696169D01*
X127940286Y-63764267D01*
X127937852Y-63857588D01*
X127929394Y-63927657D01*
X127913174Y-63979931D01*
X127887454Y-64019869D01*
X127850497Y-64052929D01*
X127847782Y-64054886D01*
X127811360Y-64074908D01*
X127767502Y-64084815D01*
X127711724Y-64087257D01*
X127621048Y-64087257D01*
X127621010Y-64175283D01*
X127620166Y-64224308D01*
X127615024Y-64253065D01*
X127601587Y-64270311D01*
X127575858Y-64284808D01*
X127569679Y-64287769D01*
X127540764Y-64301648D01*
X127518376Y-64310414D01*
X127501729Y-64311171D01*
X127490036Y-64301023D01*
X127482510Y-64277073D01*
X127478366Y-64236426D01*
X127476815Y-64176186D01*
X127477071Y-64093455D01*
X127478349Y-63985339D01*
X127478748Y-63953000D01*
X127480185Y-63841524D01*
X127481472Y-63768603D01*
X127620971Y-63768603D01*
X127621755Y-63830499D01*
X127625240Y-63870997D01*
X127633124Y-63897708D01*
X127647105Y-63918244D01*
X127656597Y-63928260D01*
X127695404Y-63957567D01*
X127729763Y-63959952D01*
X127765216Y-63935750D01*
X127766114Y-63934857D01*
X127780539Y-63916153D01*
X127789313Y-63890732D01*
X127793739Y-63851584D01*
X127795118Y-63791697D01*
X127795143Y-63778430D01*
X127791812Y-63695901D01*
X127780969Y-63638691D01*
X127761340Y-63603766D01*
X127731650Y-63588094D01*
X127714491Y-63586514D01*
X127673766Y-63593926D01*
X127645832Y-63618330D01*
X127629017Y-63662980D01*
X127621650Y-63731130D01*
X127620971Y-63768603D01*
X127481472Y-63768603D01*
X127481708Y-63755245D01*
X127483677Y-63690333D01*
X127486450Y-63642958D01*
X127490388Y-63609290D01*
X127495849Y-63585498D01*
X127503192Y-63567753D01*
X127512777Y-63552224D01*
X127516887Y-63546381D01*
X127571405Y-63491185D01*
X127640336Y-63459890D01*
X127720072Y-63451165D01*
X127789744Y-63459918D01*
G37*
X127789744Y-63459918D02*
X127845201Y-63487568D01*
X127894148Y-63538480D01*
X127907629Y-63557338D01*
X127922314Y-63582015D01*
X127931842Y-63608816D01*
X127937293Y-63644587D01*
X127939747Y-63696169D01*
X127940286Y-63764267D01*
X127937852Y-63857588D01*
X127929394Y-63927657D01*
X127913174Y-63979931D01*
X127887454Y-64019869D01*
X127850497Y-64052929D01*
X127847782Y-64054886D01*
X127811360Y-64074908D01*
X127767502Y-64084815D01*
X127711724Y-64087257D01*
X127621048Y-64087257D01*
X127621010Y-64175283D01*
X127620166Y-64224308D01*
X127615024Y-64253065D01*
X127601587Y-64270311D01*
X127575858Y-64284808D01*
X127569679Y-64287769D01*
X127540764Y-64301648D01*
X127518376Y-64310414D01*
X127501729Y-64311171D01*
X127490036Y-64301023D01*
X127482510Y-64277073D01*
X127478366Y-64236426D01*
X127476815Y-64176186D01*
X127477071Y-64093455D01*
X127478349Y-63985339D01*
X127478748Y-63953000D01*
X127480185Y-63841524D01*
X127481472Y-63768603D01*
X127620971Y-63768603D01*
X127621755Y-63830499D01*
X127625240Y-63870997D01*
X127633124Y-63897708D01*
X127647105Y-63918244D01*
X127656597Y-63928260D01*
X127695404Y-63957567D01*
X127729763Y-63959952D01*
X127765216Y-63935750D01*
X127766114Y-63934857D01*
X127780539Y-63916153D01*
X127789313Y-63890732D01*
X127793739Y-63851584D01*
X127795118Y-63791697D01*
X127795143Y-63778430D01*
X127791812Y-63695901D01*
X127780969Y-63638691D01*
X127761340Y-63603766D01*
X127731650Y-63588094D01*
X127714491Y-63586514D01*
X127673766Y-63593926D01*
X127645832Y-63618330D01*
X127629017Y-63662980D01*
X127621650Y-63731130D01*
X127620971Y-63768603D01*
X127481472Y-63768603D01*
X127481708Y-63755245D01*
X127483677Y-63690333D01*
X127486450Y-63642958D01*
X127490388Y-63609290D01*
X127495849Y-63585498D01*
X127503192Y-63567753D01*
X127512777Y-63552224D01*
X127516887Y-63546381D01*
X127571405Y-63491185D01*
X127640336Y-63459890D01*
X127720072Y-63451165D01*
X127789744Y-63459918D01*
G36*
X128906093Y-63467780D02*
G01*
X128952672Y-63494723D01*
X128985057Y-63521466D01*
X129008742Y-63549484D01*
X129025059Y-63583748D01*
X129035339Y-63629227D01*
X129040914Y-63690892D01*
X129043116Y-63773711D01*
X129043371Y-63833246D01*
X129043371Y-64052391D01*
X128981686Y-64080044D01*
X128920000Y-64107697D01*
X128912743Y-63867670D01*
X128909744Y-63778028D01*
X128906598Y-63712962D01*
X128902701Y-63668026D01*
X128897447Y-63638770D01*
X128890231Y-63620748D01*
X128880450Y-63609511D01*
X128877312Y-63607079D01*
X128829761Y-63588083D01*
X128781697Y-63595600D01*
X128753086Y-63615543D01*
X128741447Y-63629675D01*
X128733391Y-63648220D01*
X128728271Y-63676334D01*
X128725441Y-63719173D01*
X128724256Y-63781895D01*
X128724057Y-63847261D01*
X128724018Y-63929268D01*
X128722614Y-63987316D01*
X128717914Y-64026465D01*
X128707987Y-64051780D01*
X128690903Y-64068323D01*
X128664732Y-64081156D01*
X128629775Y-64094491D01*
X128591596Y-64109007D01*
X128596141Y-63851389D01*
X128597971Y-63758519D01*
X128600112Y-63689889D01*
X128603181Y-63640711D01*
X128607794Y-63606198D01*
X128614568Y-63581562D01*
X128624119Y-63562016D01*
X128635634Y-63544770D01*
X128691190Y-63489680D01*
X128758980Y-63457822D01*
X128832713Y-63450191D01*
X128906093Y-63467780D01*
G37*
X128906093Y-63467780D02*
X128952672Y-63494723D01*
X128985057Y-63521466D01*
X129008742Y-63549484D01*
X129025059Y-63583748D01*
X129035339Y-63629227D01*
X129040914Y-63690892D01*
X129043116Y-63773711D01*
X129043371Y-63833246D01*
X129043371Y-64052391D01*
X128981686Y-64080044D01*
X128920000Y-64107697D01*
X128912743Y-63867670D01*
X128909744Y-63778028D01*
X128906598Y-63712962D01*
X128902701Y-63668026D01*
X128897447Y-63638770D01*
X128890231Y-63620748D01*
X128880450Y-63609511D01*
X128877312Y-63607079D01*
X128829761Y-63588083D01*
X128781697Y-63595600D01*
X128753086Y-63615543D01*
X128741447Y-63629675D01*
X128733391Y-63648220D01*
X128728271Y-63676334D01*
X128725441Y-63719173D01*
X128724256Y-63781895D01*
X128724057Y-63847261D01*
X128724018Y-63929268D01*
X128722614Y-63987316D01*
X128717914Y-64026465D01*
X128707987Y-64051780D01*
X128690903Y-64068323D01*
X128664732Y-64081156D01*
X128629775Y-64094491D01*
X128591596Y-64109007D01*
X128596141Y-63851389D01*
X128597971Y-63758519D01*
X128600112Y-63689889D01*
X128603181Y-63640711D01*
X128607794Y-63606198D01*
X128614568Y-63581562D01*
X128624119Y-63562016D01*
X128635634Y-63544770D01*
X128691190Y-63489680D01*
X128758980Y-63457822D01*
X128832713Y-63450191D01*
X128906093Y-63467780D01*
G36*
X127231115Y-63461962D02*
G01*
X127299145Y-63497733D01*
X127349351Y-63555301D01*
X127367185Y-63592312D01*
X127381063Y-63647882D01*
X127388167Y-63718096D01*
X127388840Y-63794727D01*
X127383427Y-63869552D01*
X127372270Y-63934342D01*
X127355714Y-63980873D01*
X127350626Y-63988887D01*
X127290355Y-64048707D01*
X127218769Y-64084535D01*
X127141092Y-64095020D01*
X127062548Y-64078810D01*
X127040689Y-64069092D01*
X126998122Y-64039143D01*
X126960763Y-63999433D01*
X126957232Y-63994397D01*
X126942881Y-63970124D01*
X126933394Y-63944178D01*
X126927790Y-63910022D01*
X126925086Y-63861119D01*
X126924299Y-63790935D01*
X126924286Y-63775200D01*
X126924322Y-63770192D01*
X127069429Y-63770192D01*
X127070273Y-63836430D01*
X127073596Y-63880386D01*
X127080583Y-63908779D01*
X127092416Y-63928325D01*
X127098457Y-63934857D01*
X127133186Y-63959680D01*
X127166903Y-63958548D01*
X127200995Y-63937016D01*
X127221329Y-63914029D01*
X127233371Y-63880478D01*
X127240134Y-63827569D01*
X127240598Y-63821399D01*
X127241752Y-63725513D01*
X127229688Y-63654299D01*
X127204570Y-63608194D01*
X127166560Y-63587635D01*
X127152992Y-63586514D01*
X127117364Y-63592152D01*
X127092994Y-63611686D01*
X127078093Y-63649042D01*
X127070875Y-63708150D01*
X127069429Y-63770192D01*
X126924322Y-63770192D01*
X126924826Y-63700413D01*
X126927096Y-63648159D01*
X126932068Y-63611949D01*
X126940713Y-63585299D01*
X126954005Y-63561722D01*
X126956943Y-63557338D01*
X127006313Y-63498249D01*
X127060109Y-63463947D01*
X127125602Y-63450331D01*
X127147842Y-63449665D01*
X127231115Y-63461962D01*
G37*
X127231115Y-63461962D02*
X127299145Y-63497733D01*
X127349351Y-63555301D01*
X127367185Y-63592312D01*
X127381063Y-63647882D01*
X127388167Y-63718096D01*
X127388840Y-63794727D01*
X127383427Y-63869552D01*
X127372270Y-63934342D01*
X127355714Y-63980873D01*
X127350626Y-63988887D01*
X127290355Y-64048707D01*
X127218769Y-64084535D01*
X127141092Y-64095020D01*
X127062548Y-64078810D01*
X127040689Y-64069092D01*
X126998122Y-64039143D01*
X126960763Y-63999433D01*
X126957232Y-63994397D01*
X126942881Y-63970124D01*
X126933394Y-63944178D01*
X126927790Y-63910022D01*
X126925086Y-63861119D01*
X126924299Y-63790935D01*
X126924286Y-63775200D01*
X126924322Y-63770192D01*
X127069429Y-63770192D01*
X127070273Y-63836430D01*
X127073596Y-63880386D01*
X127080583Y-63908779D01*
X127092416Y-63928325D01*
X127098457Y-63934857D01*
X127133186Y-63959680D01*
X127166903Y-63958548D01*
X127200995Y-63937016D01*
X127221329Y-63914029D01*
X127233371Y-63880478D01*
X127240134Y-63827569D01*
X127240598Y-63821399D01*
X127241752Y-63725513D01*
X127229688Y-63654299D01*
X127204570Y-63608194D01*
X127166560Y-63587635D01*
X127152992Y-63586514D01*
X127117364Y-63592152D01*
X127092994Y-63611686D01*
X127078093Y-63649042D01*
X127070875Y-63708150D01*
X127069429Y-63770192D01*
X126924322Y-63770192D01*
X126924826Y-63700413D01*
X126927096Y-63648159D01*
X126932068Y-63611949D01*
X126940713Y-63585299D01*
X126954005Y-63561722D01*
X126956943Y-63557338D01*
X127006313Y-63498249D01*
X127060109Y-63463947D01*
X127125602Y-63450331D01*
X127147842Y-63449665D01*
X127231115Y-63461962D01*
G36*
X128358303Y-63471239D02*
G01*
X128415527Y-63509735D01*
X128459749Y-63565335D01*
X128486167Y-63636086D01*
X128491510Y-63688162D01*
X128490903Y-63709893D01*
X128485822Y-63726531D01*
X128471855Y-63741437D01*
X128444589Y-63757973D01*
X128399612Y-63779498D01*
X128332511Y-63809374D01*
X128332171Y-63809524D01*
X128270407Y-63837813D01*
X128219759Y-63862933D01*
X128185404Y-63882179D01*
X128172518Y-63892848D01*
X128172514Y-63892934D01*
X128183872Y-63916166D01*
X128210431Y-63941774D01*
X128240923Y-63960221D01*
X128256370Y-63963886D01*
X128298515Y-63951212D01*
X128334808Y-63919471D01*
X128352517Y-63884572D01*
X128369552Y-63858845D01*
X128402922Y-63829546D01*
X128442149Y-63804235D01*
X128476756Y-63790471D01*
X128483993Y-63789714D01*
X128492139Y-63802160D01*
X128492630Y-63833972D01*
X128486643Y-63876866D01*
X128475357Y-63922558D01*
X128459950Y-63962761D01*
X128459171Y-63964322D01*
X128412804Y-64029062D01*
X128352711Y-64073097D01*
X128284465Y-64094711D01*
X128213638Y-64092185D01*
X128145804Y-64063804D01*
X128142788Y-64061808D01*
X128089427Y-64013448D01*
X128054340Y-63950352D01*
X128034922Y-63867387D01*
X128032316Y-63844078D01*
X128027701Y-63734055D01*
X128033233Y-63682748D01*
X128172514Y-63682748D01*
X128174324Y-63714753D01*
X128184222Y-63724093D01*
X128208898Y-63717105D01*
X128247795Y-63700587D01*
X128291275Y-63679881D01*
X128292356Y-63679333D01*
X128329209Y-63659949D01*
X128344000Y-63647013D01*
X128340353Y-63633451D01*
X128324995Y-63615632D01*
X128285923Y-63589845D01*
X128243846Y-63587950D01*
X128206103Y-63606717D01*
X128180034Y-63642915D01*
X128172514Y-63682748D01*
X128033233Y-63682748D01*
X128037194Y-63646027D01*
X128061550Y-63576212D01*
X128095456Y-63527302D01*
X128156653Y-63477878D01*
X128224063Y-63453359D01*
X128292880Y-63451797D01*
X128358303Y-63471239D01*
G37*
X128358303Y-63471239D02*
X128415527Y-63509735D01*
X128459749Y-63565335D01*
X128486167Y-63636086D01*
X128491510Y-63688162D01*
X128490903Y-63709893D01*
X128485822Y-63726531D01*
X128471855Y-63741437D01*
X128444589Y-63757973D01*
X128399612Y-63779498D01*
X128332511Y-63809374D01*
X128332171Y-63809524D01*
X128270407Y-63837813D01*
X128219759Y-63862933D01*
X128185404Y-63882179D01*
X128172518Y-63892848D01*
X128172514Y-63892934D01*
X128183872Y-63916166D01*
X128210431Y-63941774D01*
X128240923Y-63960221D01*
X128256370Y-63963886D01*
X128298515Y-63951212D01*
X128334808Y-63919471D01*
X128352517Y-63884572D01*
X128369552Y-63858845D01*
X128402922Y-63829546D01*
X128442149Y-63804235D01*
X128476756Y-63790471D01*
X128483993Y-63789714D01*
X128492139Y-63802160D01*
X128492630Y-63833972D01*
X128486643Y-63876866D01*
X128475357Y-63922558D01*
X128459950Y-63962761D01*
X128459171Y-63964322D01*
X128412804Y-64029062D01*
X128352711Y-64073097D01*
X128284465Y-64094711D01*
X128213638Y-64092185D01*
X128145804Y-64063804D01*
X128142788Y-64061808D01*
X128089427Y-64013448D01*
X128054340Y-63950352D01*
X128034922Y-63867387D01*
X128032316Y-63844078D01*
X128027701Y-63734055D01*
X128033233Y-63682748D01*
X128172514Y-63682748D01*
X128174324Y-63714753D01*
X128184222Y-63724093D01*
X128208898Y-63717105D01*
X128247795Y-63700587D01*
X128291275Y-63679881D01*
X128292356Y-63679333D01*
X128329209Y-63659949D01*
X128344000Y-63647013D01*
X128340353Y-63633451D01*
X128324995Y-63615632D01*
X128285923Y-63589845D01*
X128243846Y-63587950D01*
X128206103Y-63606717D01*
X128180034Y-63642915D01*
X128172514Y-63682748D01*
X128033233Y-63682748D01*
X128037194Y-63646027D01*
X128061550Y-63576212D01*
X128095456Y-63527302D01*
X128156653Y-63477878D01*
X128224063Y-63453359D01*
X128292880Y-63451797D01*
X128358303Y-63471239D01*
G36*
X129565886Y-63391289D02*
G01*
X129570139Y-63450613D01*
X129575025Y-63485572D01*
X129581795Y-63500820D01*
X129591702Y-63501015D01*
X129594914Y-63499195D01*
X129637644Y-63486015D01*
X129693227Y-63486785D01*
X129749737Y-63500333D01*
X129785082Y-63517861D01*
X129821321Y-63545861D01*
X129847813Y-63577549D01*
X129865999Y-63617813D01*
X129877322Y-63671543D01*
X129883222Y-63743626D01*
X129885143Y-63838951D01*
X129885177Y-63857237D01*
X129885200Y-64062646D01*
X129839491Y-64078580D01*
X129807027Y-64089420D01*
X129789215Y-64094468D01*
X129788691Y-64094514D01*
X129786937Y-64080828D01*
X129785444Y-64043076D01*
X129784326Y-63986224D01*
X129783697Y-63915234D01*
X129783600Y-63872073D01*
X129783398Y-63786973D01*
X129782358Y-63725981D01*
X129779831Y-63684177D01*
X129775164Y-63656642D01*
X129767707Y-63638456D01*
X129756811Y-63624698D01*
X129750007Y-63618073D01*
X129703272Y-63591375D01*
X129652272Y-63589375D01*
X129606001Y-63611955D01*
X129597444Y-63620107D01*
X129584893Y-63635436D01*
X129576188Y-63653618D01*
X129570631Y-63679909D01*
X129567526Y-63719562D01*
X129566176Y-63777832D01*
X129565886Y-63858173D01*
X129565886Y-64062646D01*
X129520177Y-64078580D01*
X129487713Y-64089420D01*
X129469901Y-64094468D01*
X129469377Y-64094514D01*
X129468037Y-64080623D01*
X129466828Y-64041439D01*
X129465801Y-63980700D01*
X129465002Y-63902141D01*
X129464481Y-63809498D01*
X129464286Y-63706509D01*
X129464286Y-63309342D01*
X129511457Y-63289444D01*
X129558629Y-63269547D01*
X129565886Y-63391289D01*
G37*
X129565886Y-63391289D02*
X129570139Y-63450613D01*
X129575025Y-63485572D01*
X129581795Y-63500820D01*
X129591702Y-63501015D01*
X129594914Y-63499195D01*
X129637644Y-63486015D01*
X129693227Y-63486785D01*
X129749737Y-63500333D01*
X129785082Y-63517861D01*
X129821321Y-63545861D01*
X129847813Y-63577549D01*
X129865999Y-63617813D01*
X129877322Y-63671543D01*
X129883222Y-63743626D01*
X129885143Y-63838951D01*
X129885177Y-63857237D01*
X129885200Y-64062646D01*
X129839491Y-64078580D01*
X129807027Y-64089420D01*
X129789215Y-64094468D01*
X129788691Y-64094514D01*
X129786937Y-64080828D01*
X129785444Y-64043076D01*
X129784326Y-63986224D01*
X129783697Y-63915234D01*
X129783600Y-63872073D01*
X129783398Y-63786973D01*
X129782358Y-63725981D01*
X129779831Y-63684177D01*
X129775164Y-63656642D01*
X129767707Y-63638456D01*
X129756811Y-63624698D01*
X129750007Y-63618073D01*
X129703272Y-63591375D01*
X129652272Y-63589375D01*
X129606001Y-63611955D01*
X129597444Y-63620107D01*
X129584893Y-63635436D01*
X129576188Y-63653618D01*
X129570631Y-63679909D01*
X129567526Y-63719562D01*
X129566176Y-63777832D01*
X129565886Y-63858173D01*
X129565886Y-64062646D01*
X129520177Y-64078580D01*
X129487713Y-64089420D01*
X129469901Y-64094468D01*
X129469377Y-64094514D01*
X129468037Y-64080623D01*
X129466828Y-64041439D01*
X129465801Y-63980700D01*
X129465002Y-63902141D01*
X129464481Y-63809498D01*
X129464286Y-63706509D01*
X129464286Y-63309342D01*
X129511457Y-63289444D01*
X129558629Y-63269547D01*
X129565886Y-63391289D01*
G36*
X130229744Y-63490968D02*
G01*
X130286616Y-63512087D01*
X130287267Y-63512493D01*
X130322440Y-63538380D01*
X130348407Y-63568633D01*
X130366670Y-63608058D01*
X130378732Y-63661462D01*
X130386096Y-63733651D01*
X130390264Y-63829432D01*
X130390629Y-63843078D01*
X130395876Y-64048842D01*
X130351716Y-64071678D01*
X130319763Y-64087110D01*
X130300470Y-64094423D01*
X130299578Y-64094514D01*
X130296239Y-64081022D01*
X130293587Y-64044626D01*
X130291956Y-63991452D01*
X130291600Y-63948393D01*
X130291592Y-63878641D01*
X130288403Y-63834837D01*
X130277288Y-63813944D01*
X130253501Y-63812925D01*
X130212296Y-63828741D01*
X130150086Y-63857815D01*
X130104341Y-63881963D01*
X130080813Y-63902913D01*
X130073896Y-63925747D01*
X130073886Y-63926877D01*
X130085299Y-63966212D01*
X130119092Y-63987462D01*
X130170809Y-63990539D01*
X130208061Y-63990006D01*
X130227703Y-64000735D01*
X130239952Y-64026505D01*
X130247002Y-64059337D01*
X130236842Y-64077966D01*
X130233017Y-64080632D01*
X130197001Y-64091340D01*
X130146566Y-64092856D01*
X130094626Y-64085759D01*
X130057822Y-64072788D01*
X130006938Y-64029585D01*
X129978014Y-63969446D01*
X129972286Y-63922462D01*
X129976657Y-63880082D01*
X129992475Y-63845488D01*
X130023797Y-63814763D01*
X130074678Y-63783990D01*
X130149176Y-63749252D01*
X130153714Y-63747288D01*
X130220821Y-63716287D01*
X130262232Y-63690862D01*
X130279981Y-63668014D01*
X130276107Y-63644745D01*
X130252643Y-63618056D01*
X130245627Y-63611914D01*
X130198630Y-63588100D01*
X130149933Y-63589103D01*
X130107522Y-63612451D01*
X130079384Y-63655675D01*
X130076769Y-63664160D01*
X130051308Y-63705308D01*
X130019001Y-63725128D01*
X129972286Y-63744770D01*
X129972286Y-63693950D01*
X129986496Y-63620082D01*
X130028675Y-63552327D01*
X130050624Y-63529661D01*
X130100517Y-63500569D01*
X130163967Y-63487400D01*
X130229744Y-63490968D01*
G37*
X130229744Y-63490968D02*
X130286616Y-63512087D01*
X130287267Y-63512493D01*
X130322440Y-63538380D01*
X130348407Y-63568633D01*
X130366670Y-63608058D01*
X130378732Y-63661462D01*
X130386096Y-63733651D01*
X130390264Y-63829432D01*
X130390629Y-63843078D01*
X130395876Y-64048842D01*
X130351716Y-64071678D01*
X130319763Y-64087110D01*
X130300470Y-64094423D01*
X130299578Y-64094514D01*
X130296239Y-64081022D01*
X130293587Y-64044626D01*
X130291956Y-63991452D01*
X130291600Y-63948393D01*
X130291592Y-63878641D01*
X130288403Y-63834837D01*
X130277288Y-63813944D01*
X130253501Y-63812925D01*
X130212296Y-63828741D01*
X130150086Y-63857815D01*
X130104341Y-63881963D01*
X130080813Y-63902913D01*
X130073896Y-63925747D01*
X130073886Y-63926877D01*
X130085299Y-63966212D01*
X130119092Y-63987462D01*
X130170809Y-63990539D01*
X130208061Y-63990006D01*
X130227703Y-64000735D01*
X130239952Y-64026505D01*
X130247002Y-64059337D01*
X130236842Y-64077966D01*
X130233017Y-64080632D01*
X130197001Y-64091340D01*
X130146566Y-64092856D01*
X130094626Y-64085759D01*
X130057822Y-64072788D01*
X130006938Y-64029585D01*
X129978014Y-63969446D01*
X129972286Y-63922462D01*
X129976657Y-63880082D01*
X129992475Y-63845488D01*
X130023797Y-63814763D01*
X130074678Y-63783990D01*
X130149176Y-63749252D01*
X130153714Y-63747288D01*
X130220821Y-63716287D01*
X130262232Y-63690862D01*
X130279981Y-63668014D01*
X130276107Y-63644745D01*
X130252643Y-63618056D01*
X130245627Y-63611914D01*
X130198630Y-63588100D01*
X130149933Y-63589103D01*
X130107522Y-63612451D01*
X130079384Y-63655675D01*
X130076769Y-63664160D01*
X130051308Y-63705308D01*
X130019001Y-63725128D01*
X129972286Y-63744770D01*
X129972286Y-63693950D01*
X129986496Y-63620082D01*
X130028675Y-63552327D01*
X130050624Y-63529661D01*
X130100517Y-63500569D01*
X130163967Y-63487400D01*
X130229744Y-63490968D01*
G36*
X130719926Y-63489755D02*
G01*
X130785858Y-63514084D01*
X130839273Y-63557117D01*
X130860164Y-63587409D01*
X130882939Y-63642994D01*
X130882466Y-63683186D01*
X130858562Y-63710217D01*
X130849717Y-63714813D01*
X130811530Y-63729144D01*
X130792028Y-63725472D01*
X130785422Y-63701407D01*
X130785086Y-63688114D01*
X130772992Y-63639210D01*
X130741471Y-63604999D01*
X130697659Y-63588476D01*
X130648695Y-63592634D01*
X130608894Y-63614227D01*
X130595450Y-63626544D01*
X130585921Y-63641487D01*
X130579485Y-63664075D01*
X130575317Y-63699328D01*
X130572597Y-63752266D01*
X130570502Y-63827907D01*
X130569960Y-63851857D01*
X130567981Y-63933790D01*
X130565731Y-63991455D01*
X130562357Y-64029608D01*
X130557006Y-64053004D01*
X130548824Y-64066398D01*
X130536959Y-64074545D01*
X130529362Y-64078144D01*
X130497102Y-64090452D01*
X130478111Y-64094514D01*
X130471836Y-64080948D01*
X130468006Y-64039934D01*
X130466600Y-63970999D01*
X130467598Y-63873669D01*
X130467908Y-63858657D01*
X130470101Y-63769859D01*
X130472693Y-63705019D01*
X130476382Y-63659067D01*
X130481864Y-63626935D01*
X130489835Y-63603553D01*
X130500993Y-63583852D01*
X130506830Y-63575410D01*
X130540296Y-63538057D01*
X130577727Y-63509003D01*
X130582309Y-63506467D01*
X130649426Y-63486443D01*
X130719926Y-63489755D01*
G37*
X130719926Y-63489755D02*
X130785858Y-63514084D01*
X130839273Y-63557117D01*
X130860164Y-63587409D01*
X130882939Y-63642994D01*
X130882466Y-63683186D01*
X130858562Y-63710217D01*
X130849717Y-63714813D01*
X130811530Y-63729144D01*
X130792028Y-63725472D01*
X130785422Y-63701407D01*
X130785086Y-63688114D01*
X130772992Y-63639210D01*
X130741471Y-63604999D01*
X130697659Y-63588476D01*
X130648695Y-63592634D01*
X130608894Y-63614227D01*
X130595450Y-63626544D01*
X130585921Y-63641487D01*
X130579485Y-63664075D01*
X130575317Y-63699328D01*
X130572597Y-63752266D01*
X130570502Y-63827907D01*
X130569960Y-63851857D01*
X130567981Y-63933790D01*
X130565731Y-63991455D01*
X130562357Y-64029608D01*
X130557006Y-64053004D01*
X130548824Y-64066398D01*
X130536959Y-64074545D01*
X130529362Y-64078144D01*
X130497102Y-64090452D01*
X130478111Y-64094514D01*
X130471836Y-64080948D01*
X130468006Y-64039934D01*
X130466600Y-63970999D01*
X130467598Y-63873669D01*
X130467908Y-63858657D01*
X130470101Y-63769859D01*
X130472693Y-63705019D01*
X130476382Y-63659067D01*
X130481864Y-63626935D01*
X130489835Y-63603553D01*
X130500993Y-63583852D01*
X130506830Y-63575410D01*
X130540296Y-63538057D01*
X130577727Y-63509003D01*
X130582309Y-63506467D01*
X130649426Y-63486443D01*
X130719926Y-63489755D01*
G36*
X131380117Y-63605358D02*
G01*
X131379933Y-63713837D01*
X131379219Y-63797287D01*
X131377675Y-63859704D01*
X131375001Y-63905085D01*
X131370894Y-63937429D01*
X131365055Y-63960733D01*
X131357182Y-63978995D01*
X131351221Y-63989418D01*
X131301855Y-64045945D01*
X131239264Y-64081377D01*
X131170013Y-64094090D01*
X131100668Y-64082463D01*
X131059375Y-64061568D01*
X131016025Y-64025422D01*
X130986481Y-63981276D01*
X130968655Y-63923462D01*
X130960463Y-63846313D01*
X130959302Y-63789714D01*
X130959458Y-63785647D01*
X131060857Y-63785647D01*
X131061476Y-63850550D01*
X131064314Y-63893514D01*
X131070840Y-63921622D01*
X131082523Y-63941953D01*
X131096483Y-63957288D01*
X131143365Y-63986890D01*
X131193701Y-63989419D01*
X131241276Y-63964705D01*
X131244979Y-63961356D01*
X131260783Y-63943935D01*
X131270693Y-63923209D01*
X131276058Y-63892362D01*
X131278228Y-63844577D01*
X131278571Y-63791748D01*
X131277827Y-63725381D01*
X131274748Y-63681106D01*
X131268061Y-63652009D01*
X131256496Y-63631173D01*
X131247013Y-63620107D01*
X131202960Y-63592198D01*
X131152224Y-63588843D01*
X131103796Y-63610159D01*
X131094450Y-63618073D01*
X131078540Y-63635647D01*
X131068610Y-63656587D01*
X131063278Y-63687782D01*
X131061163Y-63736122D01*
X131060857Y-63785647D01*
X130959458Y-63785647D01*
X130962810Y-63698568D01*
X130974726Y-63630086D01*
X130997135Y-63578600D01*
X131032124Y-63538443D01*
X131059375Y-63517861D01*
X131108907Y-63495625D01*
X131166316Y-63485304D01*
X131219682Y-63488067D01*
X131249543Y-63499212D01*
X131261261Y-63502383D01*
X131269037Y-63490557D01*
X131274465Y-63458866D01*
X131278571Y-63410593D01*
X131283067Y-63356829D01*
X131289313Y-63324482D01*
X131300676Y-63305985D01*
X131320528Y-63293770D01*
X131333000Y-63288362D01*
X131380171Y-63268601D01*
X131380117Y-63605358D01*
G37*
X131380117Y-63605358D02*
X131379933Y-63713837D01*
X131379219Y-63797287D01*
X131377675Y-63859704D01*
X131375001Y-63905085D01*
X131370894Y-63937429D01*
X131365055Y-63960733D01*
X131357182Y-63978995D01*
X131351221Y-63989418D01*
X131301855Y-64045945D01*
X131239264Y-64081377D01*
X131170013Y-64094090D01*
X131100668Y-64082463D01*
X131059375Y-64061568D01*
X131016025Y-64025422D01*
X130986481Y-63981276D01*
X130968655Y-63923462D01*
X130960463Y-63846313D01*
X130959302Y-63789714D01*
X130959458Y-63785647D01*
X131060857Y-63785647D01*
X131061476Y-63850550D01*
X131064314Y-63893514D01*
X131070840Y-63921622D01*
X131082523Y-63941953D01*
X131096483Y-63957288D01*
X131143365Y-63986890D01*
X131193701Y-63989419D01*
X131241276Y-63964705D01*
X131244979Y-63961356D01*
X131260783Y-63943935D01*
X131270693Y-63923209D01*
X131276058Y-63892362D01*
X131278228Y-63844577D01*
X131278571Y-63791748D01*
X131277827Y-63725381D01*
X131274748Y-63681106D01*
X131268061Y-63652009D01*
X131256496Y-63631173D01*
X131247013Y-63620107D01*
X131202960Y-63592198D01*
X131152224Y-63588843D01*
X131103796Y-63610159D01*
X131094450Y-63618073D01*
X131078540Y-63635647D01*
X131068610Y-63656587D01*
X131063278Y-63687782D01*
X131061163Y-63736122D01*
X131060857Y-63785647D01*
X130959458Y-63785647D01*
X130962810Y-63698568D01*
X130974726Y-63630086D01*
X130997135Y-63578600D01*
X131032124Y-63538443D01*
X131059375Y-63517861D01*
X131108907Y-63495625D01*
X131166316Y-63485304D01*
X131219682Y-63488067D01*
X131249543Y-63499212D01*
X131261261Y-63502383D01*
X131269037Y-63490557D01*
X131274465Y-63458866D01*
X131278571Y-63410593D01*
X131283067Y-63356829D01*
X131289313Y-63324482D01*
X131300676Y-63305985D01*
X131320528Y-63293770D01*
X131333000Y-63288362D01*
X131380171Y-63268601D01*
X131380117Y-63605358D01*
G36*
X131969833Y-63498663D02*
G01*
X131972048Y-63536850D01*
X131973784Y-63594886D01*
X131974899Y-63668180D01*
X131975257Y-63745055D01*
X131975257Y-64005196D01*
X131929326Y-64051127D01*
X131897675Y-64079429D01*
X131869890Y-64090893D01*
X131831915Y-64090168D01*
X131816840Y-64088321D01*
X131769726Y-64082948D01*
X131730756Y-64079869D01*
X131721257Y-64079585D01*
X131689233Y-64081445D01*
X131643432Y-64086114D01*
X131625674Y-64088321D01*
X131582057Y-64091735D01*
X131552745Y-64084320D01*
X131523680Y-64061427D01*
X131513188Y-64051127D01*
X131467257Y-64005196D01*
X131467257Y-63518602D01*
X131504226Y-63501758D01*
X131536059Y-63489282D01*
X131554683Y-63484914D01*
X131559458Y-63498718D01*
X131563921Y-63537286D01*
X131567775Y-63596356D01*
X131570722Y-63671663D01*
X131572143Y-63735286D01*
X131576114Y-63985657D01*
X131610759Y-63990556D01*
X131642268Y-63987131D01*
X131657708Y-63976041D01*
X131662023Y-63955308D01*
X131665708Y-63911145D01*
X131668469Y-63849146D01*
X131670012Y-63774909D01*
X131670235Y-63736706D01*
X131670457Y-63516783D01*
X131716166Y-63500849D01*
X131748518Y-63490015D01*
X131766115Y-63484962D01*
X131766623Y-63484914D01*
X131768388Y-63498648D01*
X131770329Y-63536730D01*
X131772282Y-63594482D01*
X131774084Y-63667227D01*
X131775343Y-63735286D01*
X131779314Y-63985657D01*
X131866400Y-63985657D01*
X131870396Y-63757240D01*
X131874392Y-63528822D01*
X131916847Y-63506868D01*
X131948192Y-63491793D01*
X131966744Y-63484951D01*
X131967279Y-63484914D01*
X131969833Y-63498663D01*
G37*
X131969833Y-63498663D02*
X131972048Y-63536850D01*
X131973784Y-63594886D01*
X131974899Y-63668180D01*
X131975257Y-63745055D01*
X131975257Y-64005196D01*
X131929326Y-64051127D01*
X131897675Y-64079429D01*
X131869890Y-64090893D01*
X131831915Y-64090168D01*
X131816840Y-64088321D01*
X131769726Y-64082948D01*
X131730756Y-64079869D01*
X131721257Y-64079585D01*
X131689233Y-64081445D01*
X131643432Y-64086114D01*
X131625674Y-64088321D01*
X131582057Y-64091735D01*
X131552745Y-64084320D01*
X131523680Y-64061427D01*
X131513188Y-64051127D01*
X131467257Y-64005196D01*
X131467257Y-63518602D01*
X131504226Y-63501758D01*
X131536059Y-63489282D01*
X131554683Y-63484914D01*
X131559458Y-63498718D01*
X131563921Y-63537286D01*
X131567775Y-63596356D01*
X131570722Y-63671663D01*
X131572143Y-63735286D01*
X131576114Y-63985657D01*
X131610759Y-63990556D01*
X131642268Y-63987131D01*
X131657708Y-63976041D01*
X131662023Y-63955308D01*
X131665708Y-63911145D01*
X131668469Y-63849146D01*
X131670012Y-63774909D01*
X131670235Y-63736706D01*
X131670457Y-63516783D01*
X131716166Y-63500849D01*
X131748518Y-63490015D01*
X131766115Y-63484962D01*
X131766623Y-63484914D01*
X131768388Y-63498648D01*
X131770329Y-63536730D01*
X131772282Y-63594482D01*
X131774084Y-63667227D01*
X131775343Y-63735286D01*
X131779314Y-63985657D01*
X131866400Y-63985657D01*
X131870396Y-63757240D01*
X131874392Y-63528822D01*
X131916847Y-63506868D01*
X131948192Y-63491793D01*
X131966744Y-63484951D01*
X131967279Y-63484914D01*
X131969833Y-63498663D01*
G36*
X132334876Y-63496335D02*
G01*
X132376667Y-63515344D01*
X132409469Y-63538378D01*
X132433503Y-63564133D01*
X132450097Y-63597358D01*
X132460577Y-63642800D01*
X132466271Y-63705207D01*
X132468507Y-63789327D01*
X132468743Y-63844721D01*
X132468743Y-64060826D01*
X132431774Y-64077670D01*
X132402656Y-64089981D01*
X132388231Y-64094514D01*
X132385472Y-64081025D01*
X132383282Y-64044653D01*
X132381942Y-63991542D01*
X132381657Y-63949372D01*
X132380434Y-63888447D01*
X132377136Y-63840115D01*
X132372321Y-63810518D01*
X132368496Y-63804229D01*
X132342783Y-63810652D01*
X132302418Y-63827125D01*
X132255679Y-63849458D01*
X132210845Y-63873457D01*
X132176193Y-63894930D01*
X132160002Y-63909685D01*
X132159938Y-63909845D01*
X132161330Y-63937152D01*
X132173818Y-63963219D01*
X132195743Y-63984392D01*
X132227743Y-63991474D01*
X132255092Y-63990649D01*
X132293826Y-63990042D01*
X132314158Y-63999116D01*
X132326369Y-64023092D01*
X132327909Y-64027613D01*
X132333203Y-64061806D01*
X132319047Y-64082568D01*
X132282148Y-64092462D01*
X132242289Y-64094292D01*
X132170562Y-64080727D01*
X132133432Y-64061355D01*
X132087576Y-64015845D01*
X132063256Y-63959983D01*
X132061073Y-63900957D01*
X132081629Y-63845953D01*
X132112549Y-63811486D01*
X132143420Y-63792189D01*
X132191942Y-63767759D01*
X132248485Y-63742985D01*
X132257910Y-63739199D01*
X132320019Y-63711791D01*
X132355822Y-63687634D01*
X132367337Y-63663619D01*
X132356580Y-63636635D01*
X132338114Y-63615543D01*
X132294469Y-63589572D01*
X132246446Y-63587624D01*
X132202406Y-63607637D01*
X132170709Y-63647551D01*
X132166549Y-63657848D01*
X132142327Y-63695724D01*
X132106965Y-63723842D01*
X132062343Y-63746917D01*
X132062343Y-63681485D01*
X132064969Y-63641506D01*
X132076230Y-63609997D01*
X132101199Y-63576378D01*
X132125169Y-63550484D01*
X132162441Y-63513817D01*
X132191401Y-63494121D01*
X132222505Y-63486220D01*
X132257713Y-63484914D01*
X132334876Y-63496335D01*
G37*
X132334876Y-63496335D02*
X132376667Y-63515344D01*
X132409469Y-63538378D01*
X132433503Y-63564133D01*
X132450097Y-63597358D01*
X132460577Y-63642800D01*
X132466271Y-63705207D01*
X132468507Y-63789327D01*
X132468743Y-63844721D01*
X132468743Y-64060826D01*
X132431774Y-64077670D01*
X132402656Y-64089981D01*
X132388231Y-64094514D01*
X132385472Y-64081025D01*
X132383282Y-64044653D01*
X132381942Y-63991542D01*
X132381657Y-63949372D01*
X132380434Y-63888447D01*
X132377136Y-63840115D01*
X132372321Y-63810518D01*
X132368496Y-63804229D01*
X132342783Y-63810652D01*
X132302418Y-63827125D01*
X132255679Y-63849458D01*
X132210845Y-63873457D01*
X132176193Y-63894930D01*
X132160002Y-63909685D01*
X132159938Y-63909845D01*
X132161330Y-63937152D01*
X132173818Y-63963219D01*
X132195743Y-63984392D01*
X132227743Y-63991474D01*
X132255092Y-63990649D01*
X132293826Y-63990042D01*
X132314158Y-63999116D01*
X132326369Y-64023092D01*
X132327909Y-64027613D01*
X132333203Y-64061806D01*
X132319047Y-64082568D01*
X132282148Y-64092462D01*
X132242289Y-64094292D01*
X132170562Y-64080727D01*
X132133432Y-64061355D01*
X132087576Y-64015845D01*
X132063256Y-63959983D01*
X132061073Y-63900957D01*
X132081629Y-63845953D01*
X132112549Y-63811486D01*
X132143420Y-63792189D01*
X132191942Y-63767759D01*
X132248485Y-63742985D01*
X132257910Y-63739199D01*
X132320019Y-63711791D01*
X132355822Y-63687634D01*
X132367337Y-63663619D01*
X132356580Y-63636635D01*
X132338114Y-63615543D01*
X132294469Y-63589572D01*
X132246446Y-63587624D01*
X132202406Y-63607637D01*
X132170709Y-63647551D01*
X132166549Y-63657848D01*
X132142327Y-63695724D01*
X132106965Y-63723842D01*
X132062343Y-63746917D01*
X132062343Y-63681485D01*
X132064969Y-63641506D01*
X132076230Y-63609997D01*
X132101199Y-63576378D01*
X132125169Y-63550484D01*
X132162441Y-63513817D01*
X132191401Y-63494121D01*
X132222505Y-63486220D01*
X132257713Y-63484914D01*
X132334876Y-63496335D01*
G36*
X132842600Y-63498752D02*
G01*
X132859948Y-63506334D01*
X132901356Y-63539128D01*
X132936765Y-63586547D01*
X132958664Y-63637151D01*
X132962229Y-63662098D01*
X132950279Y-63696927D01*
X132924067Y-63715357D01*
X132895964Y-63726516D01*
X132883095Y-63728572D01*
X132876829Y-63713649D01*
X132864456Y-63681175D01*
X132859028Y-63666502D01*
X132828590Y-63615744D01*
X132784520Y-63590427D01*
X132728010Y-63591206D01*
X132723825Y-63592203D01*
X132693655Y-63606507D01*
X132671476Y-63634393D01*
X132656327Y-63679287D01*
X132647250Y-63744615D01*
X132643286Y-63833804D01*
X132642914Y-63881261D01*
X132642730Y-63956071D01*
X132641522Y-64007069D01*
X132638309Y-64039471D01*
X132632109Y-64058495D01*
X132621940Y-64069356D01*
X132606819Y-64077272D01*
X132605946Y-64077670D01*
X132576828Y-64089981D01*
X132562403Y-64094514D01*
X132560186Y-64080809D01*
X132558289Y-64042925D01*
X132556847Y-63985715D01*
X132555998Y-63914027D01*
X132555829Y-63861565D01*
X132556692Y-63760047D01*
X132560070Y-63683032D01*
X132567142Y-63626023D01*
X132579088Y-63584526D01*
X132597090Y-63554043D01*
X132622327Y-63530080D01*
X132647247Y-63513355D01*
X132707171Y-63491097D01*
X132776911Y-63486076D01*
X132842600Y-63498752D01*
G37*
X132842600Y-63498752D02*
X132859948Y-63506334D01*
X132901356Y-63539128D01*
X132936765Y-63586547D01*
X132958664Y-63637151D01*
X132962229Y-63662098D01*
X132950279Y-63696927D01*
X132924067Y-63715357D01*
X132895964Y-63726516D01*
X132883095Y-63728572D01*
X132876829Y-63713649D01*
X132864456Y-63681175D01*
X132859028Y-63666502D01*
X132828590Y-63615744D01*
X132784520Y-63590427D01*
X132728010Y-63591206D01*
X132723825Y-63592203D01*
X132693655Y-63606507D01*
X132671476Y-63634393D01*
X132656327Y-63679287D01*
X132647250Y-63744615D01*
X132643286Y-63833804D01*
X132642914Y-63881261D01*
X132642730Y-63956071D01*
X132641522Y-64007069D01*
X132638309Y-64039471D01*
X132632109Y-64058495D01*
X132621940Y-64069356D01*
X132606819Y-64077272D01*
X132605946Y-64077670D01*
X132576828Y-64089981D01*
X132562403Y-64094514D01*
X132560186Y-64080809D01*
X132558289Y-64042925D01*
X132556847Y-63985715D01*
X132555998Y-63914027D01*
X132555829Y-63861565D01*
X132556692Y-63760047D01*
X132560070Y-63683032D01*
X132567142Y-63626023D01*
X132579088Y-63584526D01*
X132597090Y-63554043D01*
X132622327Y-63530080D01*
X132647247Y-63513355D01*
X132707171Y-63491097D01*
X132776911Y-63486076D01*
X132842600Y-63498752D01*
G36*
X133343595Y-63506966D02*
G01*
X133401021Y-63544497D01*
X133428719Y-63578096D01*
X133450662Y-63639064D01*
X133452405Y-63687308D01*
X133448457Y-63751816D01*
X133299686Y-63816934D01*
X133227349Y-63850202D01*
X133180084Y-63876964D01*
X133155507Y-63900144D01*
X133151237Y-63922667D01*
X133164889Y-63947455D01*
X133179943Y-63963886D01*
X133223746Y-63990235D01*
X133271389Y-63992081D01*
X133315145Y-63971546D01*
X133347289Y-63930752D01*
X133353038Y-63916347D01*
X133380576Y-63871356D01*
X133412258Y-63852182D01*
X133455714Y-63835779D01*
X133455714Y-63897966D01*
X133451872Y-63940283D01*
X133436823Y-63975969D01*
X133405280Y-64016943D01*
X133400592Y-64022267D01*
X133365506Y-64058720D01*
X133335347Y-64078283D01*
X133297615Y-64087283D01*
X133266335Y-64090230D01*
X133210385Y-64090965D01*
X133170555Y-64081660D01*
X133145708Y-64067846D01*
X133106656Y-64037467D01*
X133079625Y-64004613D01*
X133062517Y-63963294D01*
X133053238Y-63907521D01*
X133049693Y-63831305D01*
X133049410Y-63792622D01*
X133050372Y-63746247D01*
X133138007Y-63746247D01*
X133139023Y-63771126D01*
X133141556Y-63775200D01*
X133158274Y-63769665D01*
X133194249Y-63755017D01*
X133242331Y-63734190D01*
X133252386Y-63729714D01*
X133313152Y-63698814D01*
X133346632Y-63671657D01*
X133353990Y-63646220D01*
X133336391Y-63620481D01*
X133321856Y-63609109D01*
X133269410Y-63586364D01*
X133220322Y-63590122D01*
X133179227Y-63617884D01*
X133150758Y-63667152D01*
X133141631Y-63706257D01*
X133138007Y-63746247D01*
X133050372Y-63746247D01*
X133051285Y-63702249D01*
X133058196Y-63635384D01*
X133071884Y-63586695D01*
X133094096Y-63550849D01*
X133126574Y-63522513D01*
X133140733Y-63513355D01*
X133205053Y-63489507D01*
X133275473Y-63488006D01*
X133343595Y-63506966D01*
G37*
X133343595Y-63506966D02*
X133401021Y-63544497D01*
X133428719Y-63578096D01*
X133450662Y-63639064D01*
X133452405Y-63687308D01*
X133448457Y-63751816D01*
X133299686Y-63816934D01*
X133227349Y-63850202D01*
X133180084Y-63876964D01*
X133155507Y-63900144D01*
X133151237Y-63922667D01*
X133164889Y-63947455D01*
X133179943Y-63963886D01*
X133223746Y-63990235D01*
X133271389Y-63992081D01*
X133315145Y-63971546D01*
X133347289Y-63930752D01*
X133353038Y-63916347D01*
X133380576Y-63871356D01*
X133412258Y-63852182D01*
X133455714Y-63835779D01*
X133455714Y-63897966D01*
X133451872Y-63940283D01*
X133436823Y-63975969D01*
X133405280Y-64016943D01*
X133400592Y-64022267D01*
X133365506Y-64058720D01*
X133335347Y-64078283D01*
X133297615Y-64087283D01*
X133266335Y-64090230D01*
X133210385Y-64090965D01*
X133170555Y-64081660D01*
X133145708Y-64067846D01*
X133106656Y-64037467D01*
X133079625Y-64004613D01*
X133062517Y-63963294D01*
X133053238Y-63907521D01*
X133049693Y-63831305D01*
X133049410Y-63792622D01*
X133050372Y-63746247D01*
X133138007Y-63746247D01*
X133139023Y-63771126D01*
X133141556Y-63775200D01*
X133158274Y-63769665D01*
X133194249Y-63755017D01*
X133242331Y-63734190D01*
X133252386Y-63729714D01*
X133313152Y-63698814D01*
X133346632Y-63671657D01*
X133353990Y-63646220D01*
X133336391Y-63620481D01*
X133321856Y-63609109D01*
X133269410Y-63586364D01*
X133220322Y-63590122D01*
X133179227Y-63617884D01*
X133150758Y-63667152D01*
X133141631Y-63706257D01*
X133138007Y-63746247D01*
X133050372Y-63746247D01*
X133051285Y-63702249D01*
X133058196Y-63635384D01*
X133071884Y-63586695D01*
X133094096Y-63550849D01*
X133126574Y-63522513D01*
X133140733Y-63513355D01*
X133205053Y-63489507D01*
X133275473Y-63488006D01*
X133343595Y-63506966D01*
G36*
X130293910Y-58782348D02*
G01*
X130372454Y-58782778D01*
X130429298Y-58783942D01*
X130468105Y-58786207D01*
X130492538Y-58789940D01*
X130506262Y-58795506D01*
X130512940Y-58803273D01*
X130516236Y-58813605D01*
X130516556Y-58814943D01*
X130521562Y-58839079D01*
X130530829Y-58886701D01*
X130543392Y-58952741D01*
X130558287Y-59032128D01*
X130574551Y-59119796D01*
X130575119Y-59122875D01*
X130591410Y-59208789D01*
X130606652Y-59284696D01*
X130619861Y-59346045D01*
X130630054Y-59388282D01*
X130636248Y-59406855D01*
X130636543Y-59407184D01*
X130654788Y-59416253D01*
X130692405Y-59431367D01*
X130741271Y-59449262D01*
X130741543Y-59449358D01*
X130803093Y-59472493D01*
X130875657Y-59501965D01*
X130944057Y-59531597D01*
X130947294Y-59533062D01*
X131058702Y-59583626D01*
X131305399Y-59415160D01*
X131381077Y-59363803D01*
X131449631Y-59317889D01*
X131507088Y-59280030D01*
X131549476Y-59252837D01*
X131572825Y-59238921D01*
X131575042Y-59237889D01*
X131592010Y-59242484D01*
X131623701Y-59264655D01*
X131671352Y-59305447D01*
X131736198Y-59365905D01*
X131802397Y-59430227D01*
X131866214Y-59493612D01*
X131923329Y-59551451D01*
X131970305Y-59600175D01*
X132003703Y-59636210D01*
X132020085Y-59655984D01*
X132020694Y-59657002D01*
X132022505Y-59670572D01*
X132015683Y-59692733D01*
X131998540Y-59726478D01*
X131969393Y-59774800D01*
X131926555Y-59840692D01*
X131869448Y-59925517D01*
X131818766Y-60000177D01*
X131773461Y-60067140D01*
X131736150Y-60122516D01*
X131709452Y-60162420D01*
X131695985Y-60182962D01*
X131695137Y-60184356D01*
X131696781Y-60204038D01*
X131709245Y-60242293D01*
X131730048Y-60291889D01*
X131737462Y-60307728D01*
X131769814Y-60378290D01*
X131804328Y-60458353D01*
X131832365Y-60527629D01*
X131852568Y-60579045D01*
X131868615Y-60618119D01*
X131877888Y-60638541D01*
X131879041Y-60640114D01*
X131896096Y-60642721D01*
X131936298Y-60649863D01*
X131994302Y-60660523D01*
X132064763Y-60673685D01*
X132142335Y-60688333D01*
X132221672Y-60703449D01*
X132297431Y-60718018D01*
X132364264Y-60731022D01*
X132416828Y-60741445D01*
X132449776Y-60748270D01*
X132457857Y-60750199D01*
X132466205Y-60754962D01*
X132472506Y-60765718D01*
X132477045Y-60786098D01*
X132480104Y-60819734D01*
X132481967Y-60870255D01*
X132482918Y-60941292D01*
X132483240Y-61036476D01*
X132483257Y-61075492D01*
X132483257Y-61392799D01*
X132407057Y-61407839D01*
X132364663Y-61415995D01*
X132301400Y-61427899D01*
X132224962Y-61442116D01*
X132143043Y-61457210D01*
X132120400Y-61461355D01*
X132044806Y-61476053D01*
X131978953Y-61490505D01*
X131928366Y-61503375D01*
X131898574Y-61513322D01*
X131893612Y-61516287D01*
X131881426Y-61537283D01*
X131863953Y-61577967D01*
X131844577Y-61630322D01*
X131840734Y-61641600D01*
X131815339Y-61711523D01*
X131783817Y-61790418D01*
X131752969Y-61861266D01*
X131752817Y-61861595D01*
X131701447Y-61972733D01*
X131870399Y-62221253D01*
X132039352Y-62469772D01*
X131822429Y-62687058D01*
X131756819Y-62751726D01*
X131696979Y-62808733D01*
X131646267Y-62855033D01*
X131608046Y-62887584D01*
X131585675Y-62903343D01*
X131582466Y-62904343D01*
X131563626Y-62896469D01*
X131525180Y-62874578D01*
X131471330Y-62841267D01*
X131406276Y-62799131D01*
X131335940Y-62751943D01*
X131264555Y-62703810D01*
X131200908Y-62661928D01*
X131149041Y-62628871D01*
X131112995Y-62607218D01*
X131096867Y-62599543D01*
X131077189Y-62606037D01*
X131039875Y-62623150D01*
X130992621Y-62647326D01*
X130987612Y-62650013D01*
X130923977Y-62681927D01*
X130880341Y-62697579D01*
X130853202Y-62697745D01*
X130839057Y-62683204D01*
X130838975Y-62683000D01*
X130831905Y-62665779D01*
X130815042Y-62624899D01*
X130789695Y-62563525D01*
X130757171Y-62484819D01*
X130718778Y-62391947D01*
X130675822Y-62288072D01*
X130634222Y-62187502D01*
X130588504Y-62076516D01*
X130546526Y-61973703D01*
X130509548Y-61882215D01*
X130478827Y-61805201D01*
X130455622Y-61745815D01*
X130441190Y-61707209D01*
X130436743Y-61692800D01*
X130447896Y-61676272D01*
X130477069Y-61649930D01*
X130515971Y-61620887D01*
X130626757Y-61529039D01*
X130713351Y-61423759D01*
X130774716Y-61307266D01*
X130809815Y-61181776D01*
X130817608Y-61049507D01*
X130811943Y-60988457D01*
X130781078Y-60861795D01*
X130727920Y-60749941D01*
X130655767Y-60654001D01*
X130567917Y-60575076D01*
X130467665Y-60514270D01*
X130358310Y-60472687D01*
X130243147Y-60451428D01*
X130125475Y-60451599D01*
X130008590Y-60474301D01*
X129895789Y-60520638D01*
X129790369Y-60591713D01*
X129746368Y-60631911D01*
X129661979Y-60735129D01*
X129603222Y-60847925D01*
X129569704Y-60967010D01*
X129561035Y-61089095D01*
X129576823Y-61210893D01*
X129616678Y-61329116D01*
X129680207Y-61440475D01*
X129767021Y-61541684D01*
X129864029Y-61620887D01*
X129904437Y-61651162D01*
X129932982Y-61677219D01*
X129943257Y-61692825D01*
X129937877Y-61709843D01*
X129922575Y-61750500D01*
X129898612Y-61811642D01*
X129867244Y-61890119D01*
X129829732Y-61982780D01*
X129787333Y-62086472D01*
X129745663Y-62187526D01*
X129699690Y-62298607D01*
X129657107Y-62401541D01*
X129619221Y-62493165D01*
X129587340Y-62570316D01*
X129562771Y-62629831D01*
X129546820Y-62668544D01*
X129540910Y-62683000D01*
X129526948Y-62697685D01*
X129499940Y-62697642D01*
X129456413Y-62682099D01*
X129392890Y-62650284D01*
X129392388Y-62650013D01*
X129344560Y-62625323D01*
X129305897Y-62607338D01*
X129284095Y-62599614D01*
X129283133Y-62599543D01*
X129266721Y-62607378D01*
X129230487Y-62629165D01*
X129178474Y-62662328D01*
X129114725Y-62704291D01*
X129044060Y-62751943D01*
X128972116Y-62800191D01*
X128907274Y-62842151D01*
X128853735Y-62875227D01*
X128815697Y-62896821D01*
X128797533Y-62904343D01*
X128780808Y-62894457D01*
X128747180Y-62866826D01*
X128700010Y-62824495D01*
X128642658Y-62770505D01*
X128578484Y-62707899D01*
X128557497Y-62686983D01*
X128340499Y-62469623D01*
X128505668Y-62227220D01*
X128555864Y-62152781D01*
X128599919Y-62085972D01*
X128635362Y-62030665D01*
X128659719Y-61990729D01*
X128670522Y-61970036D01*
X128670838Y-61968563D01*
X128665143Y-61949058D01*
X128649826Y-61909822D01*
X128627537Y-61857430D01*
X128611893Y-61822355D01*
X128582641Y-61755201D01*
X128555094Y-61687358D01*
X128533737Y-61630034D01*
X128527935Y-61612572D01*
X128511452Y-61565938D01*
X128495340Y-61529905D01*
X128486490Y-61516287D01*
X128466960Y-61507952D01*
X128424334Y-61496137D01*
X128364145Y-61482181D01*
X128291922Y-61467422D01*
X128259600Y-61461355D01*
X128177522Y-61446273D01*
X128098795Y-61431669D01*
X128031109Y-61418980D01*
X127982160Y-61409642D01*
X127972943Y-61407839D01*
X127896743Y-61392799D01*
X127896743Y-61075492D01*
X127896914Y-60971154D01*
X127897616Y-60892213D01*
X127899134Y-60835038D01*
X127901749Y-60795999D01*
X127905746Y-60771465D01*
X127911409Y-60757805D01*
X127919020Y-60751389D01*
X127922143Y-60750199D01*
X127940978Y-60745980D01*
X127982588Y-60737562D01*
X128041630Y-60725961D01*
X128112757Y-60712195D01*
X128190625Y-60697280D01*
X128269887Y-60682232D01*
X128345198Y-60668069D01*
X128411213Y-60655806D01*
X128462587Y-60646461D01*
X128493975Y-60641050D01*
X128500959Y-60640114D01*
X128507285Y-60627596D01*
X128521290Y-60594246D01*
X128540355Y-60546377D01*
X128547634Y-60527629D01*
X128576996Y-60455195D01*
X128611571Y-60375170D01*
X128642537Y-60307728D01*
X128665323Y-60256159D01*
X128680482Y-60213785D01*
X128685542Y-60187834D01*
X128684736Y-60184356D01*
X128674041Y-60167936D01*
X128649620Y-60131417D01*
X128614095Y-60078687D01*
X128570087Y-60013635D01*
X128520217Y-59940151D01*
X128510356Y-59925645D01*
X128452492Y-59839704D01*
X128409956Y-59774261D01*
X128381054Y-59726304D01*
X128364090Y-59692820D01*
X128357367Y-59670795D01*
X128359190Y-59657217D01*
X128359236Y-59657131D01*
X128373586Y-59639297D01*
X128405323Y-59604817D01*
X128451010Y-59557268D01*
X128507204Y-59500222D01*
X128570468Y-59437255D01*
X128577602Y-59430227D01*
X128657330Y-59353020D01*
X128718857Y-59296330D01*
X128763421Y-59259110D01*
X128792257Y-59240315D01*
X128804958Y-59237889D01*
X128823494Y-59248471D01*
X128861961Y-59272916D01*
X128916386Y-59308612D01*
X128982798Y-59352947D01*
X129057225Y-59403311D01*
X129074601Y-59415160D01*
X129321297Y-59583626D01*
X129432706Y-59533062D01*
X129500457Y-59503595D01*
X129573183Y-59473959D01*
X129635703Y-59450330D01*
X129638457Y-59449358D01*
X129687360Y-59431457D01*
X129725057Y-59416320D01*
X129743425Y-59407210D01*
X129743456Y-59407184D01*
X129749285Y-59390717D01*
X129759192Y-59350219D01*
X129772195Y-59290242D01*
X129787309Y-59215340D01*
X129803552Y-59130064D01*
X129804881Y-59122875D01*
X129821175Y-59035014D01*
X129836133Y-58955260D01*
X129848791Y-58888681D01*
X129858186Y-58840347D01*
X129863354Y-58815325D01*
X129863444Y-58814943D01*
X129866589Y-58804299D01*
X129872704Y-58796262D01*
X129885453Y-58790467D01*
X129908500Y-58786547D01*
X129945509Y-58784135D01*
X130000144Y-58782865D01*
X130076067Y-58782371D01*
X130176944Y-58782286D01*
X130190000Y-58782286D01*
X130293910Y-58782348D01*
G37*
X130293910Y-58782348D02*
X130372454Y-58782778D01*
X130429298Y-58783942D01*
X130468105Y-58786207D01*
X130492538Y-58789940D01*
X130506262Y-58795506D01*
X130512940Y-58803273D01*
X130516236Y-58813605D01*
X130516556Y-58814943D01*
X130521562Y-58839079D01*
X130530829Y-58886701D01*
X130543392Y-58952741D01*
X130558287Y-59032128D01*
X130574551Y-59119796D01*
X130575119Y-59122875D01*
X130591410Y-59208789D01*
X130606652Y-59284696D01*
X130619861Y-59346045D01*
X130630054Y-59388282D01*
X130636248Y-59406855D01*
X130636543Y-59407184D01*
X130654788Y-59416253D01*
X130692405Y-59431367D01*
X130741271Y-59449262D01*
X130741543Y-59449358D01*
X130803093Y-59472493D01*
X130875657Y-59501965D01*
X130944057Y-59531597D01*
X130947294Y-59533062D01*
X131058702Y-59583626D01*
X131305399Y-59415160D01*
X131381077Y-59363803D01*
X131449631Y-59317889D01*
X131507088Y-59280030D01*
X131549476Y-59252837D01*
X131572825Y-59238921D01*
X131575042Y-59237889D01*
X131592010Y-59242484D01*
X131623701Y-59264655D01*
X131671352Y-59305447D01*
X131736198Y-59365905D01*
X131802397Y-59430227D01*
X131866214Y-59493612D01*
X131923329Y-59551451D01*
X131970305Y-59600175D01*
X132003703Y-59636210D01*
X132020085Y-59655984D01*
X132020694Y-59657002D01*
X132022505Y-59670572D01*
X132015683Y-59692733D01*
X131998540Y-59726478D01*
X131969393Y-59774800D01*
X131926555Y-59840692D01*
X131869448Y-59925517D01*
X131818766Y-60000177D01*
X131773461Y-60067140D01*
X131736150Y-60122516D01*
X131709452Y-60162420D01*
X131695985Y-60182962D01*
X131695137Y-60184356D01*
X131696781Y-60204038D01*
X131709245Y-60242293D01*
X131730048Y-60291889D01*
X131737462Y-60307728D01*
X131769814Y-60378290D01*
X131804328Y-60458353D01*
X131832365Y-60527629D01*
X131852568Y-60579045D01*
X131868615Y-60618119D01*
X131877888Y-60638541D01*
X131879041Y-60640114D01*
X131896096Y-60642721D01*
X131936298Y-60649863D01*
X131994302Y-60660523D01*
X132064763Y-60673685D01*
X132142335Y-60688333D01*
X132221672Y-60703449D01*
X132297431Y-60718018D01*
X132364264Y-60731022D01*
X132416828Y-60741445D01*
X132449776Y-60748270D01*
X132457857Y-60750199D01*
X132466205Y-60754962D01*
X132472506Y-60765718D01*
X132477045Y-60786098D01*
X132480104Y-60819734D01*
X132481967Y-60870255D01*
X132482918Y-60941292D01*
X132483240Y-61036476D01*
X132483257Y-61075492D01*
X132483257Y-61392799D01*
X132407057Y-61407839D01*
X132364663Y-61415995D01*
X132301400Y-61427899D01*
X132224962Y-61442116D01*
X132143043Y-61457210D01*
X132120400Y-61461355D01*
X132044806Y-61476053D01*
X131978953Y-61490505D01*
X131928366Y-61503375D01*
X131898574Y-61513322D01*
X131893612Y-61516287D01*
X131881426Y-61537283D01*
X131863953Y-61577967D01*
X131844577Y-61630322D01*
X131840734Y-61641600D01*
X131815339Y-61711523D01*
X131783817Y-61790418D01*
X131752969Y-61861266D01*
X131752817Y-61861595D01*
X131701447Y-61972733D01*
X131870399Y-62221253D01*
X132039352Y-62469772D01*
X131822429Y-62687058D01*
X131756819Y-62751726D01*
X131696979Y-62808733D01*
X131646267Y-62855033D01*
X131608046Y-62887584D01*
X131585675Y-62903343D01*
X131582466Y-62904343D01*
X131563626Y-62896469D01*
X131525180Y-62874578D01*
X131471330Y-62841267D01*
X131406276Y-62799131D01*
X131335940Y-62751943D01*
X131264555Y-62703810D01*
X131200908Y-62661928D01*
X131149041Y-62628871D01*
X131112995Y-62607218D01*
X131096867Y-62599543D01*
X131077189Y-62606037D01*
X131039875Y-62623150D01*
X130992621Y-62647326D01*
X130987612Y-62650013D01*
X130923977Y-62681927D01*
X130880341Y-62697579D01*
X130853202Y-62697745D01*
X130839057Y-62683204D01*
X130838975Y-62683000D01*
X130831905Y-62665779D01*
X130815042Y-62624899D01*
X130789695Y-62563525D01*
X130757171Y-62484819D01*
X130718778Y-62391947D01*
X130675822Y-62288072D01*
X130634222Y-62187502D01*
X130588504Y-62076516D01*
X130546526Y-61973703D01*
X130509548Y-61882215D01*
X130478827Y-61805201D01*
X130455622Y-61745815D01*
X130441190Y-61707209D01*
X130436743Y-61692800D01*
X130447896Y-61676272D01*
X130477069Y-61649930D01*
X130515971Y-61620887D01*
X130626757Y-61529039D01*
X130713351Y-61423759D01*
X130774716Y-61307266D01*
X130809815Y-61181776D01*
X130817608Y-61049507D01*
X130811943Y-60988457D01*
X130781078Y-60861795D01*
X130727920Y-60749941D01*
X130655767Y-60654001D01*
X130567917Y-60575076D01*
X130467665Y-60514270D01*
X130358310Y-60472687D01*
X130243147Y-60451428D01*
X130125475Y-60451599D01*
X130008590Y-60474301D01*
X129895789Y-60520638D01*
X129790369Y-60591713D01*
X129746368Y-60631911D01*
X129661979Y-60735129D01*
X129603222Y-60847925D01*
X129569704Y-60967010D01*
X129561035Y-61089095D01*
X129576823Y-61210893D01*
X129616678Y-61329116D01*
X129680207Y-61440475D01*
X129767021Y-61541684D01*
X129864029Y-61620887D01*
X129904437Y-61651162D01*
X129932982Y-61677219D01*
X129943257Y-61692825D01*
X129937877Y-61709843D01*
X129922575Y-61750500D01*
X129898612Y-61811642D01*
X129867244Y-61890119D01*
X129829732Y-61982780D01*
X129787333Y-62086472D01*
X129745663Y-62187526D01*
X129699690Y-62298607D01*
X129657107Y-62401541D01*
X129619221Y-62493165D01*
X129587340Y-62570316D01*
X129562771Y-62629831D01*
X129546820Y-62668544D01*
X129540910Y-62683000D01*
X129526948Y-62697685D01*
X129499940Y-62697642D01*
X129456413Y-62682099D01*
X129392890Y-62650284D01*
X129392388Y-62650013D01*
X129344560Y-62625323D01*
X129305897Y-62607338D01*
X129284095Y-62599614D01*
X129283133Y-62599543D01*
X129266721Y-62607378D01*
X129230487Y-62629165D01*
X129178474Y-62662328D01*
X129114725Y-62704291D01*
X129044060Y-62751943D01*
X128972116Y-62800191D01*
X128907274Y-62842151D01*
X128853735Y-62875227D01*
X128815697Y-62896821D01*
X128797533Y-62904343D01*
X128780808Y-62894457D01*
X128747180Y-62866826D01*
X128700010Y-62824495D01*
X128642658Y-62770505D01*
X128578484Y-62707899D01*
X128557497Y-62686983D01*
X128340499Y-62469623D01*
X128505668Y-62227220D01*
X128555864Y-62152781D01*
X128599919Y-62085972D01*
X128635362Y-62030665D01*
X128659719Y-61990729D01*
X128670522Y-61970036D01*
X128670838Y-61968563D01*
X128665143Y-61949058D01*
X128649826Y-61909822D01*
X128627537Y-61857430D01*
X128611893Y-61822355D01*
X128582641Y-61755201D01*
X128555094Y-61687358D01*
X128533737Y-61630034D01*
X128527935Y-61612572D01*
X128511452Y-61565938D01*
X128495340Y-61529905D01*
X128486490Y-61516287D01*
X128466960Y-61507952D01*
X128424334Y-61496137D01*
X128364145Y-61482181D01*
X128291922Y-61467422D01*
X128259600Y-61461355D01*
X128177522Y-61446273D01*
X128098795Y-61431669D01*
X128031109Y-61418980D01*
X127982160Y-61409642D01*
X127972943Y-61407839D01*
X127896743Y-61392799D01*
X127896743Y-61075492D01*
X127896914Y-60971154D01*
X127897616Y-60892213D01*
X127899134Y-60835038D01*
X127901749Y-60795999D01*
X127905746Y-60771465D01*
X127911409Y-60757805D01*
X127919020Y-60751389D01*
X127922143Y-60750199D01*
X127940978Y-60745980D01*
X127982588Y-60737562D01*
X128041630Y-60725961D01*
X128112757Y-60712195D01*
X128190625Y-60697280D01*
X128269887Y-60682232D01*
X128345198Y-60668069D01*
X128411213Y-60655806D01*
X128462587Y-60646461D01*
X128493975Y-60641050D01*
X128500959Y-60640114D01*
X128507285Y-60627596D01*
X128521290Y-60594246D01*
X128540355Y-60546377D01*
X128547634Y-60527629D01*
X128576996Y-60455195D01*
X128611571Y-60375170D01*
X128642537Y-60307728D01*
X128665323Y-60256159D01*
X128680482Y-60213785D01*
X128685542Y-60187834D01*
X128684736Y-60184356D01*
X128674041Y-60167936D01*
X128649620Y-60131417D01*
X128614095Y-60078687D01*
X128570087Y-60013635D01*
X128520217Y-59940151D01*
X128510356Y-59925645D01*
X128452492Y-59839704D01*
X128409956Y-59774261D01*
X128381054Y-59726304D01*
X128364090Y-59692820D01*
X128357367Y-59670795D01*
X128359190Y-59657217D01*
X128359236Y-59657131D01*
X128373586Y-59639297D01*
X128405323Y-59604817D01*
X128451010Y-59557268D01*
X128507204Y-59500222D01*
X128570468Y-59437255D01*
X128577602Y-59430227D01*
X128657330Y-59353020D01*
X128718857Y-59296330D01*
X128763421Y-59259110D01*
X128792257Y-59240315D01*
X128804958Y-59237889D01*
X128823494Y-59248471D01*
X128861961Y-59272916D01*
X128916386Y-59308612D01*
X128982798Y-59352947D01*
X129057225Y-59403311D01*
X129074601Y-59415160D01*
X129321297Y-59583626D01*
X129432706Y-59533062D01*
X129500457Y-59503595D01*
X129573183Y-59473959D01*
X129635703Y-59450330D01*
X129638457Y-59449358D01*
X129687360Y-59431457D01*
X129725057Y-59416320D01*
X129743425Y-59407210D01*
X129743456Y-59407184D01*
X129749285Y-59390717D01*
X129759192Y-59350219D01*
X129772195Y-59290242D01*
X129787309Y-59215340D01*
X129803552Y-59130064D01*
X129804881Y-59122875D01*
X129821175Y-59035014D01*
X129836133Y-58955260D01*
X129848791Y-58888681D01*
X129858186Y-58840347D01*
X129863354Y-58815325D01*
X129863444Y-58814943D01*
X129866589Y-58804299D01*
X129872704Y-58796262D01*
X129885453Y-58790467D01*
X129908500Y-58786547D01*
X129945509Y-58784135D01*
X130000144Y-58782865D01*
X130076067Y-58782371D01*
X130176944Y-58782286D01*
X130190000Y-58782286D01*
X130293910Y-58782348D01*
D12*
%TO.C,J5*%
X138710000Y-76350000D02*
X137380000Y-76350000D01*
X138710000Y-75020000D02*
X138710000Y-76350000D01*
X138710000Y-73750000D02*
X136050000Y-73750000D01*
X136050000Y-73750000D02*
X136050000Y-68610000D01*
X138710000Y-73750000D02*
X138710000Y-68610000D01*
X138710000Y-68610000D02*
X136050000Y-68610000D01*
%TO.C,J2*%
X119770000Y-83930000D02*
X122430000Y-83930000D01*
X119770000Y-83870000D02*
X119770000Y-83930000D01*
X122430000Y-83870000D02*
X122430000Y-83930000D01*
X119770000Y-83870000D02*
X122430000Y-83870000D01*
X119770000Y-82600000D02*
X119770000Y-81270000D01*
X119770000Y-81270000D02*
X121100000Y-81270000D01*
%TO.C,R3*%
X121172500Y-70712258D02*
X121172500Y-70237742D01*
X120127500Y-70712258D02*
X120127500Y-70237742D01*
%TO.C,U4*%
X130360000Y-82210000D02*
X130660000Y-82210000D01*
X130660000Y-82210000D02*
X130660000Y-81910000D01*
X123740000Y-82210000D02*
X123440000Y-82210000D01*
X123440000Y-82210000D02*
X123440000Y-81910000D01*
X130360000Y-74990000D02*
X130660000Y-74990000D01*
X130660000Y-74990000D02*
X130660000Y-75290000D01*
X123740000Y-74990000D02*
X123440000Y-74990000D01*
X123440000Y-74990000D02*
X123440000Y-75290000D01*
X123440000Y-75290000D02*
X122125000Y-75290000D01*
%TO.C,U3*%
X135300000Y-72350000D02*
X132800000Y-72350000D01*
X135300000Y-71850000D02*
X135300000Y-72350000D01*
X136130000Y-71850000D02*
X135300000Y-71850000D01*
X135300000Y-57950000D02*
X135300000Y-58700000D01*
X125300000Y-57950000D02*
X135300000Y-57950000D01*
X125300000Y-58700000D02*
X125300000Y-57950000D01*
X125290000Y-72350000D02*
X127800000Y-72350000D01*
X125290000Y-71850000D02*
X125290000Y-72350000D01*
%TO.C,C1*%
X138110000Y-60240580D02*
X138110000Y-59959420D01*
X137090000Y-60240580D02*
X137090000Y-59959420D01*
%TO.C,C2*%
X138110000Y-63884420D02*
X138110000Y-64165580D01*
X137090000Y-63884420D02*
X137090000Y-64165580D01*
%TO.C,C4*%
X136594420Y-81820000D02*
X136875580Y-81820000D01*
X136594420Y-82840000D02*
X136875580Y-82840000D01*
%TO.C,C5*%
X136465000Y-67365580D02*
X136465000Y-67084420D01*
X137485000Y-67365580D02*
X137485000Y-67084420D01*
%TO.C,C6*%
X122265580Y-64340000D02*
X121984420Y-64340000D01*
X122265580Y-65360000D02*
X121984420Y-65360000D01*
%TO.C,C7*%
X121860000Y-79909420D02*
X121860000Y-80190580D01*
X120840000Y-79909420D02*
X120840000Y-80190580D01*
%TO.C,C8*%
X122409420Y-75185000D02*
X122690580Y-75185000D01*
X122409420Y-74165000D02*
X122690580Y-74165000D01*
%TO.C,C9*%
X122434420Y-71865000D02*
X122715580Y-71865000D01*
X122434420Y-72885000D02*
X122715580Y-72885000D01*
%TO.C,C10*%
X131695580Y-83390000D02*
X131414420Y-83390000D01*
X131695580Y-82370000D02*
X131414420Y-82370000D01*
%TO.C,J1*%
X119770000Y-61280000D02*
X122430000Y-61280000D01*
X119770000Y-61160000D02*
X119770000Y-61280000D01*
X122430000Y-61160000D02*
X122430000Y-61280000D01*
X122430000Y-58620000D02*
X122430000Y-59950000D01*
X121100000Y-58620000D02*
X122430000Y-58620000D01*
%TO.C,J3*%
X124610000Y-91530000D02*
X124610000Y-94190000D01*
X129750000Y-91530000D02*
X124610000Y-91530000D01*
X129750000Y-94190000D02*
X124610000Y-94190000D01*
X129750000Y-91530000D02*
X129750000Y-94190000D01*
X131020000Y-91530000D02*
X132350000Y-91530000D01*
X132350000Y-91530000D02*
X132350000Y-92860000D01*
%TO.C,J4*%
X126675000Y-86685000D02*
X130205000Y-86685000D01*
X126675000Y-90615000D02*
X130205000Y-90615000D01*
X125350000Y-86750000D02*
X126675000Y-86750000D01*
X126675000Y-86685000D02*
X126675000Y-86750000D01*
X130205000Y-86685000D02*
X130205000Y-86750000D01*
X126675000Y-90550000D02*
X126675000Y-90615000D01*
X130205000Y-90550000D02*
X130205000Y-90615000D01*
%TO.C,L1*%
X122500000Y-61050000D02*
X120900000Y-61050000D01*
X122500000Y-64250000D02*
X120900000Y-64250000D01*
%TO.C,R1*%
X134242742Y-73657500D02*
X134717258Y-73657500D01*
X134242742Y-74702500D02*
X134717258Y-74702500D01*
%TO.C,R2*%
X134272742Y-75872500D02*
X134747258Y-75872500D01*
X134272742Y-74827500D02*
X134747258Y-74827500D01*
%TO.C,R4*%
X125487258Y-73472500D02*
X125012742Y-73472500D01*
X125487258Y-72427500D02*
X125012742Y-72427500D01*
%TO.C,R5*%
X121897500Y-77612258D02*
X121897500Y-77137742D01*
X120852500Y-77612258D02*
X120852500Y-77137742D01*
%TO.C,R6*%
X120102500Y-73862258D02*
X120102500Y-73387742D01*
X121147500Y-73862258D02*
X121147500Y-73387742D01*
%TO.C,R7*%
X122002500Y-70687258D02*
X122002500Y-70212742D01*
X123047500Y-70687258D02*
X123047500Y-70212742D01*
%TO.C,R8*%
X123227500Y-70162742D02*
X123227500Y-70637258D01*
X124272500Y-70162742D02*
X124272500Y-70637258D01*
%TO.C,U1*%
X137955000Y-81605000D02*
X137005000Y-81605000D01*
X138055000Y-76405000D02*
X138055000Y-76905000D01*
X137555000Y-76405000D02*
X138055000Y-76405000D01*
X134755000Y-76405000D02*
X135255000Y-76405000D01*
X134755000Y-76905000D02*
X134755000Y-76405000D01*
X134755000Y-81605000D02*
X134755000Y-81105000D01*
X135255000Y-81605000D02*
X134755000Y-81605000D01*
%TO.C,U5*%
X121737500Y-68810000D02*
X122537500Y-68810000D01*
X121737500Y-68810000D02*
X120937500Y-68810000D01*
X121737500Y-65690000D02*
X122537500Y-65690000D01*
X121737500Y-65690000D02*
X119937500Y-65690000D01*
%TD*%
M02*
